<?xml version="1.0" standalone="no"?>
<!DOCTYPE svg PUBLIC "-//W3C//DTD SVG 1.1//EN" "http://www.w3.org/Graphics/SVG/1.1/DTD/svg11.dtd" >
<svg>
<metadata>
Created by FontForge 20090914 at Sat Mar  3 14:44:29 2018
 By www-data
&#194;&#169;1991 AG Baltia
</metadata>
<defs>
<font id="Souvenir" horiz-adv-x="600" >
  <font-face 
    font-family="Souvenir"
    font-weight="400"
    font-stretch="normal"
    units-per-em="1000"
    panose-1="0 0 0 0 0 0 0 0 0 0"
    ascent="800"
    descent="-200"
    x-height="472.997"
    cap-height="732"
    bbox="-28.999 -205.001 1057 911"
    underline-thickness="49"
    underline-position="-78"
    unicode-range="U+0020-U+2122"
  />
<missing-glyph horiz-adv-x="795" 
d="M49 0v795h697v-795h-697zM697 49v697h-599v-697h599z" />
    <glyph glyph-name=".notdef" horiz-adv-x="795" 
d="M49 0v795h697v-795h-697zM697 49v697h-599v-697h599z" />
    <glyph glyph-name="space" unicode=" " horiz-adv-x="300" 
 />
    <glyph glyph-name="exclam" unicode="!" horiz-adv-x="300" 
d="M146 -8c-15.333 0 -27.999 5.33301 -37.999 16s-15 23.667 -15 39s5.16699 27.833 15.5 37.5s22.833 14.5 37.5 14.5c16 0 29 -5.33301 39 -16s15 -23.667 15 -39c0 -14.667 -5.33301 -27 -16 -37s-23.334 -15 -38.001 -15zM197.001 662l-32 -431
c0 -12.667 -1 -23.667 -3 -33s-7.66699 -14 -17 -14c-8.66699 0 -14 5 -16 15s-3 22.333 -3 37l-29 451c0 22 3.83301 39.167 11.5 51.5s21.5 18.5 41.5 18.5c15.333 0 27 -4.83301 35 -14.5s12 -29.5 12 -59.5v-21z" />
    <glyph glyph-name="quotedbl" unicode="&#x22;" horiz-adv-x="360" 
d="M99 507h-20l-33 196c-2 10 1.5 19.833 10.5 29.5s19.833 14.5 32.5 14.5c12 0 22.667 -4.66699 32 -14s13 -19.333 11 -30zM280 507h-20l-33 196c-2 10 1.5 19.833 10.5 29.5s19.833 14.5 32.5 14.5c12 0 22.667 -4.66699 32 -14s13 -19.333 11 -30z" />
    <glyph glyph-name="numbersign" unicode="#" 
d="M392 261l-41 -121.998c-2.66699 -8.66699 -6.16699 -15.167 -10.5 -19.5s-10.833 -6.5 -19.5 -6.5c-7.33301 0 -14 2.66699 -20 8s-9 12 -9 20c0 4 0.833008 8.83301 2.5 14.5s3.5 11.167 5.5 16.5l30 89h-146l-35 -106c-5.33301 -16 -9 -25.333 -11 -28
c-6 -9.33301 -14.667 -14 -26 -14c-8 0 -15 2.66699 -21 8s-9 12.333 -9 21c0 4 1.33301 9.83301 4 17.5l5 14.5l29 87h-71c-11.333 0 -20 1.83301 -26 5.5s-9 11.167 -9 22.5c0 9.33301 3.16699 16.166 9.5 20.499s14.5 6.5 24.5 6.5h90l53 159h-70
c-23.333 0 -35 9.33301 -35 28c0 9.33301 3 16.333 9 21s14 7 24 7h91l41 120c2.66699 9.33301 6.33398 16.333 11.001 21s11.334 7 20.001 7c8 0 15 -2.66699 21 -8s9 -12.333 9 -21c0 -5.33301 -0.333008 -9.33301 -1 -12s-3 -9.33398 -7 -20.001l-29 -87h146l40 122
c3.33301 8.66699 7.16602 15.167 11.499 19.5s10.833 6.5 19.5 6.5c8 0 14.667 -2.66699 20 -8s8 -12 8 -20c0 -4 -0.833008 -9 -2.5 -15s-3.5 -11.333 -5.5 -16l-30 -89h69c10 0 18.333 -2.16699 25 -6.5s10 -11.5 10 -21.5c0 -9.33301 -3.33301 -16.333 -10 -21
s-14.667 -7 -24 -7h-88l-54 -159h69c9.33301 0 15.666 -0.666992 18.999 -2c10.667 -4 16 -12.333 16 -25c0 -9.33301 -3.33301 -16.333 -10 -21s-14.667 -7 -24 -7h-88zM402 476.002h-146l-53 -159h146z" />
    <glyph glyph-name="dollar" unicode="$" 
d="M328 708l0.00488281 -277.002c66 -27.333 114.333 -55.333 145 -84c42.667 -40 64 -90 64 -150c0 -58.667 -19.833 -107.5 -59.5 -146.5s-89.5 -61.5 -149.5 -67.5v-81c0 -16 -0.333008 -25 -1 -27c-2.66699 -8 -10.334 -12 -23.001 -12c-12 0 -19.167 2.33301 -21.5 7
s-3.5 13.334 -3.5 26.001v87c-48 0 -91.667 13.667 -131 41c-20.667 14.667 -38.334 32.667 -53.001 54c-16.667 24.667 -25 48 -25 70c0 22.667 9.66699 34 29 34c9.33301 0 16.666 -3.33301 21.999 -10c3.33301 -4.66699 6.66602 -12.667 9.99902 -24
c10.667 -40 27.167 -68.667 49.5 -86s55.166 -28 98.499 -32v322l-13 6c-61.333 28.667 -103 53.334 -125 74.001c-36 33.333 -54 77 -54 131c0 52 19.167 96.833 57.5 134.5s83.166 56.5 134.499 56.5v76c0 14 1.16699 23.667 3.5 29s9.16602 8 20.499 8
c8.66699 0 15 -2 19 -6s6 -14.333 6 -31v-76c40.667 0 77.334 -11.667 110.001 -35c36.667 -26 55 -59 55 -99c0 -12 -2.66699 -22.5 -8 -31.5s-13.666 -13.5 -24.999 -13.5s-20 4.16699 -26 12.5s-9 18.5 -9 30.5v15c0 11.333 -0.5 19.333 -1.5 24
s-4.5 10.334 -10.5 17.001c-10 10.667 -21.333 18.167 -34 22.5s-29.667 8.16602 -51 11.499zM278.005 449.998v255.999c-36 0 -66.833 -11 -92.5 -33s-38.5 -51.333 -38.5 -88c0 -33.333 14.333 -62 43 -86c18 -15.333 47.333 -31.666 88 -48.999zM328.005 327.997
l-0.000976562 -299c40.667 0 75.334 13.333 104.001 40s43 60.667 43 102c0 47.333 -23 86 -69 116c-17.333 11.333 -43.333 25 -78 41z" />
    <glyph glyph-name="percent" unicode="%" horiz-adv-x="820" 
d="M180 306c-54.667 0 -95.667 24.334 -123 73.001c-22.667 40 -34 89.667 -34 149s11 108.666 33 147.999c28 49.333 69.333 74 124 74s96 -24.667 124 -74c22.667 -40 34 -89.333 34 -148s-11.333 -108 -34 -148c-28 -49.333 -69.333 -74 -124 -74zM181 333.001
c38.667 0 65.666 25.332 80.999 75.999c10 32.667 15 74 15 124c0 50.667 -4.66699 90.334 -14 119.001c-15.333 47.333 -42.666 71 -81.999 71c-41.333 0 -69.333 -24.333 -84 -73c-8.66699 -28 -13 -69 -13 -123c0 -48.667 5 -88.667 15 -120
c16 -49.333 43.333 -74 82 -74zM633.999 -15c-54.667 0 -95.667 24.334 -123 73.001c-22.667 40 -34 89.667 -34 149s11 108.666 33 147.999c28 49.333 69.333 74 124 74s96 -24.667 124 -74c22.667 -40 34 -89.333 34 -148s-11.333 -108 -34 -148
c-28 -49.333 -69.333 -74 -124 -74zM634.999 12.001c38.667 0 65.666 25.332 80.999 75.999c10 32.667 15 74 15 124c0 50.667 -4.66699 90.334 -14 119.001c-15.333 47.333 -42.666 71 -81.999 71c-41.333 0 -69.333 -24.333 -84 -73c-8.66699 -28 -13 -69 -13 -123
c0 -48.667 5 -88.667 15 -120c16 -49.333 43.333 -74 82 -74zM639.998 704l-413.998 -672.998c-5.33301 -8 -10.333 -16 -15 -24c-6 -6.66699 -14.667 -10 -26 -10c-8.66699 0 -14.334 0.666992 -17.001 2s-4 3.66602 -4 6.99902s2.33301 8.83301 7 16.5s7 11.834 7 12.501
l414 673c3.33301 5.33301 6.66602 11 9.99902 17c5.33301 7.33301 14 11 26 11c14.667 0 22 -3.33301 22 -10c0 -2.66699 -1.66699 -6.83398 -5 -12.501s-5 -8.83398 -5 -9.50098z" />
    <glyph glyph-name="ampersand" unicode="&#x26;" horiz-adv-x="800" 
d="M294 399l194 -227.997c22 25.333 40.667 51 56 77c20.667 35.333 31 64.666 31 87.999c0 13.333 -10.833 24.333 -32.5 33s-32.5 18.334 -32.5 29.001c0 9.33301 2.83301 15 8.5 17s14.5 3 26.5 3h151c15.333 0 25.833 -0.833008 31.5 -2.5s8.5 -7.83398 8.5 -18.501
c0 -6 -2.33301 -11 -7 -15s-10.667 -7.33301 -18 -10c-15.333 -6 -23.333 -9.33301 -24 -10c-6.66699 -4 -13.667 -9.66699 -21 -17c-6.66699 -8.66699 -16 -23 -28 -43c-9.33301 -16 -14.333 -24.667 -15 -26l-98 -140c24.667 -24 51.667 -43.5 81 -58.5
s59.333 -22.5 90 -22.5c10.667 0 24.167 1.5 40.5 4.5s26.833 4.5 31.5 4.5c12.667 0 19 -6 19 -18c0 -8.66699 -4.66699 -16.667 -14 -24c-6 -4.66699 -15.333 -9.83398 -28 -15.501s-26.5 -9.83398 -41.5 -12.501s-30.167 -4 -45.5 -4c-36.667 0 -70.667 7.5 -102 22.5
s-62 36.167 -92 63.5c-32 -28.667 -66.667 -51 -104 -67s-76.333 -24 -117 -24c-59.333 0 -110 16.667 -152 50c-46 36.667 -69 84 -69 142c0 46.667 17.333 90.334 52 131.001c28 32.667 66.333 63 115 91c-24 31.333 -41.333 58.666 -52 81.999
c-14.667 31.333 -22 62.666 -22 93.999c0 53.333 20.667 96 62 128c38 29.333 84.667 44 140 44c42.667 0 79.334 -11 110.001 -33c18 -12.667 32.5 -28.667 43.5 -48s16.5 -39.666 16.5 -60.999c0 -44 -22.667 -85.667 -68 -125c-22.667 -20 -64.334 -47 -125.001 -81z
M428 113.003l-209.003 246.999c-35.333 -20 -62.666 -42.333 -81.999 -67c-23.333 -30 -35 -63.333 -35 -100c0 -44 15.333 -79.5 46 -106.5s68.334 -40.5 113.001 -40.5c34 0 64 5.66699 90 17c20.667 8.66699 46.334 25.334 77.001 50.001zM262.997 440.002
c46.667 24.667 80 44.999 100 60.999c38 30.667 57 62.667 57 96c0 31.333 -10.833 56.833 -32.5 76.5s-48.5 29.5 -80.5 29.5c-30 0 -57.5 -9.16699 -82.5 -27.5s-37.5 -42.166 -37.5 -71.499c0 -26 8.33301 -55 25 -87c12 -23.333 29 -49 51 -77z" />
    <glyph glyph-name="quotesingle" unicode="'" horiz-adv-x="160" 
d="M90 507h-20l-33 196c-2 10 1.5 19.833 10.5 29.5s19.833 14.5 32.5 14.5c12 0 22.667 -4.66699 32 -14s13 -19.333 11 -30z" />
    <glyph glyph-name="parenleft" unicode="(" horiz-adv-x="240" 
d="M224 -146c0 -4.66699 -2.49902 -7.83203 -7.49902 -9.49902s-10.5 -2.5 -16.5 -2.5c-13.333 0 -24.333 5 -33 15c-2.66699 3.33301 -9.33398 14.666 -20.001 33.999c-36 66.667 -63.333 133.5 -82 200.5s-28 136.5 -28 208.5c0 52 4.83301 102.5 14.5 151.5
s24.5 98.5 44.5 148.5c10 25.333 20.5 49.333 31.5 72s22.5 43.334 34.5 62.001c9.33301 15.333 22 23 38 23s24 -4 24 -12c0 -3.33301 -2 -9.33301 -6 -18s-7.33301 -16.334 -10 -23.001c-62 -128 -93 -263 -93 -405c0 -141.333 31 -276 93 -404c4 -8 7 -14.667 9 -20
c4.66699 -10.667 7 -17.667 7 -21z" />
    <glyph glyph-name="parenright" unicode=")" horiz-adv-x="240" 
d="M15 745c0 4.66699 2.49902 7.83008 7.49902 9.49707s10.5 2.5 16.5 2.5c13.333 0 24.333 -5 33 -15c2.66699 -3.33301 9.33398 -14.666 20.001 -33.999c36 -66.667 63.333 -133.5 82 -200.5s28 -136.5 28 -208.5c0 -101.333 -20 -201.666 -60 -300.999
c-8.66699 -22 -18.667 -44.667 -30 -68c-13.333 -27.333 -24.833 -48.833 -34.5 -64.5s-22.5 -23.5 -38.5 -23.5s-24 4 -24 12c0 4 2 10.667 6 20c2 4.66699 5.33301 11.667 10 21c61.333 128.667 92 263.334 92 404.001c0 71.333 -7.5 140.333 -22.5 207
s-38.167 132.667 -69.5 198c-1.33301 2.66699 -4.33301 9.5 -9 20.5s-7 17.833 -7 20.5z" />
    <glyph glyph-name="asterisk" unicode="*" horiz-adv-x="360" 
d="M134 549c-12.667 -16 -20.9971 -25.9941 -24.9971 -29.9941c-11.333 -11.333 -23 -17 -35 -17c-10 0 -18 3.33301 -24 10s-9 15 -9 25c0 14 8 24.333 24 31c8.66699 3.33301 23.167 6.16602 43.5 8.49902s31.166 3.5 32.499 3.5c18 3.33301 27 8.66602 27 15.999
s-21.167 13.666 -63.5 18.999s-63.5 18.333 -63.5 39c0 9.33301 3.16699 17.5 9.5 24.5s14.166 10.5 23.499 10.5c16 0 34.667 -13.667 56 -41s35.666 -41 42.999 -41c1.33301 0 2.66602 2.33301 3.99902 7c0 9.33301 -3.33301 22.333 -10 39c-14.667 36.667 -22 57 -22 61
c0 9.33301 3.33301 17.666 10 24.999s15 11 25 11c11.333 0 20 -3.66699 26 -11s9 -16.666 9 -27.999c0 -9.33301 -5.16699 -26 -15.5 -50s-15.5 -40 -15.5 -48c1.33301 -5.33301 2.66602 -8 3.99902 -8c7.33301 0 21.5 14.5 42.5 43.5s39.5 43.5 55.5 43.5
c9.33301 0 17.333 -3 24 -9s10 -14 10 -24c0 -22 -21 -36.333 -63 -43s-63 -13.334 -63 -20.001s21 -13.334 63 -20.001s63 -21.334 63 -44.001c0 -9.33301 -3.16699 -17.166 -9.5 -23.499s-14.5 -9.5 -24.5 -9.5c-16 0 -34.5 14.5 -55.5 43.5s-35.167 43.5 -42.5 43.5
c-1.33301 0 -2.66602 -2.66699 -3.99902 -8c0 -8.66699 5.16699 -25 15.5 -49s15.5 -40.333 15.5 -49c0 -10.667 -3.16699 -19.834 -9.5 -27.501s-14.833 -11.5 -25.5 -11.5c-10 0 -18.167 3.5 -24.5 10.5s-9.5 15.5 -9.5 25.5c0 4.66699 7 25 21 61
c6.66699 17.333 10 30.333 10 39c-1.33301 5.33301 -2.66602 8 -3.99902 8c-4.66699 0 -11.167 -4.5 -19.5 -13.5s-14.833 -16.5 -19.5 -22.5z" />
    <glyph glyph-name="plus" unicode="+" horiz-adv-x="660" 
d="M70 292h229v228h63v-228h228v-63h-228v-229h-63v229h-229v63z" />
    <glyph glyph-name="comma" unicode="," horiz-adv-x="300" 
d="M148 -8l-11 0.00292969c-12.667 0 -22.667 3.33301 -30 10c-12 12 -18 26.333 -18 43c0 15.333 5.33301 27.666 16 36.999s23.667 14 39 14c22.667 0 40.334 -9.66699 53.001 -29c10.667 -16.667 16 -37.334 16 -62.001c0 -29.333 -7 -58.833 -21 -88.5
s-32.333 -54.5 -55 -74.5c-0.666992 -0.666992 -3.33398 -3 -8.00098 -7s-8 -6 -10 -6c-3.33301 0 -6.33301 1.33301 -9 4s-4 6 -4 10c17.333 19.333 32.833 39.166 46.5 59.499s20.5 39.833 20.5 58.5c0 12 -1.5 20.167 -4.5 24.5s-9.83301 6.5 -20.5 6.5z" />
    <glyph glyph-name="hyphen" unicode="-" horiz-adv-x="300" 
d="M235 257l-170 0.000976562h-16c-8.66699 0 -15.334 1.66699 -20.001 5s-7 10 -7 20c0 14 2.16699 22.833 6.5 26.5s12.833 5.5 25.5 5.5h11h170h16c8.66699 0 15.334 -1.5 20.001 -4.5s7 -9.5 7 -19.5c0 -16.667 -2.33301 -26.334 -7 -29.001s-16.667 -4 -36 -4z" />
    <glyph glyph-name="period" unicode="." horiz-adv-x="300" 
d="M149 -8c-15.333 0 -27.998 5.33301 -37.998 16s-15 23.667 -15 39s5.16699 27.833 15.5 37.5s22.833 14.5 37.5 14.5c15.333 0 28.166 -5.16699 38.499 -15.5s15.5 -23.5 15.5 -39.5c0 -14.667 -5.33301 -27 -16 -37s-23.334 -15 -38.001 -15z" />
    <glyph glyph-name="slash" unicode="/" horiz-adv-x="520" 
d="M11 -72l455.001 799c6 10 11.333 17 16 21c7.33301 6 16.333 9 27 9c9.33301 0 16.166 -2 20.499 -6s6.5 -9 6.5 -15c0 -4.66699 -1 -9.66699 -3 -15l-453 -795c-7.33301 -12.667 -13 -21 -17 -25c-6.66699 -6.66699 -15.667 -10 -27 -10
c-10.667 0 -18.167 2.16699 -22.5 6.5s-6.5 9.83301 -6.5 16.5c0 4 0.666992 7.16699 2 9.5s2 3.83301 2 4.5z" />
    <glyph glyph-name="zero" unicode="0" 
d="M303 -15c-85.333 0 -150.667 44.334 -196 133.001c-36.667 71.333 -55 153.666 -55 246.999c0 94.667 18 177.667 54 249c46 90.667 111.667 136 197 136c43.333 0 82.333 -13 117 -39c30 -22.667 56.333 -54.667 79 -96c18.667 -34 32.5 -73.167 41.5 -117.5
s13.5 -88.5 13.5 -132.5c0 -94 -18 -176 -54 -246c-46 -89.333 -111.667 -134 -197 -134zM302.999 30.001c34 0 62.999 15.0039 86.999 45.0039c18.667 23.333 34 54 46 92c8 27.333 13.833 58.666 17.5 93.999s5.5 70 5.5 104c0 37.333 -1.83301 73.666 -5.5 108.999
s-10.167 67.666 -19.5 96.999c-12 37.333 -27 67 -45 89c-24.667 30 -53.334 45 -86.001 45c-33.333 0 -62.333 -15.667 -87 -47c-18.667 -24 -34 -55 -46 -93c-8 -28 -13.833 -59.667 -17.5 -95s-5.5 -70.333 -5.5 -105c0 -38.667 1.83301 -74.834 5.5 -108.501
s10.834 -67.167 21.501 -100.5s25.334 -61 44.001 -83c24 -28.667 52.333 -43 85 -43z" />
    <glyph glyph-name="one" unicode="1" 
d="M369 709l-0.000976562 -572.001c0 -36 4.16699 -59.333 12.5 -70s29.166 -16 62.499 -16c16 0 30.167 -1.5 42.5 -4.5s18.5 -9.83301 18.5 -20.5c0 -11.333 -3 -18.5 -9 -21.5s-15.667 -4.5 -29 -4.5h-289c-9.33301 0 -15.666 0.333008 -18.999 1
c-14.667 2.66699 -22 10 -22 22c0 10.667 9 18 27 22c2 0.666992 17.833 2.5 47.5 5.5s48.834 10.833 57.501 23.5c6.66699 9.33301 10 31.666 10 66.999v417v13c0 9.33301 -0.5 17.333 -1.5 24s-3.16699 12.334 -6.5 17.001c-6.66699 8 -16.834 13.167 -30.501 15.5
s-28.167 3.5 -43.5 3.5l-53 -2c-12 0 -20.5 1.83301 -25.5 5.5s-7.5 8.83398 -7.5 15.501c0 10.667 6.33301 17.667 19 21l33 4c27.333 0 52.833 4.5 76.5 13.5s47.834 22.5 72.501 40.5l18.5 13.5c7 5 13.5 7.5 19.5 7.5c8.66699 0 14 -3.83301 16 -11.5s3 -17.5 3 -29.5z
" />
    <glyph glyph-name="two" unicode="2" 
d="M458 0l-362.002 -0.00195312c-15.333 0 -24.666 0.666992 -27.999 2c-8.66699 3.33301 -13 11 -13 23c0 10.667 11.667 34.667 35 72c18 28.667 34.333 52.334 49 71.001l154 167c49.333 47.333 83 83 101 107c36.667 48 55 92.333 55 133
c0 36 -13.167 66.167 -39.5 90.5s-57.833 36.5 -94.5 36.5c-39.333 0 -75.333 -11.667 -108 -35c-13.333 -10.667 -24.333 -22.334 -33 -35.001c-10.667 -16 -16 -31.333 -16 -46c0 -8.66699 0.833008 -15.334 2.5 -20.001s5.5 -11.334 11.5 -20.001l10.5 -17.5
c3 -5 4.5 -9.83301 4.5 -14.5c0 -12 -4.83301 -21.5 -14.5 -28.5s-20.834 -10.5 -33.501 -10.5c-19.333 0 -34.666 7.66699 -45.999 23s-17 33.333 -17 54c0 25.333 6.33301 50 19 74s30.167 45.833 52.5 65.5s48.5 34.334 78.5 44.001s62 14.5 96 14.5
c28.667 0 55 -3.16699 79 -9.5s47.333 -17.833 70 -34.5s40.5 -37 53.5 -61s19.5 -50.667 19.5 -80c0 -59.333 -29 -118.666 -87 -177.999c-20 -20.667 -50.667 -47.667 -92 -81c-50.667 -41.333 -90 -76.333 -118 -105c-40.667 -41.333 -72 -83.666 -94 -126.999h215
c36 0 61 2.33301 75 7s31.667 18.667 53 42c6.66699 7.33301 11.667 12.333 15 15c6.66699 5.33301 13.334 8 20.001 8c4.66699 0 8.66699 -1.66699 12 -5s5 -7.66602 5 -12.999c0 -4 -1.5 -10 -4.5 -18s-5.83301 -15 -8.5 -21c-8 -16.667 -13.333 -32.667 -16 -48
c-4.66699 -20.667 -10 -32.667 -16 -36s-21 -5 -45 -5z" />
    <glyph glyph-name="three" unicode="3" 
d="M309 363l-73.001 3c-10.667 0 -19.5 1.83301 -26.5 5.5s-10.5 10.5 -10.5 20.5c0 12.667 9 20 27 22s29 3 33 3c28 0 51.667 3 71 9s38.333 18 57 36c13.333 13.333 23.5 30.166 30.5 50.499s10.5 41.166 10.5 62.499c0 38 -14 68.667 -42 92s-61.667 35 -101 35
c-29.333 0 -54 -6.33301 -74 -19c-24 -15.333 -36 -36.666 -36 -63.999c0 -6.66699 0.833008 -15 2.5 -25s2.5 -15.667 2.5 -17c0 -10 -4 -17.5 -12 -22.5s-17.333 -7.5 -28 -7.5c-15.333 0 -28.333 4.66699 -39 14s-16 22 -16 38c0 18 5.33301 35.667 16 53
c8.66699 14.667 21 28.667 37 42c22 18 48 31.833 78 41.5s60.667 14.5 92 14.5c58 0 107.333 -15.667 148 -47c44.667 -34.667 67 -80.334 67 -137.001c0 -42 -16 -78 -48 -108c-28 -26 -64 -45.333 -108 -58c51.333 -10 94.666 -31.333 129.999 -64
c39.333 -36.667 59 -79.667 59 -129c0 -33.333 -7.33301 -64.333 -22 -93s-35 -53 -61 -73s-54.667 -34.333 -86 -43s-65 -13 -101 -13c-56.667 0 -107 11.333 -151 34c-55.333 28.667 -83 68.334 -83 119.001c0 14.667 4.16699 26.834 12.5 36.501s19.833 14.5 34.5 14.5
s24.834 -4 30.501 -12s8.5 -19.333 8.5 -34c0 -37.333 14.333 -66 43 -86c26 -18 59 -27 99 -27c24.667 0 47.834 3.16699 69.501 9.5s40.834 17.166 57.501 32.499s29.5 34.833 38.5 58.5s13.5 47.834 13.5 72.501c0 46 -13.833 84.167 -41.5 114.5
s-63.834 45.5 -108.501 45.5z" />
    <glyph glyph-name="four" unicode="4" 
d="M442 195l0.000976562 -79.001c0 -8.66699 0.333008 -17.334 1 -26.001s2.33398 -16.167 5.00098 -22.5s5.66699 -10.5 9 -12.5s11 -4.5 23 -7.5s18.667 -4.83301 20 -5.5c6.66699 -3.33301 10 -10 10 -20c0 -8.66699 -3.16699 -14.5 -9.5 -17.5
s-14.166 -4.5 -23.499 -4.5h-158c-10 0 -18 1.33301 -24 4s-9 8.33398 -9 17.001c0 6 2.33301 10.667 7 14s10 5.66602 16 6.99902c22 4 34.667 9.33301 38 16s5 22.667 5 48v89h-269h-14c-12.667 0 -22.667 1.66699 -30 5s-11 11 -11 23c0 20 10 54 30 102
c16 39.333 32 73 48 101c21.333 38 45.666 76 72.999 114s55.666 72.667 84.999 104l87 81c11.333 9.33301 19.333 15.333 24 18c8 4.66699 17.667 7 29 7c16.667 0 27.667 -6.33301 33 -19c3.33301 -8 5 -21.667 5 -41v-438h93c14.667 0 25.167 -1.66699 31.5 -5
s9.5 -11.666 9.5 -24.999c0 -11.333 -2.83301 -18.666 -8.5 -21.999s-14.834 -5 -27.501 -5h-98zM352.001 250.999v405c-116.667 -114.667 -202 -249.667 -256 -405h256z" />
    <glyph glyph-name="five" unicode="5" 
d="M175 659l-15.998 -244.002c48 28.667 99.333 43 154 43c71.333 0 129 -18.667 173 -56c47.333 -40 71 -95 71 -165c0 -36 -7.33301 -70.167 -22 -102.5s-35.167 -59.833 -61.5 -82.5s-57.5 -39.5 -93.5 -50.5s-72.333 -16.5 -109 -16.5
c-28.667 0 -55.167 2.83301 -79.5 8.5s-47.333 15 -69 28s-38.834 28.5 -51.501 46.5c-14.667 20.667 -22 42 -22 64c0 31.333 16 47 48 47c8.66699 0 16 -1.33301 22 -4c13.333 -6 20 -16 20 -30l-3 -27c0 -29.333 14.667 -51.666 44 -66.999c24 -12.667 52 -19 84 -19
c61.333 0 109.333 17.667 144 53s52 84 52 146c0 52.667 -12.667 95 -38 127c-28 34.667 -68 52 -120 52c-34.667 0 -66 -7.33301 -94 -22l-89 -51c-6.66699 0 -11.834 1.83301 -15.501 5.5s-5.5 11.834 -5.5 24.501v10l23 373l157 -13l153 8l40 5c14.667 0 22 -6 22 -18
c0 -10.667 -6.66699 -20.667 -20 -30s-33 -17.333 -59 -24s-55 -11.5 -87 -14.5s-63.333 -4.5 -94 -4.5h-58z" />
    <glyph glyph-name="six" unicode="6" 
d="M145 361c29.333 26.667 61.499 47.665 96.499 62.998s71.167 23 108.5 23c62 0 112 -19.667 150 -59s57 -90 57 -152c0 -72 -23.167 -131.833 -69.5 -179.5s-105.833 -71.5 -178.5 -71.5c-41.333 0 -79.5 7.83301 -114.5 23.5s-64.5 39.5 -88.5 71.5
c-21.333 28.667 -36.166 61.334 -44.499 98.001s-12.5 76.667 -12.5 120c0 63.333 10.167 122.333 30.5 177s52.166 104 95.499 148c34.667 36.667 77.834 67 129.501 91s102.5 36 152.5 36c12.667 0 21 -1.66699 25 -5s6 -8.66602 6 -15.999
c0 -6.66699 -4.33301 -12.167 -13 -16.5s-21 -6.5 -37 -6.5c-87.333 -11.333 -158 -49.833 -212 -115.5s-81 -142.167 -81 -229.5zM143.999 302.998c0 -45.333 1.83203 -78.501 5.49902 -99.501s9.83398 -42.5 18.501 -64.5c12 -31.333 30.667 -56.833 56 -76.5
s54.666 -29.5 87.999 -29.5c32.667 0 61.5 10.5 86.5 31.5s42.167 47.5 51.5 79.5c2.66699 10 5.33398 24.667 8.00098 44s4 31.333 4 36c0 48.667 -11.333 88.334 -34 119.001c-26 35.333 -62.667 53 -110 53c-33.333 0 -65.666 -9 -96.999 -27
c-26.667 -15.333 -52.334 -37.333 -77.001 -66z" />
    <glyph glyph-name="seven" unicode="7" 
d="M459 659l-243.001 -0.00292969c-42.667 0 -69.667 -4.66699 -81 -14s-18.166 -23 -20.499 -41s-5.16602 -28.833 -8.49902 -32.5s-8.66602 -5.5 -15.999 -5.5c-9.33301 0 -15 3.33301 -17 10s-3 16.334 -3 29.001l2 43v39c1.33301 19.333 3.5 30.833 6.5 34.5
s6.83301 6.33398 11.5 8.00098s10.667 2.5 18 2.5h14h382c6.66699 0.666992 11.667 1 15 1c13.333 0 20 -5.66699 20 -17c0 -5.33301 -2.83301 -14.5 -8.5 -27.5s-8.83398 -20.833 -9.50098 -23.5l-222 -599l-22 -63c-10.667 -21.333 -27.334 -32 -50.001 -32
c-12 0 -23.333 2.66699 -34 8s-16 13.333 -16 24c0 3.33301 0.666992 7.33301 2 12s3 9.33398 5 14.001z" />
    <glyph glyph-name="eight" unicode="8" 
d="M380 407c53.333 -20.667 94.668 -45.999 124.001 -75.999c36.667 -37.333 55 -81 55 -131c0 -30.667 -7.5 -60 -22.5 -88s-35.5 -51.667 -61.5 -71s-54.833 -33.5 -86.5 -42.5s-64.834 -13.5 -99.501 -13.5c-62.667 0 -116.667 14.333 -162 43
c-52.667 33.333 -79 79.666 -79 138.999c0 46.667 19.667 88.667 59 126c30.667 29.333 72 54.333 124 75c-46 21.333 -80.333 44.333 -103 69c-29.333 32 -44 69.667 -44 113c0 28.667 6.66699 55.5 20 80.5s31.666 46.5 54.999 64.5c46.667 36.667 101.334 55 164.001 55
c52.667 0 100 -13 142 -39c49.333 -30.667 74 -71 74 -121c0 -31.333 -10 -60.333 -30 -87c-24 -32 -67 -64 -129 -96zM271.002 348.001c-44 -18.667 -78.667 -41.667 -104 -69c-30.667 -32.667 -46 -70.334 -46 -113.001c0 -20 5.16699 -39.167 15.5 -57.5
s24.5 -33.833 42.5 -46.5c14.667 -10 31.834 -17.167 51.501 -21.5s40.167 -6.5 61.5 -6.5c46.667 0 88 11.333 124 34c42.667 26.667 64 62 64 106c0 44.667 -25 82.334 -75 113.001c-6.66699 4 -51.334 24.333 -134.001 61zM336.002 425.001c48 26 82.667 52.667 104 80
c17.333 22 26 45.667 26 71c0 38.667 -15 69.5 -45 92.5s-65 34.5 -105 34.5c-41.333 0 -77.333 -11.333 -108 -34c-34.667 -25.333 -52 -57.666 -52 -96.999c0 -38.667 21.333 -71.334 64 -98.001c20 -12.667 58.667 -29 116 -49z" />
    <glyph glyph-name="nine" unicode="9" 
d="M460 370c-32.667 -26.667 -64.8311 -46.833 -96.498 -60.5s-66.834 -20.5 -105.501 -20.5c-63.333 0 -113.666 19.667 -150.999 59s-56 90.333 -56 153c0 72 23.833 131.5 71.5 178.5s107.834 70.5 180.501 70.5c81.333 0 146.666 -30.667 195.999 -92
c20.667 -27.333 36 -62.333 46 -105c8 -34.667 12 -72.667 12 -114c0 -62.667 -9.83301 -121.167 -29.5 -175.5s-50.834 -103.833 -93.501 -148.5c-36.667 -38.667 -80.334 -70 -131.001 -94s-101.667 -36 -153 -36c-10 0 -18.5 1.33301 -25.5 4s-10.5 8.33398 -10.5 17.001
c0 6 2 10.167 6 12.5s9.66699 4.16602 17 5.49902c98 12 174.333 48.333 229 109c52.667 58 84 137 94 237zM461.003 427.001l0.000976562 23.001c0 27.333 -1.83301 55.5 -5.5 84.5s-9.83398 52.833 -18.501 71.5c-12.667 27.333 -31.667 50.166 -57 68.499
s-53 27.5 -83 27.5c-48 0 -87 -21.333 -117 -64c-12.667 -16.667 -21.5 -34.667 -26.5 -54s-7.5 -41.333 -7.5 -66c0 -50 11 -91.333 33 -124c26 -38.667 63 -58 111 -58c34 0 65 8 93 24s54 38.333 78 67z" />
    <glyph glyph-name="colon" unicode=":" horiz-adv-x="300" 
d="M149 -8c-15.333 0 -27.998 5.33301 -37.998 16s-15 23.667 -15 39s5.16699 27.833 15.5 37.5s22.833 14.5 37.5 14.5c15.333 0 28.166 -5.16699 38.499 -15.5s15.5 -23.5 15.5 -39.5c0 -14.667 -5.33301 -27 -16 -37s-23.334 -15 -38.001 -15zM149.002 285
c-15.333 0 -27.998 5.33301 -37.998 16s-15 23.667 -15 39s5.16699 27.833 15.5 37.5s22.833 14.5 37.5 14.5c15.333 0 28.166 -5.16699 38.499 -15.5s15.5 -23.5 15.5 -39.5c0 -14.667 -5.33301 -27 -16 -37s-23.334 -15 -38.001 -15z" />
    <glyph glyph-name="semicolon" unicode=";" horiz-adv-x="300" 
d="M147 285c-15.333 0 -28 5.33301 -38 16s-15 23.667 -15 39c0 14.667 5.33301 27 16 37s23.334 15 38.001 15c15.333 0 28 -5.33301 38 -16s15 -23.667 15 -39c0 -14.667 -5.33301 -27 -16 -37s-23.334 -15 -38.001 -15zM148 -8l-11 0.00292969
c-12.667 0 -22.667 3.33301 -30 10c-12 12 -18 26.333 -18 43c0 15.333 5.33301 27.666 16 36.999s23.667 14 39 14c22.667 0 40.334 -9.66699 53.001 -29c10.667 -16.667 16 -37.334 16 -62.001c0 -29.333 -7 -58.833 -21 -88.5s-32.333 -54.5 -55 -74.5
c-0.666992 -0.666992 -3.33398 -3 -8.00098 -7s-8 -6 -10 -6c-3.33301 0 -6.33301 1.33301 -9 4s-4 6 -4 10c17.333 19.333 32.833 39.166 46.5 59.499s20.5 39.833 20.5 58.5c0 12 -1.5 20.167 -4.5 24.5s-9.83301 6.5 -20.5 6.5z" />
    <glyph glyph-name="less" unicode="&#x3c;" horiz-adv-x="660" 
d="M610 41v-64l-554 253v58l554 255v-65l-482 -220z" />
    <glyph glyph-name="equal" unicode="=" horiz-adv-x="660" 
d="M70 368h520v-63h-520v63zM70 215h520v-63h-520v63z" />
    <glyph glyph-name="greater" unicode="&#x3e;" horiz-adv-x="660" 
d="M50 41l482 217l-482 220v65l554 -255v-58l-554 -253v64z" />
    <glyph glyph-name="question" unicode="?" horiz-adv-x="460" 
d="M188 -8c-15.333 0 -28 5.33301 -38 16s-15 23.667 -15 39c0 14.667 5.33301 27 16 37s23.334 15 38.001 15c15.333 0 28 -5.33301 38 -16s15 -23.667 15 -39c0 -14.667 -5.33301 -27 -16 -37s-23.334 -15 -38.001 -15zM158 238l0.000976562 86.999
c0 16.667 1.66699 26.834 5 30.501s14.666 9.83398 33.999 18.501c26.667 12.667 45.334 22.334 56.001 29.001c18 11.333 34.333 25.333 49 42c31.333 36.667 47 78.667 47 126c0 42.667 -11 77 -33 103c-24 28 -57 42 -99 42c-14 0 -26.667 -1.5 -38 -4.5
s-22.666 -8.16699 -33.999 -15.5c-18.667 -12.667 -28 -29.334 -28 -50.001c0.666992 -5.33301 1 -9.66602 1 -12.999c0.666992 -8.66699 1 -15 1 -19c0 -7.33301 -1.66699 -13.666 -5 -18.999c-8 -10.667 -19.667 -16 -35 -16c-27.333 0 -41 14.333 -41 43
c0 17.333 4.16699 33.666 12.5 48.999s19.833 28.666 34.5 39.999c20 15.333 42.5 26.833 67.5 34.5s51.167 11.5 78.5 11.5c58.667 0 106.167 -16.833 142.5 -50.5s54.5 -79.834 54.5 -138.501c0 -30 -5.5 -59.667 -16.5 -89s-26.167 -55 -45.5 -77
c-16.667 -18 -38.334 -34.667 -65.001 -50c-15.333 -8.66699 -40 -20.667 -74 -36c-4 -2 -7.83301 -4.16699 -11.5 -6.5s-6.33398 -5.66602 -8.00098 -9.99902s-3.16699 -15 -4.5 -32s-2 -29.833 -2 -38.5c0 -9.33301 -0.333008 -16 -1 -20c-2.66699 -16 -10 -24 -22 -24
c-6 0 -11 2.5 -15 7.5s-6 13.833 -6 26.5c0.666992 9.33301 1 15.666 1 18.999z" />
    <glyph glyph-name="at" unicode="@" horiz-adv-x="820" 
d="M630 574l-113 -304c-4 -11.333 -7.66699 -22.333 -11 -33c-5.33301 -16 -8 -27 -8 -33c0 -8.66699 3.5 -15.167 10.5 -19.5s14.833 -6.5 23.5 -6.5c25.333 0 50.666 9 75.999 27c20.667 14.667 40.334 34.167 59.001 58.5s31 49.333 37 75s9 57.167 9 94.5
c0 84.667 -32.667 152.667 -98 204c-56 44 -117.333 66 -184 66c-95.333 0 -173.833 -32.167 -235.5 -96.5s-92.5 -146.5 -92.5 -246.5c0 -94.667 30.5 -173.5 91.5 -236.5s136.5 -94.5 226.5 -94.5c63.333 0 120.5 14.667 171.5 44s90.5 72.333 118.5 129h35
c-31.333 -68.667 -75.333 -122 -132 -160s-121.334 -57 -194.001 -57c-98.667 0 -183.5 36.833 -254.5 110.5s-106.5 162.167 -106.5 265.5c0 108 36 199.333 108 274s159.667 112 263 112c87.333 0 163 -29 227 -87c66.667 -60.667 100 -136 100 -226
c0 -34 -6 -67.667 -18 -101s-29.167 -63.833 -51.5 -91.5s-48.166 -50.167 -77.499 -67.5c-34 -20 -67.333 -30 -100 -30c-42.667 0 -64 20.333 -64 61c0 6.66699 0.333008 12 1 16c-20 -21.333 -41.333 -38.5 -64 -51.5s-47 -19.5 -73 -19.5c-36 0 -64 12.333 -84 37
s-30 56 -30 94c0 73.333 22 141.333 66 204c48.667 69.333 106.667 104 174 104c23.333 0 43.5 -4.83301 60.5 -14.5s30.5 -25.167 40.5 -46.5l17 46h76zM326 184c30.667 0 57 13.001 79 39.001c11.333 13.333 27.333 40.666 48 81.999c13.333 27.333 25.333 56.333 36 87
c13.333 38.667 20 69 20 91c0 20.667 -4 37 -12 49c-10 14.667 -24.333 22 -43 22c-50 0 -95 -38 -135 -114c-34.667 -66.667 -52 -128.667 -52 -186c0 -21.333 4.83301 -38.333 14.5 -51s24.5 -19 44.5 -19z" />
    <glyph glyph-name="A" unicode="A" horiz-adv-x="720" 
d="M83 188c26.667 76.667 57.3291 155 91.9961 235c32.667 74.667 73.667 161.667 123 261c8.66699 18 16.667 32.333 24 43c10.667 16.667 19.334 25 26.001 25s14.667 -6 24 -18c7.33301 -8.66699 18 -25.334 32 -50.001c40 -68 80 -148.667 120 -242
c36.667 -85.333 68.334 -170 95.001 -254l39 -108c4 -10 8 -17 12 -21s11.667 -9 23 -15c8.66699 -4 13.667 -7.16699 15 -9.5s2 -6.5 2 -12.5c0 -10 -3.66699 -16.167 -11 -18.5s-17 -3.5 -29 -3.5h-124c-11.333 0 -20.166 1.33301 -26.499 4s-9.5 9 -9.5 19
s8.5 18.5 25.5 25.5s25.5 15.833 25.5 26.5c0 9.33301 -7.5 36 -22.5 80s-27.5 77.667 -37.5 101h-325c-0.666992 -1.33301 -9.66699 -28 -27 -80c-12.667 -37.333 -19 -63 -19 -77c0 -23.333 8.83301 -40.166 26.5 -50.499s26.5 -19.166 26.5 -26.499
c0 -9.33301 -3.16699 -15.5 -9.5 -18.5s-15.5 -4.5 -27.5 -4.5c-11.333 0.666992 -19 1 -23 1h-58c-8 -0.666992 -14.667 -1 -20 -1c-13.333 0 -24.166 1.66699 -32.499 5s-12.5 9.66602 -12.5 18.999c-0 8.66699 5.33301 16.667 16 24c14.667 9.33301 25 22 31 38z
M191.995 308l293 -0.000976562c-14.667 46 -39.334 106 -74.001 180c-30 64.667 -55 113.334 -75 146.001l-71 -148c-35.333 -76.667 -59.666 -136 -72.999 -178z" />
    <glyph glyph-name="B" unicode="B" horiz-adv-x="680" 
d="M378 0l-312.998 0.000976562c-10.667 0 -19.167 1.33301 -25.5 4s-9.5 9 -9.5 19c0 7.33301 2.16699 12.5 6.5 15.5s10.5 5.83301 18.5 8.5c18 5.33301 28.667 11.166 32 17.499s5 20.166 5 41.499v556c0 6.66699 -3.66699 11.667 -11 15c-0.666992 0.666992 -8 3 -22 7
l-16 4c-8.66699 3.33301 -13 10.333 -13 21c0 7.33301 2.66699 13 8 17s15 6 29 6h325c28 0 53.167 -1.83301 75.5 -5.5s43.666 -12 63.999 -25s37.166 -30.333 50.499 -52s20 -45.5 20 -71.5c0 -40.667 -17.667 -77.667 -53 -111c-28.667 -26.667 -65 -48.667 -109 -66
c58 -8.66699 106.667 -29.667 146 -63c45.333 -38 68 -84.667 68 -140c0 -30.667 -8 -59 -24 -85s-37.167 -47.667 -63.5 -65s-55.333 -29.666 -87 -36.999s-65.5 -11 -101.5 -11zM182.002 598.001v-219c64.667 14 107.667 24.333 129 31
c53.333 16 93.666 33.667 120.999 53c19.333 14 35.333 30.5 48 49.5s19 39.167 19 60.5c0 48 -21.667 79.667 -65 95c-24.667 8.66699 -66.667 13 -126 13h-55c-24 -1.33301 -41.667 -5.33301 -53 -12c-7.33301 -4.66699 -12.166 -11.167 -14.499 -19.5
s-3.5 -18.5 -3.5 -30.5v-21zM182.002 323.001l-0.00292969 -193.998v-19c0 -12.667 1.33301 -22.834 4 -30.501s8.33398 -13.834 17.001 -18.501s23.334 -7.66699 44.001 -9s38.334 -2 53.001 -2c34.667 0 65.5 2 92.5 6s52.667 12 77 24s44 28.333 59 49
s22.5 44.334 22.5 71.001c0 47.333 -20.333 86.333 -61 117c-33.333 25.333 -76 42.666 -128 51.999z" />
    <glyph glyph-name="C" unicode="C" horiz-adv-x="720" 
d="M685 621l0.000976562 -71.998c0 -9.33301 -1.83301 -17.333 -5.5 -24s-10.167 -10 -19.5 -10c-7.33301 0 -13.666 4.66699 -18.999 14c-5.33301 12 -9 20 -11 24c-12.667 26 -23 44.667 -31 56c-12 17.333 -27.667 33 -47 47c-37.333 26.667 -80.333 40 -129 40
c-43.333 0 -81.333 -8.5 -114 -25.5s-63.334 -43.167 -92.001 -78.5c-52.667 -64.667 -79 -139.334 -79 -224.001c0 -38 5.33301 -77.333 16 -118s26 -75.334 46 -104.001c25.333 -35.333 56.666 -61.5 93.999 -78.5s78.333 -25.5 123 -25.5c42 0 79.5 8 112.5 24
s65.833 40.333 98.5 73c5.33301 5.33301 10.666 11 15.999 17c7.33301 6.66699 14.666 10 21.999 10c14.667 0 22 -8 22 -24c0 -14.667 -13.333 -34.334 -40 -59.001c-20.667 -19.333 -40.667 -34.666 -60 -45.999c-27.333 -17.333 -56.833 -30.333 -88.5 -39
s-64.5 -13 -98.5 -13c-101.333 0 -187 33 -257 99c-72 68 -108 152.667 -108 254c0 109.333 37.833 204.833 113.5 286.5s168.167 122.5 277.5 122.5c66.667 0 130.334 -15.667 191.001 -47c14.667 -8 24.334 -13.667 29.001 -17c13.333 -8.66699 22 -15.667 26 -21
c8 -11.333 12 -25 12 -41z" />
    <glyph glyph-name="D" unicode="D" horiz-adv-x="740" 
d="M65 732h205.999c85.333 0 148 -6 188 -18s76.667 -30.333 110 -55c47.333 -35.333 82.333 -78 105 -128s34 -105.667 34 -167c0 -50 -8.83301 -97.667 -26.5 -143s-44.5 -86 -80.5 -122s-78 -62 -126 -78c-42.667 -14 -93 -21 -151 -21h-259
c-11.333 -0 -20.166 1.33301 -26.499 4s-9.5 9 -9.5 19c0 7.33301 2.16699 12.5 6.5 15.5s10.5 5.83301 18.5 8.5c18 6 28.333 11.667 31 17s4 19.333 4 42v556c0 6 -3.66699 11 -11 15c-2 0.666992 -8.5 3 -19.5 7s-17.833 6.66699 -20.5 8c-5.33301 4 -8 9.66699 -8 17
c0 9.33301 3.16699 15.5 9.5 18.5s14.833 4.5 25.5 4.5zM178.999 578l-0.00292969 -402c0 -56 4 -89.667 12 -101c11.333 -16 44 -24 98 -24c98 0 175.333 27.333 232 82s85 131.334 85 230.001c0 47.333 -6.66699 90.666 -20 129.999
c-15.333 44 -37.666 80.5 -66.999 109.5s-65.166 49.333 -107.499 61s-87.166 17.5 -134.499 17.5c-44 0 -71.333 -6.33301 -82 -19s-16 -40.667 -16 -84z" />
    <glyph glyph-name="E" unicode="E" 
d="M178 368l0.00195312 -196.004c0 -45.333 4.66699 -75.666 14 -90.999c12 -19.333 36.667 -29 74 -29h150c24 0 45.5 4.66699 64.5 14s37.833 23 56.5 41c10.667 9.33301 16.334 14.333 17.001 15c8.66699 6.66699 15.334 10 20.001 10c10.667 0 16 -5.66699 16 -17
c0 -6.66699 -1.66699 -18.667 -5 -36s-5 -27 -5 -29c-4.66699 -26.667 -8.66699 -41.667 -12 -45s-16 -5 -38 -5h-466c-10.667 0 -19.167 1.33301 -25.5 4s-9.5 9 -9.5 19c0 6.66699 2.16699 11.667 6.5 15s10.166 6.33301 17.499 9c18 6 28.333 11.667 31 17s4 19.333 4 42
v528c0 14.667 -2 26.334 -6 35.001s-12.667 14 -26 16c-10 2.66699 -16.333 5 -19 7c-5.33301 4 -8 10 -8 18c0 7.33301 2.33301 12.833 7 16.5s14.334 5.5 29.001 5.5h443c11.333 -2.66699 19.666 -8.16699 24.999 -16.5s9 -18.833 11 -31.5l8 -61
c-1.33301 -10.667 -7 -16 -17 -16c-7.33301 0 -13 2.66699 -17 8c-14.667 18.667 -31.334 33.667 -50.001 45c-22 13.333 -43.333 20 -64 20h-161c-24.667 0 -41.667 -5.66699 -51 -17s-14 -31.666 -14 -60.999v-182h192c19.333 0 33.333 1.66699 42 5s17 8.33301 25 15
c2.66699 2.66699 5.66699 5.5 9 8.5s7.66602 4.5 12.999 4.5c8 0 13.5 -4.5 16.5 -13.5s4.5 -19.833 4.5 -32.5c-0.666992 -14 -1 -22.667 -1 -26c0 -17.333 -0.333008 -27 -1 -29c-2.66699 -10 -10.334 -15 -23.001 -15c-6 0 -13.5 4.33301 -22.5 13s-17 13.834 -24 15.501
s-18.167 2.5 -33.5 2.5h-197z" />
    <glyph glyph-name="F" unicode="F" horiz-adv-x="560" 
d="M179 653l0.00292969 -252h207c17.333 0 29 0.833008 35 2.5s14.667 7.16699 26 16.5c3.33301 2.66699 6.66602 5.66699 9.99902 9c3.33301 2 7.66602 3 12.999 3c8.66699 0 14.667 -4.16699 18 -12.5s5 -18.166 5 -29.499c0 -5.33301 -0.333008 -11.833 -1 -19.5
s-1 -11.834 -1 -12.501c0 -11.333 -1 -21 -3 -29s-7.33301 -12 -16 -12c-8 0 -16.5 4.16699 -25.5 12.5s-17.5 13.666 -25.5 15.999s-19.667 3.5 -35 3.5h-208l1 -278c0 -5.33301 1.83301 -9.5 5.5 -12.5s12.167 -6.5 25.5 -10.5
c5.33301 -1.33301 11.5 -3.16602 18.5 -5.49902s10.5 -8.83301 10.5 -19.5c0 -7.33301 -2.66699 -13 -8 -17s-15 -6 -29 -6h-136c-11.333 -0 -20.166 1.33301 -26.499 4s-9.5 9 -9.5 19c0 6.66699 2.16699 11.667 6.5 15s10.166 6.33301 17.499 9c18 6 28.333 11.667 31 17
s4 19.333 4 42v556c0 6 -3.66699 11 -11 15l-19.5 6.5c-11 3.66699 -17.833 6.5 -20.5 8.5c-6 4 -9 10 -9 18c0 7.33301 2.33301 12.833 7 16.5s14.334 5.5 29.001 5.5h443c11.333 -2 20.666 -6.33301 27.999 -13s12.666 -17.667 15.999 -33l12 -62
c-2.66699 -10.667 -7.66699 -16 -15 -16c-4.66699 0 -10.167 3 -16.5 9l-12.5 12c-14 14.667 -30 26.334 -48 35.001c-22 10.667 -45.667 16 -71 16h-164c-20.667 0 -35.5 -2.33301 -44.5 -7s-13.5 -11.334 -13.5 -20.001z" />
    <glyph glyph-name="G" unicode="G" horiz-adv-x="760" 
d="M555 367l68 -0.00390625c18.667 0 35.167 -0.5 49.5 -1.5s25.833 -2.5 34.5 -4.5s14.167 -4.5 16.5 -7.5s3.5 -7.83301 3.5 -14.5l-2 -22l-9 -113c0 -20 0.333008 -35 1 -45s3 -23.667 7 -41l2 -17c0 -11.333 -7.83301 -23.333 -23.5 -36s-40.834 -26 -75.501 -40
s-66.667 -24.167 -96 -30.5s-62 -9.5 -98 -9.5c-53.333 0 -103.5 7.33301 -150.5 22s-89.5 38.5 -127.5 71.5s-67.167 73.833 -87.5 122.5s-30.5 99.667 -30.5 153c0 110.667 38.167 203.834 114.5 279.501s170.166 113.5 281.499 113.5c35.333 0 72.333 -4.16699 111 -12.5
s72.334 -20.5 101.001 -36.5c20.667 -12 33.667 -23.667 39 -35s8 -29 8 -53v-24c0.666992 -8 1 -14.333 1 -19c0 -10 -1.16699 -17.833 -3.5 -23.5s-7.5 -8.5 -15.5 -8.5c-5.33301 0 -9.5 1.83301 -12.5 5.5s-6.5 9.16699 -10.5 16.5c-13.333 30.667 -26 53.334 -38 68.001
c-8 10 -20 20.333 -36 31c-20 12.667 -43 22.5 -69 29.5s-51.667 10.5 -77 10.5c-88.667 0 -160.667 -36.333 -216 -109c-50.667 -66.667 -76 -145.667 -76 -237c0 -42.667 6.16699 -82 18.5 -118s32 -69.167 59 -99.5s59.833 -54 98.5 -71s79 -25.5 121 -25.5
c27.333 0 54.833 3.33301 82.5 10s50.834 17.334 69.501 32.001s31.334 36.667 38.001 66c4.66699 20.667 7 47.667 7 81c0 40.667 -5.33301 66.334 -16 77.001s-36 16 -76 16c-12 0 -22 0.333008 -30 1s-16.333 2.5 -25 5.5s-13 10.167 -13 21.5
c0 8.66699 4.33301 14.667 13 18c3.33301 0.666992 10.666 1.16699 21.999 1.5s22.333 0.833008 33 1.5h14z" />
    <glyph glyph-name="H" unicode="H" horiz-adv-x="800" 
d="M180 372l-0.000976562 -301.004c0 -6 3.66699 -11 11 -15c10 -4 17 -6.66699 21 -8c10 -4 16.333 -6.66699 19 -8c5.33301 -4 8 -9.66699 8 -17s-2.5 -13 -7.5 -17s-14.5 -6 -28.5 -6h-138c-11.333 0 -20.166 1.33301 -26.499 4s-9.5 9 -9.5 19c0 8 3 13.667 9 17
s11.667 5.66602 17 6.99902c18 5.33301 28.333 10.833 31 16.5s4 19.834 4 42.501v555c0 5.33301 -1.66699 9.33301 -5 12s-12.333 6.33398 -27 11.001c-5.33301 1.33301 -10.333 3 -15 5c-9.33301 4 -14 11 -14 21c0 7.33301 2.5 12.833 7.5 16.5s14.833 5.5 29.5 5.5h138
c10.667 0 19.167 -1.33301 25.5 -4s9.5 -8.66699 9.5 -18c0 -7.33301 -2.33301 -13 -7 -17c-2 -2 -9.16699 -5.16699 -21.5 -9.5s-20.5 -9.16602 -24.5 -14.499s-6 -15 -6 -29v-14v-202h433v238c0 6 -3.16699 10.667 -9.5 14s-14.166 6 -23.499 8
c-10 3.33301 -16.333 6 -19 8c-6 4 -9 10 -9 18c0 7.33301 2.33301 12.833 7 16.5s14 5.5 28 5.5h142c10.667 0 19.167 -1.33301 25.5 -4s9.5 -8.66699 9.5 -18c0 -7.33301 -2 -12.666 -6 -15.999s-12.333 -6.83301 -25 -10.5s-20.834 -8.16699 -24.501 -13.5
s-5.5 -15.666 -5.5 -30.999v-13v-546c0 -12.667 6.33301 -21.667 19 -27l11 -5l9 -5c6 -3.33301 12 -6.33301 18 -9c2.66699 -2.66699 4 -6.33398 4 -11.001c0 -7.33301 -2.5 -13 -7.5 -17s-14.167 -6 -27.5 -6h-141c-11.333 0 -20.166 1.33301 -26.499 4s-9.5 9 -9.5 19
c0 7.33301 2.16699 12.5 6.5 15.5s10.5 5.83301 18.5 8.5c17.333 4.66699 27.666 10.334 30.999 17.001s5 20.667 5 42v266h-433z" />
    <glyph glyph-name="I" unicode="I" horiz-adv-x="260" 
d="M86 106v556c0 6 -3.66699 11 -11 15l-19.5 6.5c-11 3.66699 -17.833 6.5 -20.5 8.5c-6 4 -9 10 -9 18c0 7.33301 2.5 12.833 7.5 16.5s14.5 5.5 28.5 5.5h138c10.667 0 19.167 -1.33301 25.5 -4s9.5 -8.66699 9.5 -18c0 -7.33301 -2.33301 -13 -7 -17
c-2 -2 -9.33301 -5.16699 -22 -9.5s-20.834 -9 -24.501 -14s-5.5 -14.833 -5.5 -29.5v-14v-555c0 -6 3.66699 -11 11 -15c10 -4 17 -6.66699 21 -8c10 -4 16.333 -6.66699 19 -8c5.33301 -4 8 -9.66699 8 -17s-2.5 -13 -7.5 -17s-14.5 -6 -28.5 -6h-138
c-11.333 -0 -20.166 1.33301 -26.499 4s-9.5 9 -9.5 19c0 8 3 13.667 9 17s11.667 5.66602 17 6.99902c18 5.33301 28.333 10.833 31 16.5s4 19.834 4 42.501z" />
    <glyph glyph-name="J" unicode="J" horiz-adv-x="480" 
d="M306 208l-0.000976562 453.998c0 6 -3 10.667 -9 14s-14.333 6 -25 8c-10.667 3.33301 -17.334 5.66602 -20.001 6.99902c-6 4 -9 10.333 -9 19c0 7.33301 2.33301 12.833 7 16.5s14.334 5.5 29.001 5.5h140c11.333 0 20.166 -1.33301 26.499 -4s9.5 -8.66699 9.5 -18
c0 -7.33301 -2 -12.666 -6 -15.999s-12 -6.83301 -24 -10.5s-19.833 -8 -23.5 -13s-5.5 -14.5 -5.5 -28.5v-16v-396c0 -36 -2 -65.333 -6 -88c-6 -33.333 -16.667 -60.666 -32 -81.999c-18 -24.667 -42.167 -43.334 -72.5 -56.001s-62.166 -19 -95.499 -19
c-51.333 0 -94.666 13 -129.999 39c-39.333 28.667 -59 67.667 -59 117c0 32 9.66699 60.5 29 85.5s44.666 37.5 75.999 37.5c11.333 0 21.5 -3.5 30.5 -10.5s13.5 -16.5 13.5 -28.5c0 -10.667 -3.5 -18.5 -10.5 -23.5s-15.333 -8.83301 -25 -11.5s-17.667 -5 -24 -7
s-12.166 -6 -17.499 -12c-10 -11.333 -15 -24.666 -15 -39.999c0 -28.667 13 -52 39 -70c23.333 -16 50.333 -24 81 -24c20.667 0 39.667 3.83301 57 11.5s31.833 19.167 43.5 34.5s19.167 33.333 22.5 54s5 44.334 5 71.001z" />
    <glyph glyph-name="K" unicode="K" horiz-adv-x="700" 
d="M181 259l0.00195312 -187.997c0 -6 3.66699 -11 11 -15c10 -4 17 -6.66699 21 -8c10 -4 16 -6.66699 18 -8c5.33301 -4 8 -9.66699 8 -17c0 -6.66699 -2.66699 -12.167 -8 -16.5s-14.666 -6.5 -27.999 -6.5h-138c-11.333 0 -20.166 1.33301 -26.499 4s-9.5 9 -9.5 19
c0 8 3 13.667 9 17s11.667 5.66602 17 6.99902c17.333 4.66699 27.666 10.334 30.999 17.001s5 20.667 5 42v556c0 6 -3 10.667 -9 14s-12.667 5.83301 -20 7.5s-13.666 3.5 -18.999 5.5c-8.66699 4 -13 11 -13 21c0 7.33301 2.33301 12.833 7 16.5s14 5.5 28 5.5h137
c11.333 0 20.166 -1.33301 26.499 -4s9.5 -8.66699 9.5 -18c0 -5.33301 -1.33301 -9.5 -4 -12.5s-9.33398 -7.16699 -20.001 -12.5c-16 -6.66699 -25.5 -12.167 -28.5 -16.5s-4.5 -13.833 -4.5 -28.5v-14v-291l170 161l91 94c17.333 20 26.333 30.333 27 31
c12 15.333 18 27.666 18 36.999c0 12.667 -8.83301 22.167 -26.5 28.5s-26.5 15.166 -26.5 26.499c0 8 3 13.167 9 15.5s13.667 3.5 23 3.5h147c13.333 0 23 -0.833008 29 -2.5s9 -7.16699 9 -16.5c0 -6.66699 -1.83301 -11.834 -5.5 -15.501s-9.5 -7.16699 -17.5 -10.5
c-19.333 -9.33301 -35 -19.333 -47 -30c-8 -7.33301 -21 -21.666 -39 -42.999l-165 -176l25 -26c45.333 -49.333 85 -96.333 119 -141c42 -56 74.667 -108.667 98 -158l15 -30c9.33301 -15.333 22.666 -26.333 39.999 -33c11.333 -4.66699 18 -7.66699 20 -9
c6 -4.66699 9 -11.334 9 -20.001c0 -8 -3.66699 -13.5 -11 -16.5s-15.333 -4.5 -24 -4.5h-130c-14.667 0 -24.334 0.666992 -29.001 2c-12 3.33301 -18 10.333 -18 21c0 7.33301 4 13.333 12 18c18.667 10.667 28 20.667 28 30c0 26 -29.667 78.667 -89 158
c-51.333 68.667 -94 119 -128 151z" />
    <glyph glyph-name="L" unicode="L" 
d="M182 627l0.00195312 -510.999c-0.666992 -8.66699 -1 -15.334 -1 -20.001c0 -6.66699 0.666992 -12.667 2 -18s4.33301 -9.66602 9 -12.999c8 -6 20.167 -9.83301 36.5 -11.5s33.5 -2.5 51.5 -2.5h54l110 6c25.333 4 43.833 8.16699 55.5 12.5s27.167 13.833 46.5 28.5
c6.66699 5.33301 13.5 10.333 20.5 15s12.5 7 16.5 7c11.333 0 17 -6.66699 17 -20c0 -4 -2.33301 -17.333 -7 -40s-8 -36 -10 -40c-4 -9.33301 -9.83301 -15 -17.5 -17s-18.834 -3 -33.501 -3h-462c-10.667 0 -19.167 1.33301 -25.5 4s-9.5 9 -9.5 19
c0 7.33301 1.66699 12.333 5 15s9.33301 5.66699 18 9c14.667 6 24 11.5 28 16.5s6 13.833 6 26.5v16v556c0 6 -3 10.667 -9 14s-12.833 5.83301 -20.5 7.5s-14.167 3.16699 -19.5 4.5c-8.66699 3.33301 -13 10.666 -13 21.999c0 7.33301 2.33301 12.833 7 16.5
s14.334 5.5 29.001 5.5h136c11.333 0 20.166 -1.33301 26.499 -4s9.5 -8.66699 9.5 -18c0 -5.33301 -1.33301 -9.66602 -4 -12.999s-10.334 -7.33301 -23.001 -12s-20.667 -9.33398 -24 -14.001s-5 -13 -5 -25v-19z" />
    <glyph glyph-name="M" unicode="M" horiz-adv-x="860" 
d="M422 230l110.996 230.002l97 230c5.33301 14.667 9.33301 24 12 28c6 9.33301 14.333 14 25 14h129c10 0 17.167 -1.33301 21.5 -4s6.5 -9.66699 6.5 -21c0 -6 -2.5 -10.667 -7.5 -14s-13.167 -6.5 -24.5 -9.5s-19 -5.83301 -23 -8.5c-8.66699 -6 -13 -20 -13 -42v-562
c0 -5.33301 1.83301 -9.33301 5.5 -12s13.167 -6 28.5 -10s23.333 -6.33301 24 -7c6 -3.33301 9 -9.66602 9 -18.999c0 -7.33301 -2.5 -13 -7.5 -17s-14.5 -6 -28.5 -6h-135c-10.667 0 -19.167 1.33301 -25.5 4s-9.5 9 -9.5 19c0 7.33301 1.66699 12.333 5 15
s9.33301 5.66699 18 9c12.667 5.33301 20.667 9.66602 24 12.999s5 9.33301 5 18c-0.666992 10.667 -1 20 -1 28v524l-144 -336l-75 -155c-6.66699 -13.333 -11.334 -22 -14.001 -26c-8 -12 -15.667 -18 -23 -18s-13.666 3.33301 -18.999 10c-2 2 -5.66699 8.66699 -11 20
l-107 229l-98 242l-20 50v-571c1.33301 -8 5.83301 -13.833 13.5 -17.5s16.834 -7.33398 27.501 -11.001s16.667 -5.83398 18 -6.50098c6.66699 -4 10 -10.667 10 -20c0 -6.66699 -2.66699 -11.667 -8 -15s-11.666 -5 -18.999 -5h-120c-13.333 0 -22.666 1 -27.999 3
s-8 8.33301 -8 19c0 8.66699 3.33301 15 10 19c2 1.33301 6.66699 3.33301 14 6c14.667 6 23.5 11.5 26.5 16.5s4.5 16.167 4.5 33.5v552c0 21.333 -10.833 34.333 -32.5 39s-32.5 12 -32.5 22c0 7.33301 2.5 12.833 7.5 16.5s11.5 5.5 19.5 5.5h133
c10.667 0 19.667 -6.33301 27 -19c6.66699 -16.667 11.334 -28 14.001 -34z" />
    <glyph glyph-name="N" unicode="N" horiz-adv-x="740" 
d="M592 188l-0.00195312 420.996v26c0 12.667 -0.666992 21.834 -2 27.501s-3.83301 9.83398 -7.5 12.501s-9.66699 5.16699 -18 7.5s-16.166 4.83301 -23.499 7.5c-6.66699 4 -10 10.667 -10 20c0 8 2.66699 13.667 8 17s11.666 5 18.999 5h123
c7.33301 0 14 -1.16699 20 -3.5s9 -8.83301 9 -19.5c0 -6 -2.33301 -10.667 -7 -14s-10.667 -6.33301 -18 -9c-12 -5.33301 -18.333 -8 -19 -8c-6.66699 -3.33301 -10.667 -7.16602 -12 -11.499s-2.16602 -10.166 -2.49902 -17.499s-0.5 -13 -0.5 -17v-17v-577v-16
c0 -14.667 -1.83301 -24.5 -5.5 -29.5s-9.5 -7.5 -17.5 -7.5c-4.66699 0 -9.16699 2.16699 -13.5 6.5s-9.16602 11.833 -14.499 22.5c-14.667 28.667 -36 64 -64 106l-70 103l-93 143c-38 57.333 -70.667 104 -98 140c-34 44.667 -71 88.334 -111 131.001v-539
c0 -15.333 1.66699 -26.166 5 -32.499s11.666 -11.5 24.999 -15.5c12 -2.66699 20.333 -5.33398 25 -8.00098s7 -9 7 -19c0 -15.333 -8.66699 -23 -26 -23h-136c-17.333 0 -26 7.66699 -26 23c0 7.33301 2 12.666 6 15.999s12.667 6.33301 26 9s22.5 6.83398 27.5 12.501
s7.5 15.167 7.5 28.5v30v491c0 25.333 -1.66699 42.333 -5 51c-6 15.333 -17 24.666 -33 27.999s-24.667 5.33301 -26 6c-7.33301 3.33301 -11 9.33301 -11 18c0 6 2 10.667 6 14s11.667 5 23 5h115c14.667 0 57.334 -44 128.001 -132l77 -98l51 -68c24 -32 51 -71 81 -117z
" />
    <glyph glyph-name="O" unicode="O" horiz-adv-x="800" 
d="M388 -15c-49.333 0 -95.332 8.83496 -137.999 26.502s-80.834 44.167 -114.501 79.5s-58.5 76.166 -74.5 122.499s-24 95.833 -24 148.5c0 108.667 32.833 200 98.5 274s152.167 111 259.5 111c50 0 97.667 -9.5 143 -28.5s85 -46.167 119 -81.5s59.333 -76.5 76 -123.5
s25 -97.167 25 -150.5c0 -108.667 -34.5 -198.834 -103.5 -270.501s-157.833 -107.5 -266.5 -107.5zM393.001 37.002c40.667 0 78.0029 9.16699 112.003 27.5s63.667 44.5 89 78.5c20.667 28.667 36.167 62 46.5 100s15.5 76.333 15.5 115c0 42.667 -5 84.334 -15 125.001
s-26.333 76.5 -49 107.5s-51.5 56 -86.5 75s-71.833 28.5 -110.5 28.5c-40.667 0 -78.334 -10.5 -113.001 -31.5s-63.334 -49.5 -86.001 -85.5c-20 -30.667 -34.5 -63.834 -43.5 -99.501s-13.5 -73.834 -13.5 -114.501c0 -41.333 4.83301 -80.666 14.5 -117.999
s25.5 -72 47.5 -104s49.667 -57.333 83 -76s69.666 -28 108.999 -28z" />
    <glyph glyph-name="P" unicode="P" horiz-adv-x="620" 
d="M179 280l-0.00292969 -210.001c0 -6 3.33301 -10.667 10 -14s15 -6 25 -8c11.333 -3.33301 18.333 -5.66602 21 -6.99902c6 -4 9 -10 9 -18c0 -6.66699 -2.66699 -12.167 -8 -16.5s-14.666 -6.5 -27.999 -6.5h-140c-11.333 -0 -20.166 1.33301 -26.499 4s-9.5 9 -9.5 19
c0 7.33301 1.83301 12.333 5.5 15s9.83398 5.66699 18.501 9c14.667 5.33301 23.834 10.5 27.501 15.5s5.5 14.167 5.5 27.5v16v556c0 6 -3.66699 11 -11 15c-2 0.666992 -8.5 2.66699 -19.5 6s-17.833 6 -20.5 8c-6 4 -9 10 -9 18c0 7.33301 2.5 13 7.5 17s14.167 6 27.5 6
h260c49.333 0 86.166 -2.66699 110.499 -8s47.833 -14 70.5 -26c66 -33.333 99 -86 99 -158c0 -45.333 -15.333 -87.333 -46 -126c-26.667 -34 -62.667 -62 -108 -84c-38 -18.667 -80 -31.667 -126 -39s-94.333 -11 -145 -11zM178.997 602.999l0.000976562 -270.998
c80.667 0 150 13.333 208 40c76.667 35.333 115 88 115 158c0 24 -5.83301 46.5 -17.5 67.5s-27.334 37.833 -47.001 50.5s-41.667 21.167 -66 25.5s-49.833 6.5 -76.5 6.5c-17.333 0 -34 -0.833008 -50 -2.5s-29.667 -5.33398 -41 -11.001s-18.333 -13.334 -21 -23.001
s-4 -23.167 -4 -40.5z" />
    <glyph glyph-name="Q" unicode="Q" horiz-adv-x="800" 
d="M439 -12l-51.9951 -3.00098c-47.333 0 -92.833 9.66699 -136.5 29s-81.834 46.833 -114.501 82.5s-57.5 76.667 -74.5 123s-25.5 94.5 -25.5 144.5c0 104.667 34.167 194.667 102.5 270s154.166 113 257.499 113c105.333 0 192 -35.667 260 -107s102 -160 102 -266
c0 -85.333 -23.5 -162.5 -70.5 -231.5s-110.833 -116.167 -191.5 -141.5c23.333 -21.333 48.166 -38.166 74.499 -50.499s54.166 -18.5 83.499 -18.5c7.33301 0 18.666 1 33.999 3s26.666 3 33.999 3c9.33301 0 16.666 -3.33301 21.999 -10s8 -14.667 8 -24
c0 -12 -5.33301 -21.667 -16 -29c-14 -10 -33.333 -15 -58 -15c-45.333 0 -89.666 12.333 -132.999 37c-39.333 22 -74.666 52.333 -105.999 91zM411.005 31.999c-7.33301 18.667 -13.5 37.501 -18.5 56.501s-7.5 37.167 -7.5 54.5c0 11.333 1.33301 20.666 4 27.999
s9 11 19 11c8.66699 0 14.667 -4.66699 18 -14c1.33301 -4 3.33301 -15 6 -33s6 -34 10 -48s11 -29.333 21 -46c63.333 20.667 112.333 63.667 147 129c30.667 57.333 46 122.333 46 195c0 84.667 -20.667 158.667 -62 222c-47.333 72.667 -111.333 109 -192 109
c-84 0 -150.333 -36.333 -199 -109c-43.333 -64.667 -65 -140.667 -65 -228c0 -86.667 23 -161 69 -223c51.333 -69.333 119.333 -104 204 -104z" />
    <glyph glyph-name="R" unicode="R" horiz-adv-x="680" 
d="M181 314l0.000976562 -244.002c0 -6.66699 3.33301 -11.667 10 -15c10 -3.33301 17.5 -6 22.5 -8s10.5 -4.33301 16.5 -7c5.33301 -4 8 -10 8 -18c0 -7.33301 -2.5 -12.833 -7.5 -16.5s-14.833 -5.5 -29.5 -5.5h-134c-11.333 0 -20.166 1.33301 -26.499 4
s-9.5 8.66699 -9.5 18c0 8 1.66699 13.167 5 15.5s10 5.5 20 9.5c18 5.33301 28.333 10.833 31 16.5s4 19.834 4 42.501v555c0 6.66699 -3.66699 12 -11 16c-0.666992 0.666992 -8 3 -22 7l-16 4c-8.66699 3.33301 -13 10.333 -13 21c0 7.33301 2.5 13 7.5 17s14.5 6 28.5 6
h311c31.333 0 58.833 -2.33301 82.5 -7s46.5 -14.167 68.5 -28.5s39.667 -33.166 53 -56.499s20 -48.666 20 -75.999c0 -46 -17 -86.667 -51 -122c-26.667 -28 -64.334 -53 -113.001 -75c31.333 -36 60.666 -78 87.999 -126c20 -35.333 43 -81.333 69 -138
c8.66699 -18.667 15 -30.667 19 -36c6.66699 -8.66699 17 -16 31 -22s22.167 -10.167 24.5 -12.5s3.5 -6.5 3.5 -12.5c0 -8.66699 -3.16699 -14.167 -9.5 -16.5s-14.5 -3.5 -24.5 -3.5h-148c-12 0 -20.333 0.666992 -25 2c-10 3.33301 -15 9.66602 -15 18.999
s8.5 18 25.5 26s25.5 18.333 25.5 31c0 26 -20.333 71.333 -61 136c-36 57.333 -68 100.333 -96 129zM181.001 604.998v-239c96.667 15.333 162.667 30 198 44c79.333 31.333 119 78.666 119 141.999c0 50 -24 85.333 -72 106c-34 14.667 -79.667 22 -137 22
c-23.333 0 -42 -0.666992 -56 -2s-25.5 -5.16602 -34.5 -11.499s-14.167 -15.5 -15.5 -27.5s-2 -23.333 -2 -34z" />
    <glyph glyph-name="S" unicode="S" 
d="M269 444l91.001 -20.998c31.333 -7.33301 56.333 -14.333 75 -21c27.333 -10 50.333 -22 69 -36c47.333 -38 71 -88 71 -150c0 -33.333 -7.16699 -64.333 -21.5 -93s-34.833 -53.834 -61.5 -75.501s-57 -37.5 -91 -47.5s-70 -15 -108 -15c-36 0 -69.5 4 -100.5 12
s-58.333 20.5 -82 37.5s-43.167 35.833 -58.5 56.5c-20 26.667 -30 50.667 -30 72c0 9.33301 2.33301 17 7 23s11.334 9 20.001 9c7.33301 0 13.666 -2.33301 18.999 -7s10.333 -11.334 15 -20.001c16 -28 29.333 -47.833 40 -59.5s23 -22.167 37 -31.5
c20 -13.333 42.833 -23.333 68.5 -30s51.167 -10 76.5 -10c51.333 0 95 12.667 131 38c41.333 29.333 62 68.666 62 117.999c0 57.333 -38.667 98.333 -116 123l-216 59c-77.333 32 -116 85.667 -116 161c0 30 6.5 58 19.5 84s31.5 49.167 55.5 69.5s51 35 81 44
s62.667 13.5 98 13.5c31.333 0 63.5 -4.16699 96.5 -12.5s62.167 -20.5 87.5 -36.5c11.333 -7.33301 18.666 -15.666 21.999 -24.999c0.666992 -3.33301 1.16699 -11.333 1.5 -24s0.833008 -24 1.5 -34c0 -11.333 -0.666992 -20 -2 -26s-6 -9 -14 -9
c-26 30 -55.667 56 -89 78c-38 25.333 -81 38 -129 38c-37.333 0 -70.5 -11.333 -99.5 -34s-43.5 -52.334 -43.5 -89.001c0 -37.333 13.333 -66.666 40 -87.999c21.333 -17.333 52.333 -31 93 -41z" />
    <glyph glyph-name="T" unicode="T" horiz-adv-x="640" 
d="M364 613l0.000976562 -541.999c0 -6 3 -10.667 9 -14s14 -6.5 24 -9.5s17 -5.83301 21 -8.5s6 -8 6 -16c0 -7.33301 -2.5 -13 -7.5 -17s-14.5 -6 -28.5 -6h-139c-11.333 0 -20.166 1.33301 -26.499 4s-9.5 9 -9.5 19c0 8 3 13.667 9 17s11.667 5.66602 17 6.99902
c18 5.33301 28.333 10.833 31 16.5s4 19.834 4 42.501v513v17c0 16.667 -2 27.667 -6 33c-6 8 -18.667 12 -38 12c-12 0 -25 -0.833008 -39 -2.5s-29.833 -4.33398 -47.5 -8.00098s-32.834 -9.5 -45.501 -17.5c-6.66699 -4 -20.334 -14.667 -41.001 -32
c-4.66699 -4.66699 -9.83398 -9.33398 -15.501 -14.001s-11.167 -7 -16.5 -7c-13.333 0 -20 7.66699 -20 23l3 23l6 48c5.33301 25.333 13 38 23 38h555c10 -1.33301 16.333 -3.33301 19 -6s5.83398 -11.167 9.50098 -25.5s6.83398 -31.166 9.50098 -50.499l4 -26
c0 -14 -6 -21 -18 -21c-6.66699 0 -13.334 2.83301 -20.001 8.5s-11 9.5 -13 11.5c-17.333 14 -29.333 23 -36 27c-12 8 -25.333 14.167 -40 18.5s-29.5 7.5 -44.5 9.5s-29.833 3 -44.5 3c-26 0 -41.5 -4.33301 -46.5 -13s-7.5 -27 -7.5 -55z" />
    <glyph glyph-name="U" unicode="U" horiz-adv-x="760" 
d="M173 627l0.00195312 -304.002c0 -46 1.66699 -80.667 5 -104c6 -39.333 18 -72.166 36 -98.499s44 -47.166 78 -62.499c30 -13.333 60.333 -20 91 -20c39.333 0 75 7 107 21c36.667 16 64.334 38.833 83.001 68.5s30.667 65.834 36 108.501
c3.33301 25.333 5 63.666 5 114.999v278c0 13.333 -4.16699 24.833 -12.5 34.5s-18.333 16.667 -30 21s-18.167 7.16602 -19.5 8.49902c-6.66699 4.66699 -10 10.667 -10 18c0 8 2.66699 13.5 8 16.5s12.333 4.5 21 4.5h133c17.333 0 26 -7.66699 26 -23
c0 -6.66699 -2.66699 -12 -8 -16c-0.666992 -0.666992 -7.16699 -3.5 -19.5 -8.5s-20.5 -10.667 -24.5 -17s-6 -17.833 -6 -34.5v-291c0 -57.333 -3 -101.666 -9 -132.999c-8.66699 -47.333 -26.667 -87.833 -54 -121.5s-63.5 -59.167 -108.5 -76.5s-91.5 -26 -139.5 -26
c-37.333 0 -74.333 7 -111 21c-42.667 16 -76.834 39.167 -102.501 69.5s-43.5 68.5 -53.5 114.5c-7.33301 34.667 -11 77.667 -11 129v332c0 10.667 -2.33301 18.334 -7 23.001c-2 2 -8.33301 5.16699 -19 9.5s-17.334 7.5 -20.001 9.5c-5.33301 4 -8 9.66699 -8 17
s2.33301 12.833 7 16.5s14.334 5.5 29.001 5.5h131c11.333 0 20.166 -1.33301 26.499 -4s9.5 -8.66699 9.5 -18c0 -8 -1.83301 -13.333 -5.5 -16s-11.834 -5.83398 -24.501 -9.50098s-20.667 -8.66699 -24 -15s-5 -20.5 -5 -42.5z" />
    <glyph glyph-name="V" unicode="V" horiz-adv-x="700" 
d="M536 732h135.002c16 0 24 -6.66699 24 -20c0 -6 -2 -11.333 -6 -16c-0.666992 -1.33301 -4.66699 -5 -12 -11c-10.667 -8.66699 -18.334 -19.667 -23.001 -33l-32 -112c-23.333 -81.333 -54.666 -169.333 -93.999 -264c-47.333 -114 -92 -200.333 -134 -259
c-9.33301 -13.333 -16 -22 -20 -26c-10.667 -11.333 -20.334 -17 -29.001 -17c-8 0 -14.833 2.5 -20.5 7.5s-11.5 11.833 -17.5 20.5c-28.667 41.333 -57 90.333 -85 147c-24.667 49.333 -47.334 101 -68.001 155c-41.333 108 -75 218.333 -101 331
c-5.33301 24 -18.333 42.667 -39 56c-8.66699 5.33301 -13 12.333 -13 21c0 5.33301 2.5 10 7.5 14s13.167 6 24.5 6h143c8.66699 0 14 -0.333008 16 -1c10 -3.33301 15 -10.333 15 -21c0 -4 -1.66699 -8 -5 -12s-8.66602 -7.66699 -15.999 -11
c-14.667 -7.33301 -22.667 -11.666 -24 -12.999c-9.33301 -7.33301 -14 -19.666 -14 -36.999c0 -29.333 10.667 -78.333 32 -147c16.667 -52.667 34.167 -102.334 52.5 -149.001s37.666 -90.834 57.999 -132.501s43.5 -84.5 69.5 -128.5c24 37.333 46.667 79.333 68 126
c16.667 36.667 35.167 82.167 55.5 136.5s37.833 103.833 52.5 148.5c24 74.667 36 125 36 151c0 18 -10.833 32 -32.5 42s-32.5 19.333 -32.5 28c0 8 2.5 13.333 7.5 16s12.167 4 21.5 4z" />
    <glyph glyph-name="W" unicode="W" horiz-adv-x="940" 
d="M781 732l117.001 -0.00390625c9.33301 0 17.166 -1.16699 23.499 -3.5s9.5 -7.16602 9.5 -14.499c0 -5.33301 -1.5 -9.66602 -4.5 -12.999s-7.83301 -7.66602 -14.5 -12.999c-10.667 -8 -17.667 -16.333 -21 -25s-6.33301 -21.667 -9 -39l-42 -204
c-19.333 -88.667 -36 -156.667 -50 -204c-20.667 -68.667 -46 -135 -76 -199c-7.33301 -16 -12 -25.333 -14 -28c-6.66699 -10 -15 -15 -25 -15c-9.33301 0 -20.333 10 -33 30c-4.66699 8 -12 21.667 -22 41c-30.667 60.667 -60.334 129 -89.001 205
c-23.333 62 -47 132.667 -71 212c-28 -104 -60 -208 -96 -312c-13.333 -40 -25.333 -70.667 -36 -92c-6 -12.667 -16 -29.667 -30 -51c-8 -12.667 -12.667 -19.667 -14 -21c-6.66699 -8 -14 -12 -22 -12c-6.66699 0 -12.667 3.33301 -18 10c-5.33301 8.66699 -9 15 -11 19
c-34 66.667 -67 154 -99 262c-27.333 92 -49.333 183.667 -66 275l-17 92c-3.33301 18 -6.33301 29.833 -9 35.5s-9.16699 11.667 -19.5 18s-16.5 11 -18.5 14s-3 7.16699 -3 12.5c0 9.33301 3.83301 15 11.5 17s14.834 3 21.501 3h134c10 0 18 -1.33301 24 -4s9 -8 9 -16
c0 -7.33301 -9.83301 -15.666 -29.5 -24.999s-29.5 -25 -29.5 -47c0 -30 5.66699 -72.333 17 -127c6 -28.667 16.333 -71.667 31 -129c10.667 -42 24.334 -89.667 41.001 -143c13.333 -42.667 29 -90.334 47 -143.001c21.333 52.667 38.333 96.334 51 131.001
c20 53.333 35.833 99.333 47.5 138s23.5 84.334 35.5 137.001c15.333 66.667 23 114 23 142c0 18.667 -11.667 34 -35 46c-11.333 6 -17 13.667 -17 23c0 11.333 8 17 24 17h131c9.33301 0 16.5 -1.33301 21.5 -4s7.5 -7.66699 7.5 -15s-9 -16.333 -27 -27
s-27 -26.667 -27 -48c0 -28.667 8.66699 -75.667 26 -141c11.333 -42 25.666 -89.667 42.999 -143c21.333 -68 40.333 -121.667 57 -161c11.333 -26 27 -56.333 47 -91c26 67.333 49 137 69 209c14.667 54 27.667 108.333 39 163l18.5 93
c6.33301 31.333 9.5 55.666 9.5 72.999c0 22 -10.833 37.333 -32.5 46s-32.5 17.667 -32.5 27c0 8 2 13.167 6 15.5s10 3.5 18 3.5z" />
    <glyph glyph-name="X" unicode="X" horiz-adv-x="700" 
d="M329 318l-12.0049 -14.002c-46 -59.333 -82.833 -110.166 -110.5 -152.499s-41.5 -69.5 -41.5 -81.5c0 -10 7.5 -18.333 22.5 -25s22.5 -15.334 22.5 -26.001c0 -8 -3 -13.167 -9 -15.5s-13.667 -3.5 -23 -3.5h-128c-15.333 0 -24.333 0.333008 -27 1
c-10 2.66699 -15 8.66699 -15 18c0 8.66699 4.33301 15.334 13 20.001c3.33301 2 11.666 5 24.999 9c14 5.33301 26.333 14.333 37 27c4.66699 6 13.334 19 26.001 39l68 97l110 148c-37.333 39.333 -74.666 85.333 -111.999 138c-31.333 44 -63.333 94 -96 150
c-6 10.667 -11.667 18.667 -17 24s-11.666 9.5 -18.999 12.5l-18.999 7.5c-9.33301 5.33301 -14 13 -14 23c0 7.33301 3.33301 12.166 10 14.499s14.334 3.5 23.001 3.5h140c13.333 0 22.5 -1.16699 27.5 -3.5s7.5 -6.5 7.5 -12.5c0 -6.66699 -5.33301 -13 -16 -19
s-16.667 -9.66699 -18 -11c-4.66699 -4.66699 -7 -11 -7 -19c0 -22.667 23 -63.334 69 -122.001c23.333 -29.333 56.666 -68 99.999 -116l93 115l42 55c19.333 28 29 48.333 29 61c0 14 -9.5 24.667 -28.5 32s-28.5 16 -28.5 26c0 6 2.5 9.83301 7.5 11.5
s11.167 2.5 18.5 2.5h145c10.667 0 18.667 -1 24 -3s8 -6.66699 8 -14c0 -6.66699 -1.66699 -11.667 -5 -15s-9.16602 -6.66602 -17.499 -9.99902s-14.666 -6.16602 -18.999 -8.49902s-9 -6.33301 -14 -12s-11.5 -14.5 -19.5 -26.5l-32 -49l-159 -207
c44.667 -47.333 78.334 -84.333 101.001 -111c35.333 -42 65 -82.667 89 -122l32 -53c9.33301 -14.667 18.166 -25.834 26.499 -33.501s18.333 -13.5 30 -17.5s19.834 -7.83301 24.501 -11.5s7 -9.5 7 -17.5c0 -6 -2.33301 -11 -7 -15s-13 -6 -25 -6h-154
c-8.66699 0 -16.334 1.33301 -23.001 4s-10 7.66699 -10 15c0 9.33301 8 17.333 24 24s24 14.334 24 23.001c0 16.667 -28.333 59 -85 127c-50.667 60.667 -89 102.334 -115 125.001z" />
    <glyph glyph-name="Y" unicode="Y" horiz-adv-x="700" 
d="M547 732l112 0.00390625c12 0 21.667 -1 29 -3s11 -7 11 -15c0 -9.33301 -5.66699 -17.333 -17 -24s-19 -12 -23 -16s-9 -12 -15 -24c-12.667 -26 -30 -55.667 -52 -89c-17.333 -26.667 -37.333 -55.667 -60 -87l-49.5 -67l-87.5 -113v-223c0 -6 3 -10.667 9 -14
s14 -6.33301 24 -9s17 -5.33398 21 -8.00098s6 -8.33398 6 -17.001c0 -7.33301 -2.5 -13 -7.5 -17s-14.167 -6 -27.5 -6h-137c-11.333 0 -20.166 1.33301 -26.499 4s-9.5 9 -9.5 19c0 6.66699 2.16699 11.667 6.5 15s10.166 6.33301 17.499 9
c14.667 5.33301 24 10.666 28 15.999s6 14.333 6 27v16v190l-81 114l-80 114c-30.667 46 -55 85.333 -73 118c-6 10.667 -11.833 19.167 -17.5 25.5s-13.667 11.833 -24 16.5s-16.833 8 -19.5 10c-6.66699 5.33301 -10 11.666 -10 18.999s2.83301 12.333 8.5 15
s13.167 4 22.5 4h148c11.333 0 19.666 -1 24.999 -3s8 -7.66699 8 -17c0 -8 -8 -15.667 -24 -23s-24 -15.333 -24 -24c0 -12.667 10.333 -35.667 31 -69c14.667 -24 30.334 -46.667 47.001 -68l63.5 -87l62.5 -89l73 95l70 95c21.333 30 36.5 53.5 45.5 70.5
s13.5 30.167 13.5 39.5c0 16 -9.16699 28 -27.5 36s-27.5 17 -27.5 27c0 7.33301 3.16699 12 9.5 14s13.833 3 22.5 3z" />
    <glyph glyph-name="Z" unicode="Z" horiz-adv-x="580" 
d="M107 732l381.002 0.00390625c16 0 27.833 -1.5 35.5 -4.5s11.5 -11.167 11.5 -24.5c0 -21.333 -20.333 -65.333 -61 -132c-44 -71.333 -101.333 -154.666 -172 -249.999l-113 -156l-32 -45c-16 -24 -24 -40.333 -24 -49s2.66699 -13.834 8 -15.501
s13.666 -2.5 24.999 -2.5h122c62 0 107.333 4.83301 136 14.5s53 24.5 73 44.5c6 6 12 12.333 18 19c9.33301 8 17.333 12 24 12c9.33301 0 14 -5 14 -15c0 -15.333 -1.33301 -32.833 -4 -52.5s-5.33398 -35.834 -8.00098 -48.501s-7 -20.334 -13 -23.001s-14.333 -4 -25 -4
h-420c-16.667 0 -29.667 1.66699 -39 5c-14.667 5.33301 -22 15.333 -22 30c0 15.333 4 31 12 47c0 0.666992 8.66699 15 26 43l66 96l231 317c15.333 21.333 29 42 41 62c20 33.333 30 55 30 65c0 8 -4 12.833 -12 14.5s-17 2.5 -27 2.5h-90
c-26.667 0 -45.667 -0.5 -57 -1.5s-26.833 -3.5 -46.5 -7.5s-34.167 -7.66699 -43.5 -11c-20 -7.33301 -38.333 -21 -55 -41c-4 -5.33301 -8 -10.333 -12 -15c-4 -3.33301 -8 -5 -12 -5c-11.333 0 -17 7.33301 -17 22c0.666992 8 1 13.333 1 16l4 51.5
c1.33301 16.333 4 27.166 8 32.499s10.667 8.16602 20 8.49902s15.333 0.5 18 0.5z" />
    <glyph glyph-name="bracketleft" unicode="[" horiz-adv-x="240" 
d="M61 -105v818.997c0 20.667 1.16699 33 3.5 37s10.833 6 25.5 6h15h62c16.667 0 26.334 -0.333008 29.001 -1c11.333 -3.33301 17 -10.666 17 -21.999c0 -7.33301 -2.66699 -12.666 -8 -15.999s-12.666 -6.33301 -21.999 -9c-24.667 -8.66699 -39.834 -17.5 -45.501 -26.5
s-8.5 -25.167 -8.5 -48.5v-21v-617v-23c0 -20 2.83301 -34.667 8.5 -44s19.167 -18 40.5 -26l22 -8c8.66699 -4.66699 13 -11 13 -19c0 -9.33301 -2.83301 -15.666 -8.5 -18.999s-18.167 -5 -37.5 -5h-62h-14c-14.667 0 -23.334 2 -26.001 6s-4 16.333 -4 37z" />
    <glyph glyph-name="backslash" unicode="\" 
d="M391 0l-308 757h71l306 -757h-69z" />
    <glyph glyph-name="bracketright" unicode="]" horiz-adv-x="240" 
d="M131 -148l-62.001 0.00488281c-14.667 0 -24.334 0.666992 -29.001 2c-11.333 3.33301 -17 10.666 -17 21.999c0 8 4 14 12 18c0.666992 0.666992 8.33398 3.66699 23.001 9c21.333 7.33301 34.833 15.666 40.5 24.999s8.5 23.666 8.5 42.999v25v617v21
c0 24 -2.66699 40.167 -8 48.5s-20.666 17.166 -45.999 26.499c-11.333 3.33301 -18 5.66602 -20 6.99902c-6.66699 4 -10 10 -10 18c0 11.333 3.83301 18 11.5 20s19.167 3 34.5 3h62c22 0 34.833 -1.5 38.5 -4.5s5.5 -15.833 5.5 -38.5v-819
c0 -22.667 -1.5 -35.5 -4.5 -38.5s-16.167 -4.5 -39.5 -4.5z" />
    <glyph glyph-name="asciicircum" unicode="^" horiz-adv-x="660" 
d="M157 280h-63l206 452h58l208 -452h-64l-174 378z" />
    <glyph glyph-name="underscore" unicode="_" horiz-adv-x="500" 
d="M0 -78h500v-49h-500v49z" />
    <glyph glyph-name="grave" unicode="`" horiz-adv-x="320" 
d="M90 692l38.002 -2.99805c5.33301 0 13.333 -0.333008 24 -1s17.167 -1.66699 19.5 -3s5.16602 -4.5 8.49902 -9.5s6 -10.167 8 -15.5l50 -90l6.5 -13.5c2.33301 -5 3.5 -9.5 3.5 -13.5c0 -10 -5.66699 -15 -17 -15c-4.66699 0 -10.334 2.83301 -17.001 8.5
s-11 9.5 -13 11.5l-105 102c-6 5.33301 -11.667 10.666 -17 15.999c-4 5.33301 -6 9.66602 -6 12.999c0 8.66699 5.66699 13 17 13z" />
    <glyph glyph-name="a" unicode="a" horiz-adv-x="500" 
d="M429 284l0.000976562 -161.001c0 -10.667 0.166992 -22.167 0.5 -34.5s2.16602 -21.333 5.49902 -27s7.16602 -9.66699 11.499 -12s10.166 -4.66602 17.499 -6.99902s12.333 -4.83301 15 -7.5s4 -7 4 -13c0 -9.33301 -3.83301 -15.333 -11.5 -18s-17.167 -4 -28.5 -4h-44
c-16 -0 -26.167 2.83301 -30.5 8.5s-6.5 15.5 -6.5 29.5v16v25c-40 -62.667 -95.667 -94 -167 -94c-47.333 0 -86.666 11.667 -117.999 35c-34.667 26 -52 62 -52 108c0 30 7.33301 56.667 22 80s35.167 43.5 61.5 60.5s54.833 29 85.5 36s63.334 10.5 98.001 10.5l61 -3
c0 35.333 -13.833 64.166 -41.5 86.499s-60.167 33.5 -97.5 33.5c-19.333 0 -34.5 -1.83301 -45.5 -5.5s-25.5 -10.834 -43.5 -21.501c-7.33301 -4.66699 -14.666 -9 -21.999 -13s-15 -6 -23 -6c-18.667 0 -28 8.33301 -28 25c0 8.66699 4.66699 17.334 14 26.001
c5.33301 4.66699 14 10.334 26 17.001c18.667 8.66699 38.167 15.167 58.5 19.5s41.5 6.5 63.5 6.5c27.333 0 54.166 -3.83301 80.499 -11.5s50.5 -20 72.5 -37s37.833 -37.833 47.5 -62.5s14.5 -53 14.5 -85zM354.001 266.999l-44.999 3c-52 0 -96.333 -9.66699 -133 -29
c-47.333 -24.667 -71 -60.667 -71 -108c0 -27.333 8.66699 -48.666 26 -63.999c20.667 -18.667 44.667 -28 72 -28c21.333 0 41.5 3.16699 60.5 9.5s36.167 16 51.5 29s25.666 27.667 30.999 44s8 37.166 8 62.499v81z" />
    <glyph glyph-name="b" unicode="b" horiz-adv-x="520" 
d="M62 211l-0.00195312 435.002c0 12 -2 20.667 -6 26s-14.667 11.333 -32 18c-10.667 3.33301 -16 8.33301 -16 15c0 5.33301 2 9.66602 6 12.999c0.666992 0.666992 5.83398 3.66699 15.501 9s24 11.666 43 18.999s32.833 11 41.5 11c10 0 16.333 -3.83301 19 -11.5
s4 -17.834 4 -30.501v-314c20 24.667 43.833 44 71.5 58s57.167 21 88.5 21c63.333 0 112.666 -23.333 147.999 -70c32 -42.667 48 -96.667 48 -162c0 -37.333 -4.66699 -70.833 -14 -100.5s-25.166 -57.167 -47.499 -82.5s-49.666 -45 -81.999 -59s-65.5 -21 -99.5 -21
c-32 0 -60.833 4.66699 -86.5 14s-46.667 24.333 -63 45s-26.833 45.334 -31.5 74.001s-7 59.667 -7 93zM136.998 341.002l-0.00195312 -130.001c0 -29.333 1.33301 -53.333 4 -72s9.83398 -36.5 21.501 -53.5s26.167 -30.167 43.5 -39.5s37 -14 59 -14
c49.333 0 87.333 21 114 63c22.667 35.333 34 79 34 131c0 22 -2.83301 45.167 -8.5 69.5s-13.667 45.833 -24 64.5s-23.833 34.334 -40.5 47.001c-19.333 14.667 -39 22 -59 22c-27.333 0 -54.166 -8.33301 -80.499 -25s-47.5 -37.667 -63.5 -63z" />
    <glyph glyph-name="c" unicode="c" horiz-adv-x="460" 
d="M345 377c-15.333 19.333 -28.335 32.6689 -39.002 40.002c-14 9.33301 -32.333 14 -55 14c-21.333 0 -41.166 -6 -59.499 -18s-33.5 -27.833 -45.5 -47.5s-21.167 -42.5 -27.5 -68.5s-9.5 -52 -9.5 -78c0 -48 13.833 -89.333 41.5 -124s65.167 -52 112.5 -52
c23.333 0 46.166 4.66699 68.499 14s40.833 23 55.5 41c6 8 10.333 13 13 15c6 5.33301 12.333 8 19 8c11.333 0 17 -6 17 -18c0 -8.66699 -4.16699 -18.667 -12.5 -30s-17.166 -21.333 -26.499 -30c-42.667 -38.667 -91.667 -58 -147 -58
c-68 0 -121.833 22.167 -161.5 66.5s-59.5 101.166 -59.5 170.499c0 71.333 22.833 132.166 68.5 182.499s103.834 75.5 174.501 75.5c41.333 0 78 -11 110 -33c11.333 -7.33301 20.833 -16.333 28.5 -27s11.5 -22 11.5 -34c0 -9.33301 -3.5 -18.166 -10.5 -26.499
s-14.833 -12.5 -23.5 -12.5c-10.667 0 -19 2.66699 -25 8c-7.33301 9.33301 -13.333 16.666 -18 21.999z" />
    <glyph glyph-name="d" unicode="d" horiz-adv-x="520" 
d="M373 437l0.00292969 223.002c0 6.66699 -2 12 -6 16s-14 8.66699 -30 14c-2.66699 0.666992 -5 1.66699 -7 3c-6 3.33301 -9 7.66602 -9 12.999s2 9.66602 6 12.999c0.666992 0.666992 6 3.66699 16 9s23.333 11 40 17c21.333 8 35.666 12 42.999 12
c10.667 0 17 -3.16699 19 -9.5s3 -16.5 3 -30.5v-638c0 -7.33301 1.66699 -13.333 5 -18s7.66602 -8.33398 12.999 -11.001l12 -6c7.33301 -4 12 -7.33301 14 -10s3 -6.33398 3 -11.001c0 -11.333 -2.83301 -18.166 -8.5 -20.499s-10.834 -3.5 -15.501 -3.5
c-6 0.666992 -10.667 1 -14 1h-63c-10 0 -15 20.667 -15 62c-40 -51.333 -90.667 -77 -152 -77c-64 0 -115.5 23.333 -154.5 70s-58.5 102.667 -58.5 168c0 70.667 20.667 130.334 62 179.001c44 52 100.333 78 169 78c25.333 0 48 -3.66699 68 -11
c14.667 -5.33301 34.667 -16 60 -32zM373.003 139.002l-0.000976562 249.998c-34 18.667 -58.5 30.334 -73.5 35.001s-31.5 7 -49.5 7c-48.667 0 -87.667 -21 -117 -63c-26 -37.333 -39 -81.333 -39 -132c0 -55.333 11.333 -100 34 -134c26.667 -40 66.334 -60 119.001 -60
c18.667 0 38 3.83301 58 11.5s36.333 17.834 49 30.501c8 8 13.167 16 15.5 24s3.5 18.333 3.5 31z" />
    <glyph glyph-name="e" unicode="e" horiz-adv-x="500" 
d="M133 176l-20.001 -2.00098c7.33301 -40.667 26.333 -72.834 57 -96.501s67 -35.5 109 -35.5c36 0 68 8.66699 96 26l76 58c4.66699 0 9 -1.66699 13 -5s6 -7.66602 6 -12.999c0 -12.667 -7.66699 -27 -23 -43c-12 -13.333 -25.333 -24.666 -40 -33.999
c-22 -15.333 -44.833 -26.833 -68.5 -34.5s-48.834 -11.5 -75.501 -11.5c-66.667 0 -122.667 21.333 -168 64s-68 97.334 -68 164.001c0 74 25.667 137 77 189s114 78 188 78c40.667 0 74.667 -8.66699 102 -26c18 -11.333 32.833 -26 44.5 -44s17.5 -37 17.5 -57
c0 -33.333 -12.333 -62.333 -37 -87c-20 -20 -47.667 -36.667 -83 -50c-27.333 -10.667 -60.666 -19.334 -99.999 -26.001c-23.333 -4 -57.666 -8.66699 -102.999 -14zM106.999 216.999c72.667 6.66699 128 16.667 166 30c68.667 23.333 103 59.333 103 108
c0 25.333 -8.33301 44.333 -25 57s-38 19 -64 19c-58 0 -103.333 -21.667 -136 -65c-29.333 -39.333 -44 -89 -44 -149z" />
    <glyph glyph-name="f" unicode="f" horiz-adv-x="300" 
d="M173 425l-0.00390625 -301.001c-0.666992 -12 -1 -21.667 -1 -29c0 -16 2 -28 6 -36c2 -3.33301 5.83301 -6.33301 11.5 -9s10.834 -5 15.501 -7s8.66699 -4.33301 12 -7s5 -7 5 -13c0 -9.33301 -3 -15.5 -9 -18.5s-14 -4.5 -24 -4.5h-114
c-10.667 0 -17.667 1.16699 -21 3.5s-5 8.83301 -5 19.5c0 8.66699 5.66699 15.334 17 20.001l15 7c6.66699 3.33301 11.167 10 13.5 20s3.5 22 3.5 36v18v301h-24h-19c-14.667 0 -24 2 -28 6s-6 10.333 -6 19c0 10 2.66699 16.5 8 19.5s13 4.5 23 4.5
c9.33301 -0.666992 16 -1 20 -1h26c0 52.667 0.666992 90.834 2 114.501s6.33301 50.167 15 79.5s22.334 53.666 41.001 72.999c22.667 24 49 36 79 36c16 0 30.167 -4.83301 42.5 -14.5s18.5 -22.167 18.5 -37.5c0 -10 -3.5 -18.833 -10.5 -26.5s-15.5 -11.5 -25.5 -11.5
c-3.33301 0 -9 2.66699 -17 8c-3.33301 2.66699 -8.16602 5.83398 -14.499 9.50098s-11.5 5.5 -15.5 5.5c-12.667 0 -22.5 -7.83301 -29.5 -23.5s-10.5 -42.834 -10.5 -81.501v-18v-113h59h16c8.66699 0 15.334 -1.66699 20.001 -5s7 -10 7 -20s-3.66699 -16.333 -11 -19
s-17.333 -4 -30 -4h-61z" />
    <glyph glyph-name="g" unicode="g" horiz-adv-x="520" 
d="M419 421h-30.9971c48 -48 72 -105 72 -171c0 -36 -7.66699 -69.5 -23 -100.5s-37.333 -57.833 -66 -80.5c32 -11.333 57.333 -26.666 76 -45.999c22.667 -23.333 34 -50 34 -80c0 -42.667 -18.667 -76.334 -56 -101.001c-46.667 -30.667 -114 -46 -202 -46
c-42.667 0 -80.334 4.33301 -113.001 13c-52 14 -78 36 -78 66c0 14.667 5.66699 30.167 17 46.5s23.666 24.5 36.999 24.5c8.66699 0 13 -5 13 -15l-2 -25c0 -20.667 19 -35.667 57 -45c25.333 -6 53 -9 83 -9c44 0 78.667 4.66699 104 14c39.333 14.667 59 39.667 59 75
c0 24 -9 44 -27 60c-12 10.667 -32 22.334 -60 35.001c-26 -9.33301 -51.667 -14 -77 -14c-65.333 0 -117.333 20.667 -156 62s-58 95.333 -58 162c0 69.333 21.333 125.666 64 168.999s98.667 65 168 65c32 -2.66699 61.5 -4.5 88.5 -5.5s58.833 -1.5 95.5 -1.5
c22 0 36.333 -2 43 -6s10 -11 10 -21s-4.33301 -16.833 -13 -20.5s-19.667 -5.5 -33 -5.5c-12.667 0.666992 -21.334 1 -26.001 1zM233.003 76c50 0 87.668 18.001 113.001 54.001c22.667 32 34 74 34 126c0 49.333 -10.333 89.666 -31 120.999
c-24.667 37.333 -60.334 56 -107.001 56c-45.333 0 -81 -20.333 -107 -61c-22 -34.667 -33 -76 -33 -124c0 -46 10 -84.667 30 -116c24 -37.333 57.667 -56 101 -56z" />
    <glyph glyph-name="h" unicode="h" horiz-adv-x="560" 
d="M485 287l-0.00195312 -163.997c0 -10.667 0.166992 -22.167 0.5 -34.5s2.5 -22.166 6.5 -29.499c1.33301 -2.66699 4 -5.33398 8 -8.00098s9.33301 -5.16699 16 -7.5s11.667 -4.83301 15 -7.5s5 -7 5 -13c0 -6.66699 -2.5 -12.167 -7.5 -16.5s-11.167 -6.5 -18.5 -6.5
h-109c-7.33301 -0.666992 -12.666 -1 -15.999 -1c-6.66699 0 -11.834 1.5 -15.501 4.5s-5.5 9.5 -5.5 19.5c0 7.33301 5.33301 14 16 20l10 5l12 9c2.66699 4 4.66699 11.333 6 22s2 20 2 28v16v197c0 31.333 -10 56.666 -30 75.999s-48 29 -84 29c-30 0 -55.5 -5 -76.5 -15
s-43.5 -26.333 -67.5 -49v-238c0 -10.667 0.166992 -22.167 0.5 -34.5s2.5 -22.166 6.5 -29.499c1.33301 -2.66699 4 -5.16699 8 -7.5s10 -5 18 -8s13.333 -5.83301 16 -8.5s4 -6.66699 4 -12c0 -7.33301 -2.33301 -13 -7 -17s-11 -6 -19 -6h-117
c-7.33301 -0.666992 -12.666 -1 -15.999 -1c-6.66699 0 -12 1.66699 -16 5s-6 9.66602 -6 18.999c0 5.33301 1.33301 9.33301 4 12s7.5 5.16699 14.5 7.5s12.333 4.33301 16 6s7 4.33398 10 8.00098s5.16699 11.167 6.5 22.5s2 21 2 29v15v526c0 13.333 -3.66699 23 -11 29
c-3.33301 2.66699 -11.666 6.66699 -24.999 12c-10.667 3.33301 -16 8.33301 -16 15c0 5.33301 2 9.66602 6 12.999c0.666992 0.666992 5.83398 3.66699 15.501 9s24 11.666 43 18.999s32.5 11 40.5 11c8.66699 0 14.5 -3 17.5 -9s4.5 -13.333 4.5 -22v-10v-301
c45.333 43.333 99.666 65 162.999 65c52.667 0 95.667 -18 129 -54c16 -18 27.333 -39.667 34 -65c4.66699 -18.667 7 -43.334 7 -74.001z" />
    <glyph glyph-name="i" unicode="i" horiz-adv-x="240" 
d="M109 557c-15.333 0 -27.832 5.16602 -37.499 15.499s-14.5 23.5 -14.5 39.5s5.33301 29 16 39s24 15 40 15c15.333 0 28.166 -4.83301 38.499 -14.5s15.5 -22.167 15.5 -37.5c0 -17.333 -5.16699 -31.166 -15.5 -41.499s-24.5 -15.5 -42.5 -15.5zM182.001 -0.000976562
l-112.996 0.000976562c-10.667 -0 -19 1.33301 -25 4s-9 8.66699 -9 18c0 10.667 6.66699 17.834 20 21.501s22.333 10.167 27 19.5s7 24.333 7 45v211v19c0 19.333 -2.33301 33.333 -7 42s-16.334 15 -35.001 19c-6.66699 1.33301 -12 3.16602 -16 5.49902s-6 6.5 -6 12.5
s2 10.833 6 14.5s13.333 9 28 16s24.667 11.667 30 14s13 6 23 11s17 7.5 21 7.5c8.66699 0 14.667 -2.5 18 -7.5s6.66602 -17.833 9.99902 -38.5c1.33301 -8 2.33301 -17 3 -27s1 -19.667 1 -29s-0.166992 -18.5 -0.5 -27.5s-0.5 -18.167 -0.5 -27.5v-200
c-0.666992 -11.333 -1 -20.666 -1 -27.999c0 -16 2 -28 6 -36c1.33301 -2.66699 4 -5.16699 8 -7.5s9.66699 -4.83301 17 -7.5s12.666 -5.33398 15.999 -8.00098s5 -7.33398 5 -14.001c0 -8.66699 -2.83301 -14.5 -8.5 -17.5s-13.834 -4.5 -24.501 -4.5z" />
    <glyph glyph-name="j" unicode="j" horiz-adv-x="220" 
d="M108 557c-16 0 -28.666 5.33203 -37.999 15.999s-14 23.667 -14 39c0 16 5.33301 29 16 39s24 15 40 15c15.333 0 28.166 -4.83301 38.499 -14.5s15.5 -22.167 15.5 -37.5c0 -17.333 -5.16699 -31.166 -15.5 -41.499s-24.5 -15.5 -42.5 -15.5zM165.001 322.999
l0.000976562 -229.998c0 -40.667 -1.66699 -76.167 -5 -106.5s-10.5 -58.666 -21.5 -84.999s-26.833 -49.5 -47.5 -69.5c-24.667 -24.667 -49.334 -37 -74.001 -37c-11.333 0 -21.833 3.5 -31.5 10.5s-14.5 15.833 -14.5 26.5c0 12 4 21.667 12 29s18 11 30 11
c6 0 13.333 -1.33301 22 -4s14.667 -4 18 -4c16 0 26.667 9.33301 32 28c3.33301 12 5 34 5 66v371c0 13.333 -0.5 24.333 -1.5 33s-3.33301 15.5 -7 20.5s-8.66699 8.66699 -15 11s-12.833 4.16602 -19.5 5.49902s-11.834 3.33301 -15.501 6s-5.5 7 -5.5 13
c0 5.33301 1.83301 9.66602 5.5 12.999s16.834 10.333 39.501 21c12 6.66699 19.667 10.667 23 12c11.333 6 20 10.167 26 12.5s11 3.5 15 3.5c8 0 13.833 -2.16699 17.5 -6.5s6.5 -13.833 8.5 -28.5s3.16699 -33.334 3.5 -56.001s0.5 -44.667 0.5 -66z" />
    <glyph glyph-name="k" unicode="k" horiz-adv-x="500" 
d="M353 354l-50 -50.9951l-13 -13c31.333 -29.333 61.666 -63 90.999 -101c27.333 -35.333 53 -73.333 77 -114c7.33301 -14 17 -24 29 -30s18 -13.667 18 -23c0 -10 -1.66699 -16.167 -5 -18.5s-10 -3.5 -20 -3.5h-114c-8.66699 0 -15.5 1.33301 -20.5 4s-7.5 8 -7.5 16
c0 7.33301 7.33301 15.666 22 24.999c7.33301 4.66699 11 10 11 16c0 18.667 -17.667 50.667 -53 96c-29.333 37.333 -56 66.666 -80 87.999l-86 -70v-51c0 -10.667 0.166992 -22.167 0.5 -34.5s2.5 -22.166 6.5 -29.499c1.33301 -2.66699 4 -5.33398 8 -8.00098
s9.33301 -5 16 -7c5.33301 -3.33301 9.66602 -6.33301 12.999 -9s5 -7 5 -13c0 -7.33301 -2.33301 -13 -7 -17s-11 -6 -19 -6h-115c-14 0 -23.167 1.83301 -27.5 5.5s-6.5 9.5 -6.5 17.5c0 5.33301 1.5 9.66602 4.5 12.999s7.16699 5.83301 12.5 7.5l15.5 5
c5 1.66699 8.83301 4.66699 11.5 9s4.5 9.83301 5.5 16.5s1.5 15.334 1.5 26.001v24v488v20c0 16 -2 28.333 -6 37s-12.667 15.5 -26 20.5s-20 10.5 -20 16.5s3 10.833 9 14.5s10 5.83398 12 6.50098c10.667 6 24.334 12 41.001 18c20.667 8 35 12 43 12
c10.667 0 17 -3.16699 19 -9.5s3 -16.5 3 -30.5v-484c42 32 76.333 60.333 103 85c50 45.333 75 77.666 75 96.999c0 8 -4.83301 15.667 -14.5 23s-14.5 14 -14.5 20c0 7.33301 3.33301 11.666 10 12.999s11.334 2 14.001 2h117c8.66699 0 15.167 -0.833008 19.5 -2.5
s6.5 -6.16699 6.5 -13.5c0 -6.66699 -1.83301 -11.834 -5.5 -15.501s-9.5 -7.16699 -17.5 -10.5c-20 -8.66699 -36.667 -19.334 -50 -32.001z" />
    <glyph glyph-name="l" unicode="l" horiz-adv-x="220" 
d="M74 123l0.000976562 526.999c0 11.333 -2.83301 19.833 -8.5 25.5s-14.167 10.334 -25.5 14.001s-17 8.83398 -17 15.501c0 4.66699 2.66699 9 8 13s9.33301 6.66699 12 8c14.667 7.33301 28.667 13.666 42 18.999c20 8 34.333 12 43 12c10 0 16 -3.33301 18 -10
s3 -16.667 3 -30v-594c0 -9.33301 0.166992 -18.833 0.5 -28.5s1.66602 -18.834 3.99902 -27.501s7.16602 -14.667 14.499 -18l11 -6c8 -4 12.333 -6.33301 13 -7c3.33301 -3.33301 5 -8 5 -14c0 -9.33301 -1.66699 -15.333 -5 -18s-10.666 -4 -21.999 -4h-116
c-10 0 -17 1.33301 -21 4s-6 8.66699 -6 18c0 8 5.66699 15 17 21l18 9c4.66699 3.33301 8 9.33301 10 18s3 17.334 3 26.001c-0.666992 14 -1 23 -1 27z" />
    <glyph glyph-name="m" unicode="m" horiz-adv-x="840" 
d="M770 288l0.00195312 -216.004c0 -9.33301 6 -16.666 18 -21.999l11 -6c8 -4 12.333 -6.33301 13 -7c3.33301 -3.33301 5 -8 5 -14c0 -9.33301 -1.83301 -15.5 -5.5 -18.5s-10.834 -4.5 -21.501 -4.5h-108c-13.333 0 -22.5 1.33301 -27.5 4s-7.5 9 -7.5 19
c0 7.33301 5.66699 14 17 20l20 8c7.33301 4.66699 11 11.667 11 21v219c0 22 -0.5 38.667 -1.5 50s-4.83301 23.333 -11.5 36c-16 32 -43.667 48 -83 48c-33.333 0 -63.333 -9 -90 -27c-31.333 -20.667 -47 -48 -47 -82v-244c0 -9.33301 2.66699 -15.666 8 -18.999
c8.66699 -3.33301 16.334 -6.66602 23.001 -9.99902s10.334 -5.33301 11.001 -6c3.33301 -3.33301 5 -8 5 -14c0 -10 -1.66699 -16.333 -5 -19s-11 -4 -23 -4h-109c-12.667 0 -21.334 1.16699 -26.001 3.5s-7 8.83301 -7 19.5c0 7.33301 5.33301 14 16 20l23 11
c6 5.33301 9 11.333 9 18v209c0 57.333 -9.33301 96.333 -28 117c-16 18 -40 27 -72 27c-30.667 0 -59.334 -9 -86.001 -27c-31.333 -21.333 -47 -48.666 -47 -81.999v-244c0 -9.33301 3.66699 -16 11 -20l24 -9.5c6 -2.33301 10.167 -5 12.5 -8s3.5 -6.83301 3.5 -11.5
c0 -9.33301 -2.66699 -15.5 -8 -18.5s-13.333 -4.5 -24 -4.5h-103c-13.333 0 -23 1.5 -29 4.5s-9 9.16699 -9 18.5c0 8 5.5 14.333 16.5 19s17.5 7.66699 19.5 9c7.33301 4.66699 11 11.667 11 21v246v16c0 19.333 -1.33301 32.666 -4 39.999
c-4.66699 13.333 -14.334 22 -29.001 26c-4 0.666992 -7.66699 1.66699 -11 3c-8 3.33301 -12 8 -12 14c0 7.33301 5 15.333 15 24c7.33301 5.33301 12 9 14 11c11.333 8.66699 19 14.334 23 17.001c11.333 7.33301 20.333 11 27 11c15.333 0 26.666 -16.667 33.999 -50
c1.33301 -7.33301 3.33301 -20 6 -38c20 27.333 43.833 48.833 71.5 64.5s57.834 23.5 90.501 23.5s60.5 -7.33301 83.5 -22s43.5 -36.667 61.5 -66c18.667 26.667 42.5 48 71.5 64s59.833 24 92.5 24c50 0 90 -17.333 120 -52c14 -16 23.667 -36.333 29 -61s8 -51 8 -79z
" />
    <glyph glyph-name="n" unicode="n" horiz-adv-x="560" 
d="M487 285l-0.00195312 -213.002c0 -7.33301 2.33301 -13 7 -17c12.667 -6 20.667 -9.66699 24 -11c8 -4 12.333 -6.33301 13 -7c3.33301 -3.33301 5 -8 5 -14c0 -5.33301 -1.33301 -9.66602 -4 -12.999c-4.66699 -6.66699 -11.667 -10 -21 -10h-110
c-7.33301 -0.666992 -13 -1 -17 -1c-6.66699 0 -11.834 1.5 -15.501 4.5s-5.5 9.5 -5.5 19.5c0 8.66699 5.66699 15.334 17 20.001c6 2 12.833 4.83301 20.5 8.5s11.5 10.5 11.5 20.5v259c0 28 -7.66699 49.667 -23 65c-19.333 19.333 -50.333 29 -93 29
c-21.333 0 -41.166 -3.66699 -59.499 -11s-34.666 -17.5 -48.999 -30.5s-23.5 -26.5 -27.5 -40.5s-6 -32.333 -6 -55v-216c0 -9.33301 4 -16.333 12 -21c2 -0.666992 7.33301 -2.66699 16 -6s14.667 -6.33301 18 -9s5 -7 5 -13c0 -7.33301 -2.33301 -13 -7 -17
s-11 -6 -19 -6h-111c-7.33301 -0.666992 -13 -1 -17 -1c-7.33301 0 -13 1.5 -17 4.5s-6 9.5 -6 19.5c0 8.66699 6 15.334 18 20.001c6 2 12.333 4.33301 19 7c9.33301 5.33301 14 12.666 14 21.999v258v11c0 16.667 -1.33301 28.334 -4 35.001
c-4.66699 10.667 -13.167 18 -25.5 22s-19.666 7 -21.999 9s-3.5 5.33301 -3.5 10c0 6.66699 2.66699 13 8 19c1.33301 1.33301 6.5 5.5 15.5 12.5l25.5 19.5c11.333 8 20.333 12 27 12c14 0 24.667 -11.333 32 -34c2 -5.33301 5.33301 -23 10 -53c24 30 50 52 78 66
s61.333 21 100 21c26 0 50.333 -4 73 -12s41.667 -20.5 57 -37.5s25.333 -37.833 30 -62.5s7 -52.334 7 -83.001z" />
    <glyph glyph-name="o" unicode="o" horiz-adv-x="560" 
d="M281 480c68 0 126.333 -23.667 175 -71s73 -105 73 -173c0 -71.333 -24.333 -131 -73 -179s-108.667 -72 -180 -72c-68 0 -125.833 24.167 -173.5 72.5s-71.5 106.5 -71.5 174.5s24.667 126.333 74 175s108 73 176 73zM277 34c54 0 97.332 21.667 129.999 65
c14 18 24.5 39 31.5 63s10.5 49 10.5 75c0 54.667 -14.333 100 -43 136c-31.333 38.667 -73.666 58 -126.999 58c-54 0 -96.333 -21 -127 -63c-27.333 -37.333 -41 -84 -41 -140c0 -54.667 13.667 -99.667 41 -135c30 -39.333 71.667 -59 125 -59z" />
    <glyph glyph-name="p" unicode="p" horiz-adv-x="580" 
d="M170 268l-0.000976562 -341.999c0 -10.667 0.166992 -22.167 0.5 -34.5s2.16602 -21.5 5.49902 -27.5s11.666 -12 24.999 -18c8 -3.33301 13.167 -6.5 15.5 -9.5s3.5 -6.83301 3.5 -11.5c0 -14 -8.33301 -21 -25 -21h-120c-11.333 0 -18.833 1 -22.5 3s-5.5 8 -5.5 18
c0 8 5.33301 15 16 21c13.333 0 22 6.16699 26 18.5s6 29.5 6 51.5v406v13c0 21.333 -2 36.666 -6 45.999c-6 14.667 -18 23 -36 25c-12.667 2.66699 -19.667 4.33398 -21 5.00098c-4.66699 2.66699 -7 6.66699 -7 12c0 12 11.333 24.5 34 37.5s40.334 19.5 53.001 19.5
c18 0 31.667 -10.333 41 -31c3.33301 -7.33301 8.66602 -25.666 15.999 -54.999c25.333 28.667 49.333 49.334 72 62.001c28 16 59.333 24 94 24c62 0 114 -23.667 156 -71c20 -22.667 34.5 -48.334 43.5 -77.001s13.5 -59.334 13.5 -92.001
c0 -35.333 -4.33301 -67.5 -13 -96.5s-23.5 -55.667 -44.5 -80s-47.167 -43.5 -78.5 -57.5s-63.666 -21 -96.999 -21c-30.667 0 -59 6 -85 18c-20 9.33301 -30 20.666 -30 33.999c0 5.33301 1.83301 10.5 5.5 15.5s7.83398 7.5 12.501 7.5c6 0 13 -2.33301 21 -7
c24 -11.333 51.333 -17 82 -17c21.333 0 41.666 5.16699 60.999 15.5s35.333 24.5 48 42.5s22.167 39.333 28.5 64s9.5 49.334 9.5 74.001c0 53.333 -10.667 96.666 -32 129.999c-26 40 -64.333 60 -115 60c-41.333 0 -76.666 -13 -105.999 -39
c-17.333 -15.333 -29.166 -32 -35.499 -50s-9.5 -39.667 -9.5 -65z" />
    <glyph glyph-name="q" unicode="q" horiz-adv-x="520" 
d="M460 441l0.000976562 -514.997c0 -10.667 0.166992 -22.167 0.5 -34.5s2.16602 -21.5 5.49902 -27.5s11.666 -12 24.999 -18c8 -3.33301 13.167 -6.5 15.5 -9.5s3.5 -6.83301 3.5 -11.5c0 -10 -1.33301 -16 -4 -18s-8.66699 -3 -18 -3h-122c-10 0 -17 1.16699 -21 3.5
s-6 8.16602 -6 17.499c0 7.33301 5 14 15 20c15.333 0 24.333 6.83301 27 20.5s4 27.167 4 40.5v158c-18.667 -24 -42 -43.167 -70 -57.5s-57.333 -21.5 -88 -21.5c-64 0 -116 24 -156 72c-37.333 45.333 -56 100.666 -56 165.999c0 70.667 22.167 131.167 66.5 181.5
s101.5 75.5 171.5 75.5c24.667 0 48.167 -3.33301 70.5 -10s43.166 -17.334 62.499 -32.001l27 25c12.667 11.333 23.334 17 32.001 17c6.66699 0 10.834 -3.33301 12.501 -10s2.5 -12 2.5 -16v-13zM385.001 167.003l0.000976562 129c0 22.667 -2.33301 41.834 -7 57.501
s-14 30.167 -28 43.5c-24.667 23.333 -55.334 35 -92.001 35c-55.333 0 -97.333 -21.333 -126 -64c-24.667 -36.667 -37 -84.334 -37 -143.001c0 -50.667 12.333 -92.667 37 -126c28 -38 66.333 -57 115 -57c20.667 0 40.167 3.33301 58.5 10s35.5 17 51.5 31
c12 11.333 19.667 22.833 23 34.5s5 28.167 5 49.5z" />
    <glyph glyph-name="r" unicode="r" horiz-adv-x="360" 
d="M166 235v-153.001c0 -12.667 3.66699 -22 11 -28c4 -3.33301 10.333 -6.33301 19 -9c8 -4 12.333 -6.33301 13 -7c3.33301 -3.33301 5 -8 5 -14c0 -10 -2.83301 -16.5 -8.5 -19.5s-13.834 -4.5 -24.501 -4.5h-107c-14 0 -23.167 1.83301 -27.5 5.5
s-6.5 9.83398 -6.5 18.501c0 8 5.66699 14.667 17 20c10.667 3.33301 17.334 6 20.001 8c9.33301 6.66699 14 16.667 14 30v240c0 18.667 -4.16699 34.167 -12.5 46.5s-18.5 21.166 -30.5 26.499c-4 1.33301 -7.66699 2.66602 -11 3.99902c-8 4 -12 9.66699 -12 17
c0 6 2.66699 12 8 18s11.333 11.333 18 16c9.33301 6.66699 18.333 12.667 27 18c13.333 8 23 12 29 12c16.667 0 30 -17.333 40 -52c4.66699 -16 9.33398 -40.667 14.001 -74c12 29.333 29.667 56.333 53 81c28 30 55 45 81 45c19.333 0 33.666 -5.33301 42.999 -16
s14 -25.667 14 -45c0 -9.33301 -1.33301 -17 -4 -23c-4.66699 -9.33301 -11 -14 -19 -14c-5.33301 0 -15.333 3.5 -30 10.5s-25 10.5 -31 10.5c-12.667 0 -26.667 -7.33301 -42 -22c-12 -11.333 -22.833 -25.166 -32.5 -41.499s-16.667 -32.166 -21 -47.499
s-6.5 -34.333 -6.5 -57z" />
    <glyph glyph-name="s" unicode="s" horiz-adv-x="400" 
d="M186 291l55.0039 -14.001c19.333 -5.33301 35.666 -10.666 48.999 -15.999c19.333 -8 34.833 -17 46.5 -27s21.5 -23 29.5 -39s12 -32.333 12 -49c0 -48.667 -18.5 -87.667 -55.5 -117s-80.167 -44 -129.5 -44c-41.333 0 -80 11 -116 33c-13.333 8 -25 18 -35 30
c-12.667 14.667 -19 28.667 -19 42c0 6.66699 2.5 13.167 7.5 19.5s10.833 9.5 17.5 9.5s13.667 -3.33301 21 -10c2.66699 -2.66699 8.33398 -8.66699 17.001 -18c5.33301 -6.66699 10.666 -13 15.999 -19c8 -8.66699 18.5 -15.834 31.5 -21.501s25.167 -10 36.5 -13
s22.666 -4.5 33.999 -4.5c26.667 0 50 7 70 21c22.667 16 34 36.667 34 62c0 34 -22.167 57.833 -66.5 71.5l-130.5 39.5c-46.667 22 -70 58.667 -70 110c0 20.667 4.66699 40.5 14 59.5s22 34.833 38 47.5s33.667 21.834 53 27.501s40.333 8.5 63 8.5
c46 0 87.333 -10.667 124 -32c8.66699 -5.33301 14.167 -11 16.5 -17s3.5 -15.333 3.5 -28v-15c0 -8.66699 -0.833008 -15.834 -2.5 -21.501s-5.16699 -8.5 -10.5 -8.5c-22.667 20 -44.334 37 -65.001 51c-22.667 16 -48.334 24 -77.001 24
c-24.667 0 -46.5 -6.16699 -65.5 -18.5s-28.5 -30.166 -28.5 -53.499c0 -20 9 -36 27 -48c12 -8 30.333 -15.333 55 -22z" />
    <glyph glyph-name="t" unicode="t" horiz-adv-x="300" 
d="M162 425l-0.00195312 -298.999c0 -28.667 3 -47.667 9 -57c8.66699 -13.333 26.334 -20 53.001 -20c11.333 0.666992 20.333 1 27 1c11.333 0 20.333 -1.66699 27 -5s10 -10 10 -20c0 -8 -3 -14.167 -9 -18.5s-13.333 -6.5 -22 -6.5h-135c-15.333 0 -25 3.66699 -29 11
s-6 19.666 -6 36.999v377h-34c-17.333 0 -29.333 1.66699 -36 5s-10 11.333 -10 24c0 6.66699 3.33301 11.5 10 14.5s14.334 4.5 23.001 4.5c13.333 0 23.833 1.33301 31.5 4s13.667 9.16699 18 19.5s9.16602 27.333 14.499 51s8 41.167 8 52.5c2 19.333 3.66699 31 5 35
c4.66699 15.333 12.667 23 24 23c8.66699 0 14.334 -3.66699 17.001 -11s4 -16.333 4 -27v-147h77h17c10 0 17.5 -1.33301 22.5 -4s7.5 -9 7.5 -19c0 -11.333 -3.66699 -18.333 -11 -21s-18 -4 -32 -4h-81z" />
    <glyph glyph-name="u" unicode="u" horiz-adv-x="520" 
d="M63 176l0.00195312 159.999v15c0 10.667 -0.333008 19.834 -1 27.501s-2.16699 14.5 -4.5 20.5s-5.16602 10.667 -8.49902 14s-8.5 6.83301 -15.5 10.5s-11.167 6.16699 -12.5 7.5c-4 4 -6 8.66699 -6 14c0 8.66699 11.167 16.667 33.5 24s40.166 11 53.499 11
c14.667 0 24.334 -5.16699 29.001 -15.5s7 -23.5 7 -39.5v-254c0 -21.333 0.5 -38 1.5 -50s4.83301 -24.5 11.5 -37.5s17.667 -23.5 33 -31.5s31.666 -12 48.999 -12c22.667 0 45.667 4.83301 69 14.5s42.333 22.5 57 38.5c8.66699 9.33301 14.5 19 17.5 29s4.5 21 4.5 33
v25v167v23c0 14.667 -1.33301 25.834 -4 33.501s-9.66699 14.5 -21 20.5c-6 3.33301 -9.33301 5.33301 -10 6c-4 3.33301 -6 7.33301 -6 12s1.16699 8.5 3.5 11.5s8 6.5 17 10.5s20.167 7.66699 33.5 11s24.666 5 33.999 5c12 0 19.667 -4.66699 23 -14s5 -21.666 5 -36.999
v-12v-295c0 -10.667 0.166992 -22.167 0.5 -34.5s2.5 -21.833 6.5 -28.5s11.5 -11.834 22.5 -15.501s17.833 -6.83398 20.5 -9.50098s4 -6.66699 4 -12c0 -9.33301 -2 -15.333 -6 -18s-10.667 -4 -20 -4h-70c-8 -0 -14.667 6.33301 -20 19s-8 29 -8 49
c-24 -25.333 -50.333 -45.5 -79 -60.5s-59 -22.5 -91 -22.5c-23.333 0 -45.5 4.66699 -66.5 14s-38.333 23 -52 41s-22.834 38 -27.501 60s-7 47.333 -7 76z" />
    <glyph glyph-name="v" unicode="v" horiz-adv-x="460" 
d="M26 473h117.003c14 0 21 -7.33301 21 -22c0 -6.66699 -7.5 -14.834 -22.5 -24.501s-22.5 -24.834 -22.5 -45.501c0 -33.333 15.333 -84.833 46 -154.5s58.667 -120.167 84 -151.5c29.333 40 54.666 85.333 75.999 136c10.667 28.667 20.667 57.667 30 87
c13.333 42.667 20 71.334 20 86.001c0 19.333 -7.33301 34.333 -22 45c-7.33301 6 -11.333 9.33301 -12 10c-2.66699 3.33301 -4 8.33301 -4 15c0 8 2.66699 13.167 8 15.5s12 3.5 20 3.5h75c11.333 0 19 -1 23 -3s6 -7.66699 6 -17c0 -4 -1.83301 -8.66699 -5.5 -14
l-7.5 -11c-8 -10 -12.833 -17 -14.5 -21s-4.83398 -15.333 -9.50098 -34l-17 -62c-10.667 -39.333 -24.334 -78.166 -41.001 -116.499s-36.334 -76.833 -59.001 -115.5c-14 -26 -28.667 -48.167 -44 -66.5s-27.333 -27.5 -36 -27.5c-8 0 -17 5.33301 -27 16
c-4.66699 4.66699 -11.667 13.667 -21 27c-40 57.333 -71.667 115.333 -95 174c-18 46 -36.333 109.333 -55 190c-3.33301 16 -10.166 28.167 -20.499 36.5s-15.5 15.833 -15.5 22.5s2.66699 12 8 16s11 6 17 6z" />
    <glyph glyph-name="w" unicode="w" horiz-adv-x="720" 
d="M332 473l92 0.00292969c13.333 0 20 -6.33301 20 -19c0 -8.66699 -6.16699 -16.667 -18.5 -24s-18.5 -18.666 -18.5 -33.999c0 -42 12.667 -97 38 -165c22.667 -60.667 47.667 -113 75 -157c24 32 48.333 82.5 73 151.5s37 122.833 37 161.5c0 18.667 -8.66699 34 -26 46
c-8.66699 6 -13 12.667 -13 20c0 8.66699 2.33301 14.167 7 16.5s11.334 3.5 20.001 3.5h75c8.66699 0 15.5 -1 20.5 -3s7.5 -6.66699 7.5 -14c0 -4 -1.66699 -8.66699 -5 -14c-7.33301 -11.333 -12.5 -21 -15.5 -29s-7.16699 -21.333 -12.5 -40l-14 -53
c-14 -50.667 -27 -92.334 -39 -125.001c-16 -44.667 -33.667 -84.334 -53 -119.001c-14.667 -26.667 -32 -53 -52 -79c-7.33301 -8 -15.333 -12 -24 -12c-16 0 -37 24.333 -63 73c-30 56 -57.667 121.333 -83 196c-18 -49.333 -40 -99.666 -66 -150.999
c-40 -78.667 -70.667 -118 -92 -118c-12.667 0 -29.334 17.667 -50.001 53c-8 13.333 -19.667 36.333 -35 69c-19.333 42.667 -36 88 -50 136s-25 97.333 -33 148c-2 14 -6.33301 25 -13 33c-12.667 16 -19 25.667 -19 29c0 6.66699 1.66699 11.667 5 15s10.333 5 21 5h97
c10 0 16.667 -1.33301 20 -4s5 -9 5 -19c0 -7.33301 -6.33301 -14.333 -19 -21s-19 -17.334 -19 -32.001c0 -22 4.33301 -50.667 13 -86c5.33301 -22 13.333 -50.167 24 -84.5s20 -60.833 28 -79.5c10.667 -24.667 24 -49 40 -73c31.333 40 58.833 91.167 82.5 153.5
s35.5 118.166 35.5 167.499c0 14.667 -7.66699 28 -23 40c-8 6 -12 12.667 -12 20s3.5 12.166 10.5 14.499s14.167 3.5 21.5 3.5z" />
    <glyph glyph-name="x" unicode="x" horiz-adv-x="500" 
d="M197 234l-108.998 131.997c-16 22.667 -24.667 35 -26 37c-10 11.333 -21.667 20.666 -35 27.999c-7.33301 4 -11.666 7 -12.999 9c-3.33301 4 -5 9.66699 -5 17c0 6.66699 2 11 6 13s10 3 18 3h117c8.66699 0 14.667 -0.833008 18 -2.5s5 -6.5 5 -14.5
c0 -6 -4 -12.333 -12 -19s-12 -13 -12 -19c0 -12 13.667 -34.333 41 -67c3.33301 -4 22.666 -25.333 57.999 -64c18.667 19.333 36.667 40.333 54 63c25.333 32.667 38 55.334 38 68.001c0 6 -5.16699 12 -15.5 18s-15.5 13 -15.5 21c0 5.33301 1.66699 9.33301 5 12
s10.333 4 21 4h92c9.33301 0 15.833 -1 19.5 -3s5.5 -6.66699 5.5 -14c0 -8 -5.66699 -15.167 -17 -21.5s-19 -11.166 -23 -14.499s-9.66699 -10.333 -17 -21l-116 -145l113 -133c14 -18.667 24.5 -32 31.5 -40s12.833 -14.167 17.5 -18.5s10.5 -8.16602 17.5 -11.499
l20 -9.5c6.33301 -3 10.166 -5.66699 11.499 -8s2 -6.5 2 -12.5c0 -8.66699 -2.5 -14.334 -7.5 -17.001s-11.833 -4 -20.5 -4h-120c-16.667 0 -25 6.33301 -25 19c0 6 4.16699 12.833 12.5 20.5s12.5 14.167 12.5 19.5c0 9.33301 -14.333 30.333 -43 63l-56 60l-17 18
c-20 -21.333 -38.667 -42.666 -56 -63.999c-26.667 -33.333 -40 -56.666 -40 -69.999c0 -10 6.16699 -18.5 18.5 -25.5s18.5 -14.5 18.5 -22.5c0 -7.33301 -2.33301 -12.166 -7 -14.499s-11.334 -3.5 -20.001 -3.5h-113c-14 0 -21 7 -21 21
c0 5.33301 1.5 9.66602 4.5 12.999s7.5 6 13.5 8c13.333 6.66699 22 11.667 26 15s11 12 21 26z" />
    <glyph glyph-name="y" unicode="y" horiz-adv-x="480" 
d="M46 331l-5.99609 47.9961c-2.66699 18 -4.33398 28.333 -5.00098 31c-3.33301 10 -9.33301 18 -18 24c-4 2.66699 -7.83301 5.66699 -11.5 9s-5.5 7.33301 -5.5 12c0 8.66699 2.83301 13.834 8.5 15.501s11.5 2.5 17.5 2.5h106c6.66699 0 12.167 -1.16699 16.5 -3.5
s6.5 -6.5 6.5 -12.5c0 -6.66699 -4 -13.334 -12 -20.001c-18 -14.667 -27 -34.334 -27 -59.001c0 -18.667 4.5 -49 13.5 -91s17.5 -74 25.5 -96c6 -15.333 13.333 -30.666 22 -45.999s18 -28.333 28 -39c6.66699 -8 15.667 -15.833 27 -23.5s21.666 -11.5 30.999 -11.5
c20 0 37.667 12 53 36c9.33301 14 18.333 35 27 63c9.33301 26 18.833 58.833 28.5 98.5s14.5 71.834 14.5 96.501c0 36 -10.667 59.667 -32 71c-10.667 5.33301 -16 12.666 -16 21.999c0 10 7.33301 15 22 15h88c14.667 0 22 -4.66699 22 -14l-3 -14
c-5.33301 -10.667 -9.5 -19.5 -12.5 -26.5s-5.16699 -15.5 -6.5 -25.5l-14 -85c-8 -49.333 -22.333 -102.166 -43 -158.499s-44 -108.166 -70 -155.499c-28.667 -51.333 -61.334 -94.666 -98.001 -129.999c-48 -46 -95.667 -69 -143 -69c-14.667 0 -27.5 3.33301 -38.5 10
s-16.5 17 -16.5 31c0 9.33301 3.33301 17.666 10 24.999s15 11 25 11c5.33301 0 14 -1.33301 26 -4s21.333 -4 28 -4c30 0 63.333 20 100 60c34 36.667 56 71.667 66 105c-11.333 -4 -19.666 -6.66699 -24.999 -8s-12.333 -2 -21 -2c-26.667 0 -52.334 11.667 -77.001 35
c-20 18.667 -37 41.834 -51 69.501s-26.333 60.334 -37 98.001s-18.334 74.167 -23.001 109.5z" />
    <glyph glyph-name="z" unicode="z" horiz-adv-x="420" 
d="M334 0l-251 -0.00390625c-18 0 -31 1.33301 -39 4c-14.667 4.66699 -22 14.334 -22 29.001c0 20 26 62.667 78 128c30 36 48.333 58.333 55 67l119 145c8 10 12.667 16 14 18c5.33301 8 8 15 8 21c0 7.33301 -6.66699 11 -20 11h-13h-82
c-21.333 0 -35.333 -0.666992 -42 -2c-20 -4 -37.667 -17 -53 -39c-3.33301 -4.66699 -7.16602 -9.66699 -11.499 -15s-8.83301 -8 -13.5 -8c-8 0 -12 6.33301 -12 19c0 2.66699 0.333008 6.66699 1 12s1 8.33301 1 9l8.5 41c3 14 5.83301 22.833 8.5 26.5
s8.33398 5.66699 17.001 6s14.667 0.5 18 0.5h240h18c12.667 0 22.667 -1.66699 30 -5s11 -10.333 11 -21c0 -14.667 -8.66699 -35 -26 -61c-7.33301 -11.333 -21.333 -29.666 -42 -54.999l-123 -151l-65 -83c-4 -4 -7.5 -9.16699 -10.5 -15.5s-4.5 -12.166 -4.5 -17.499
c0 -9.33301 10 -14 30 -14h133c13.333 0 26 7 38 21c11.333 16 19.166 26.667 23.499 32s8.16602 9.66602 11.499 12.999c6.66699 6 12.667 9 18 9c7.33301 0 11 -4.33301 11 -13c0 -11.333 -1.66699 -27.666 -5 -48.999s-6.83301 -36.166 -10.5 -44.499
s-9.16699 -13.5 -16.5 -15.5s-17.333 -3 -30 -3z" />
    <glyph glyph-name="braceleft" unicode="{" horiz-adv-x="300" 
d="M187 187l-0.00195312 -196.002c0 -32.667 5.66699 -58 17 -76s32 -31.667 62 -41c-27.333 0 -48.666 1.33301 -63.999 4s-30.666 10.334 -45.999 23.001c-15.333 11.333 -25.5 26 -30.5 44s-7.5 40 -7.5 66v194v11c0 15.333 -1.16699 27.333 -3.5 36
s-8.16602 19 -17.499 31c-14.667 17.333 -34.667 29.333 -60 36c18 2 35.333 9.66699 52 23c13.333 10.667 22 24 26 40c2 8.66699 3 25.334 3 50.001v172c0 58.667 10 98.834 30 120.501s59.333 32.5 118 32.5c-29.333 -8 -49.833 -21.167 -61.5 -39.5
s-17.5 -43.833 -17.5 -76.5v-182c0 -42 -5 -72.667 -15 -92c-12.667 -24.667 -37.334 -40.667 -74.001 -48c34.667 -8.66699 58.667 -24 72 -46c11.333 -18.667 17 -47.334 17 -86.001z" />
    <glyph glyph-name="bar" unicode="|" horiz-adv-x="660" 
d="M0 0h302v757h63v-757h-365z" />
    <glyph glyph-name="braceright" unicode="}" horiz-adv-x="300" 
d="M117 459v182.002c0 31.333 -6 56.5 -18 75.5s-32.333 32.5 -61 40.5c58 0 97.167 -10.833 117.5 -32.5s30.5 -61.834 30.5 -120.501v-172c0 -24 1.5 -42.333 4.5 -55s11.167 -24.334 24.5 -35.001c16.667 -13.333 34 -21 52 -23
c-12.667 -3.33301 -23.834 -7.66602 -33.501 -12.999s-19 -13.5 -28 -24.5s-14.5 -21.333 -16.5 -31s-3 -24.834 -3 -45.501v-194c0 -34 -3.16699 -58.5 -9.5 -73.5s-15.833 -27.167 -28.5 -36.5c-15.333 -12 -31.5 -19.5 -48.5 -22.5s-37.5 -4.5 -61.5 -4.5
c30.667 10 51.5 23.667 62.5 41s16.5 42.666 16.5 75.999v196c0 38 6.16699 67.333 18.5 88s35.833 35.334 70.5 44.001c-35.333 7.33301 -59.666 23.333 -72.999 48c-10.667 20 -16 50.667 -16 92z" />
    <glyph glyph-name="asciitilde" unicode="~" horiz-adv-x="660" 
d="M561 333l47.9971 -30c-31.333 -44 -57.666 -72.5 -78.999 -85.5s-44.666 -19.5 -69.999 -19.5c-17.333 0 -34.333 2.33301 -51 7c-7.33301 2 -24 8 -50 18l-55 20l-46 17c-19.333 6.66699 -35.666 10 -48.999 10c-24.667 0 -46.667 -8.33301 -66 -25
c-12.667 -10.667 -27.667 -29.667 -45 -57l-47 31c24 36.667 45.333 62.667 64 78c27.333 22 59 33 95 33c28 0 71.833 -11.833 131.5 -35.5s98.5 -35.5 116.5 -35.5c22.667 0 43 7.66699 61 23c12 10 26 27 42 51z" />
    <glyph glyph-name="c142" horiz-adv-x="300" 
 />
    <glyph glyph-name="c142" unicode="&#x40b;" horiz-adv-x="300" 
 />
    <glyph glyph-name="c144" horiz-adv-x="560" 
d="M412 72l-0.000976562 267l-258 -248v-19c0 -9.33301 3.5 -16.333 10.5 -21s13.833 -7 20.5 -7c6.66699 -2.66699 11.667 -5.33398 15 -8.00098s5 -7 5 -13c0 -7.33301 -2.33301 -13 -7 -17s-11 -6 -19 -6h-111c-7.33301 -0.666992 -13 -1 -17 -1
c-7.33301 0 -13 1.5 -17 4.5s-6 9.5 -6 19.5c0 8.66699 6 15.334 18 20.001c7.33301 0 13.666 1.66699 18.999 5c9.33301 5.33301 14 13.333 14 24v329c0 7.33301 -3.16699 14 -9.5 20s-14.166 9 -23.499 9c-8 3.33301 -13 6.33301 -15 9s-3 6.33398 -3 11.001
c0 11.333 2.83301 18.166 8.5 20.499s10.834 3.5 15.501 3.5c7.33301 -0.666992 12.666 -1 15.999 -1h111c17.333 0 26 -7.66699 26 -23c0 -6 -1.66699 -10.333 -5 -13s-8.33301 -5.33398 -15 -8.00098c-6.66699 0 -13.5 -2.33301 -20.5 -7s-10.5 -11.667 -10.5 -21v-248
l258 248c0 15.333 -8.16699 24.833 -24.5 28.5s-24.5 10.5 -24.5 20.5c0 9.33301 2 15.5 6 18.5s10 4.5 18 4.5h14h110c6.66699 0 12.5 -2.16699 17.5 -6.5s7.5 -9.83301 7.5 -16.5c0 -5.33301 -1.33301 -9.33301 -4 -12s-7.16699 -5.5 -13.5 -8.5s-12.5 -5.5 -18.5 -7.5
c-8.66699 -4.66699 -13 -11.667 -13 -21v-329c0 -9.33301 4 -16.333 12 -21c2 -0.666992 8.33301 -3 19 -7c12 -3.33301 18 -10.333 18 -21c0 -5.33301 -1.33301 -9.66602 -4 -12.999c-4.66699 -6.66699 -11.667 -10 -21 -10h-110c-13.333 0 -23 1 -29 3s-9 8.66699 -9 20
c0 12 4.83301 18.5 14.5 19.5s16.834 3.16699 21.501 6.5c8.66699 5.33301 13 13 13 23z" />
    <glyph glyph-name="c144" unicode="&#x452;" horiz-adv-x="560" 
d="M412 72l-0.000976562 267l-258 -248v-19c0 -9.33301 3.5 -16.333 10.5 -21s13.833 -7 20.5 -7c6.66699 -2.66699 11.667 -5.33398 15 -8.00098s5 -7 5 -13c0 -7.33301 -2.33301 -13 -7 -17s-11 -6 -19 -6h-111c-7.33301 -0.666992 -13 -1 -17 -1
c-7.33301 0 -13 1.5 -17 4.5s-6 9.5 -6 19.5c0 8.66699 6 15.334 18 20.001c7.33301 0 13.666 1.66699 18.999 5c9.33301 5.33301 14 13.333 14 24v329c0 7.33301 -3.16699 14 -9.5 20s-14.166 9 -23.499 9c-8 3.33301 -13 6.33301 -15 9s-3 6.33398 -3 11.001
c0 11.333 2.83301 18.166 8.5 20.499s10.834 3.5 15.501 3.5c7.33301 -0.666992 12.666 -1 15.999 -1h111c17.333 0 26 -7.66699 26 -23c0 -6 -1.66699 -10.333 -5 -13s-8.33301 -5.33398 -15 -8.00098c-6.66699 0 -13.5 -2.33301 -20.5 -7s-10.5 -11.667 -10.5 -21v-248
l258 248c0 15.333 -8.16699 24.833 -24.5 28.5s-24.5 10.5 -24.5 20.5c0 9.33301 2 15.5 6 18.5s10 4.5 18 4.5h14h110c6.66699 0 12.5 -2.16699 17.5 -6.5s7.5 -9.83301 7.5 -16.5c0 -5.33301 -1.33301 -9.33301 -4 -12s-7.16699 -5.5 -13.5 -8.5s-12.5 -5.5 -18.5 -7.5
c-8.66699 -4.66699 -13 -11.667 -13 -21v-329c0 -9.33301 4 -16.333 12 -21c2 -0.666992 8.33301 -3 19 -7c12 -3.33301 18 -10.333 18 -21c0 -5.33301 -1.33301 -9.66602 -4 -12.999c-4.66699 -6.66699 -11.667 -10 -21 -10h-110c-13.333 0 -23 1 -29 3s-9 8.66699 -9 20
c0 12 4.83301 18.5 14.5 19.5s16.834 3.16699 21.501 6.5c8.66699 5.33301 13 13 13 23z" />
    <glyph glyph-name="nonbreakingspace" unicode="&#xa0;" horiz-adv-x="500" 
 />
    <glyph glyph-name="currency" unicode="&#xa4;" 
d="M459 576l48.002 48.998c4.66699 4.66699 9.66699 9.33398 15 14.001s11 7 17 7c6.66699 0 13.334 -3.33301 20.001 -10s10 -13.667 10 -21s-4 -14.333 -12 -21l-57 -58c22.667 -32 38.667 -60.167 48 -84.5s14 -54.5 14 -90.5c0 -59.333 -17.667 -110.666 -53 -153.999
l49 -49c8.66699 -8 14.167 -13.667 16.5 -17s3.5 -7.66602 3.5 -12.999c0 -7.33301 -3.83301 -14.833 -11.5 -22.5s-14.834 -11.5 -21.501 -11.5c-5.33301 0 -10.333 1.83301 -15 5.5s-10 8.83398 -16 15.501l-49 48c-23.333 -18 -49.333 -32.167 -78 -42.5
s-57.334 -15.5 -86.001 -15.5s-57 5 -85 15s-53.667 23.667 -77 41l-53 -53c-10.667 -10 -16.334 -15 -17.001 -15c-4.66699 -3.33301 -9.33398 -5 -14.001 -5c-7.33301 0 -14.166 3.16699 -20.499 9.5s-9.5 13.166 -9.5 20.499c0 6 2 11.667 6 17l14 14l53 53
c-20 24 -35.167 51 -45.5 81s-15.5 61.333 -15.5 94c0 27.333 4.5 54.333 13.5 81s22.167 50 39.5 70l-49 49c-4.66699 4 -9.16699 8.5 -13.5 13.5s-6.5 10.833 -6.5 17.5c0 7.33301 3.16699 14.166 9.5 20.499s13.5 9.5 21.5 9.5c7.33301 0 17 -6 29 -18l49 -51
c21.333 20.667 46.333 36.167 75 46.5s58.667 15.5 90 15.5c60 0 114.667 -18.333 164 -55zM487.002 367.998c0 53.333 -18.668 98.001 -56.001 134.001s-82.666 54 -135.999 54c-51.333 0 -95 -18.667 -131 -56s-54 -82 -54 -134c0 -52.667 18.667 -97 56 -133
s82 -54 134 -54c51.333 0 95.333 18.667 132 56s55 81.666 55 132.999z" />
    <glyph glyph-name="yen" unicode="&#xa5;" 
d="M390 472l39.999 74.9971c8 15.333 16.333 32.333 25 51c12.667 27.333 19 45 19 53c0 14 -10 26.667 -30 38c-10 6 -15 14 -15 24c0 8 2.5 13.167 7.5 15.5s11.5 3.5 19.5 3.5h106c12 0 18 -7.33301 18 -22c0 -6 -2.16699 -12 -6.5 -18l-9.5 -13
c-10 -13.333 -17.833 -24.833 -23.5 -34.5s-10.167 -18.167 -13.5 -25.5l-138 -241h81c9.33301 0 15.5 -1 18.5 -3s4.5 -8 4.5 -18c0 -13.333 -3.66699 -21.666 -11 -24.999c-2.66699 -1.33301 -11 -2 -25 -2h-99l-17 -29v-38h120h12c6.66699 0 11.5 -1.16699 14.5 -3.5
s4.5 -8.5 4.5 -18.5c0 -12 -2.5 -19.333 -7.5 -22s-13.5 -4 -25.5 -4h-118v-128c0 -10 4.66699 -19.667 14 -29c6 -6 13.333 -10.833 22 -14.5s14 -7.16699 16 -10.5s3 -8.33301 3 -15c0 -7.33301 -2 -12.166 -6 -14.499s-9.66699 -3.5 -17 -3.5h-138
c-5.33301 0 -9.83301 2.16699 -13.5 6.5s-5.5 9.83301 -5.5 16.5s1.66699 11.334 5 14.001s8.33301 5 15 7c14.667 4.66699 24.334 16 29.001 34c2.66699 10.667 4 28.667 4 54v83h-122c-12 0 -19.333 0.666992 -22 2c-6 3.33301 -9 11.333 -9 24c0 10 2 16.167 6 18.5
s10.667 3.5 20 3.5h18h109v29l-25 38h-92h-15c-7.33301 0 -12 0.333008 -14 1c-7.33301 2.66699 -11 11.667 -11 27c0 13.333 7.33301 20 22 20h79l-141 249c-6 12.667 -11 22.334 -15 29.001c-7.33301 12 -13.833 19.333 -19.5 22s-10.834 5 -15.501 7
c-9.33301 5.33301 -14 14 -14 26c0 14 7.33301 21 22 21h112c11.333 0 19 -2 23 -6s6 -10 6 -18c0 -7.33301 -4 -13.666 -12 -18.999c-17.333 -11.333 -26 -21.333 -26 -30c0 -10 10.333 -34.333 31 -73l40 -71l102 -168c16 19.333 30.833 39.166 44.5 59.499
s26.834 42.166 39.501 65.499z" />
    <glyph glyph-name="yen" unicode="&#x490;" 
d="M390 472l39.999 74.9971c8 15.333 16.333 32.333 25 51c12.667 27.333 19 45 19 53c0 14 -10 26.667 -30 38c-10 6 -15 14 -15 24c0 8 2.5 13.167 7.5 15.5s11.5 3.5 19.5 3.5h106c12 0 18 -7.33301 18 -22c0 -6 -2.16699 -12 -6.5 -18l-9.5 -13
c-10 -13.333 -17.833 -24.833 -23.5 -34.5s-10.167 -18.167 -13.5 -25.5l-138 -241h81c9.33301 0 15.5 -1 18.5 -3s4.5 -8 4.5 -18c0 -13.333 -3.66699 -21.666 -11 -24.999c-2.66699 -1.33301 -11 -2 -25 -2h-99l-17 -29v-38h120h12c6.66699 0 11.5 -1.16699 14.5 -3.5
s4.5 -8.5 4.5 -18.5c0 -12 -2.5 -19.333 -7.5 -22s-13.5 -4 -25.5 -4h-118v-128c0 -10 4.66699 -19.667 14 -29c6 -6 13.333 -10.833 22 -14.5s14 -7.16699 16 -10.5s3 -8.33301 3 -15c0 -7.33301 -2 -12.166 -6 -14.499s-9.66699 -3.5 -17 -3.5h-138
c-5.33301 0 -9.83301 2.16699 -13.5 6.5s-5.5 9.83301 -5.5 16.5s1.66699 11.334 5 14.001s8.33301 5 15 7c14.667 4.66699 24.334 16 29.001 34c2.66699 10.667 4 28.667 4 54v83h-122c-12 0 -19.333 0.666992 -22 2c-6 3.33301 -9 11.333 -9 24c0 10 2 16.167 6 18.5
s10.667 3.5 20 3.5h18h109v29l-25 38h-92h-15c-7.33301 0 -12 0.333008 -14 1c-7.33301 2.66699 -11 11.667 -11 27c0 13.333 7.33301 20 22 20h79l-141 249c-6 12.667 -11 22.334 -15 29.001c-7.33301 12 -13.833 19.333 -19.5 22s-10.834 5 -15.501 7
c-9.33301 5.33301 -14 14 -14 26c0 14 7.33301 21 22 21h112c11.333 0 19 -2 23 -6s6 -10 6 -18c0 -7.33301 -4 -13.666 -12 -18.999c-17.333 -11.333 -26 -21.333 -26 -30c0 -10 10.333 -34.333 31 -73l40 -71l102 -168c16 19.333 30.833 39.166 44.5 59.499
s26.834 42.166 39.501 65.499z" />
    <glyph glyph-name="brokenbar" unicode="&#xa6;" horiz-adv-x="660" 
d="M0 0h302v284h63v-284h-365zM302 473v284h63v-284h-63z" />
    <glyph glyph-name="section" unicode="&#xa7;" horiz-adv-x="520" 
d="M265 111l-82.998 24c-24.667 6.66699 -44.334 13.334 -59.001 20.001c-22.667 10 -40.334 21.333 -53.001 34c-14.667 14.667 -26.334 31.5 -35.001 50.5s-13 38.833 -13 59.5c0 28 8.66699 55.333 26 82c14 21.333 34 43.333 60 66c-33.333 38.667 -50 77.667 -50 117
c0 54 22.667 98.667 68 134c42 32.667 90.667 49 146 49c29.333 0 55 -3.16699 77 -9.5s47.333 -16.833 76 -31.5c15.333 -8.66699 24.333 -15.834 27 -21.501s6 -19.834 10 -42.501l8 -47c1.33301 -8 2 -14.667 2 -20c0 -9.33301 -1.83301 -15.5 -5.5 -18.5
s-8.83398 -4.5 -15.501 -4.5c-4.66699 0 -8.5 1.5 -11.5 4.5s-5.83301 7.5 -8.5 13.5c-17.333 38.667 -37 68.334 -59 89.001c-28 26 -61 39 -99 39c-35.333 0 -67 -9.33301 -95 -28c-32.667 -21.333 -49 -49 -49 -83c0 -30.667 15 -56.667 45 -78
c20.667 -14.667 50 -27.667 88 -39l65 -19c54 -16.667 93 -33.667 117 -51c37.333 -27.333 56 -63.666 56 -108.999c0 -30 -7.33301 -59 -22 -87c-9.33301 -18.667 -26.666 -44 -51.999 -76c17.333 -21.333 29.833 -40.333 37.5 -57s11.5 -36.667 11.5 -60
c0 -29.333 -6.16699 -57 -18.5 -83s-30.166 -49.333 -53.499 -70c-20.667 -18 -45.334 -32.167 -74.001 -42.5s-57.667 -15.5 -87 -15.5c-24 0 -47 3 -69 9s-44 14.667 -66 26c-12 6 -19.667 10.333 -23 13c-5.33301 4.66699 -9.66602 12.334 -12.999 23.001
c-5.33301 15.333 -11.666 37.666 -18.999 66.999s-11 49 -11 59c0 15.333 7.33301 23 22 23c3.33301 0 19.666 -27.833 48.999 -83.5s73 -83.5 131 -83.5c40 0 75.333 11.667 106 35c33.333 25.333 50 57.666 50 96.999c0 32.667 -15 60.667 -45 84
c-22 17.333 -51.667 31.333 -89 42zM222.002 212l71.9961 -20.002c20.667 -6 38.334 -11.5 53.001 -16.5s28.667 -11.833 42 -20.5l25 48.5c8.66699 17 13 33.5 13 49.5c0 13.333 -2.66699 26.5 -8 39.5s-12.666 24 -21.999 33s-21.333 16.833 -36 23.5
c-9.33301 4 -22.666 8.66699 -39.999 14l-105 29c-20 5.33301 -33.5 9.33301 -40.5 12s-17.5 8.33398 -31.5 17.001c-15.333 -17.333 -26 -32 -32 -44c-8 -15.333 -12 -33 -12 -53c0 -31.333 13 -56.666 39 -75.999c18.667 -14 46.334 -26 83.001 -36z" />
    <glyph glyph-name="dieresis" unicode="&#xa8;" 
d="M198 801c-14.667 0 -27.499 5.16699 -38.499 15.5s-16.5 22.5 -16.5 36.5c0 16.667 5.16699 30.5 15.5 41.5s23.5 16.5 39.5 16.5s29 -5.33301 39 -16s15 -23.667 15 -39c0 -14 -5.33301 -26.667 -16 -38s-23.334 -17 -38.001 -17zM403.001 801
c-14.667 0 -27.499 5.16699 -38.499 15.5s-16.5 22.5 -16.5 36.5c0 16.667 5.16699 30.5 15.5 41.5s23.5 16.5 39.5 16.5s29 -5.33301 39 -16s15 -23.667 15 -39c0 -14 -5.33301 -26.667 -16 -38s-23.334 -17 -38.001 -17zM178.002 368l0.00195312 -196.004
c0 -45.333 4.66699 -75.666 14 -90.999c12 -19.333 36.667 -29 74 -29h150c24 0 45.5 4.66699 64.5 14s37.833 23 56.5 41c10.667 9.33301 16.334 14.333 17.001 15c8.66699 6.66699 15.334 10 20.001 10c10.667 0 16 -5.66699 16 -17c0 -6.66699 -1.66699 -18.667 -5 -36
s-5 -27 -5 -29c-4.66699 -26.667 -8.66699 -41.667 -12 -45s-16 -5 -38 -5h-466c-10.667 0 -19.167 1.33301 -25.5 4s-9.5 9 -9.5 19c0 6.66699 2.16699 11.667 6.5 15s10.166 6.33301 17.499 9c18 6 28.333 11.667 31 17s4 19.333 4 42v528c0 14.667 -2 26.334 -6 35.001
s-12.667 14 -26 16c-10 2.66699 -16.333 5 -19 7c-5.33301 4 -8 10 -8 18c0 7.33301 2.33301 12.833 7 16.5s14.334 5.5 29.001 5.5h443c11.333 -2.66699 19.666 -8.16699 24.999 -16.5s9 -18.833 11 -31.5l8 -61c-1.33301 -10.667 -7 -16 -17 -16
c-7.33301 0 -13 2.66699 -17 8c-14.667 18.667 -31.334 33.667 -50.001 45c-22 13.333 -43.333 20 -64 20h-161c-24.667 0 -41.667 -5.66699 -51 -17s-14 -31.666 -14 -60.999v-182h192c19.333 0 33.333 1.66699 42 5s17 8.33301 25 15c2.66699 2.66699 5.66699 5.5 9 8.5
s7.66602 4.5 12.999 4.5c8 0 13.5 -4.5 16.5 -13.5s4.5 -19.833 4.5 -32.5c-0.666992 -14 -1 -22.667 -1 -26c0 -17.333 -0.333008 -27 -1 -29c-2.66699 -10 -10.334 -15 -23.001 -15c-6 0 -13.5 4.33301 -22.5 13s-17 13.834 -24 15.501s-18.167 2.5 -33.5 2.5h-197z" />
    <glyph glyph-name="dieresis" unicode="&#x401;" 
d="M198 801c-14.667 0 -27.499 5.16699 -38.499 15.5s-16.5 22.5 -16.5 36.5c0 16.667 5.16699 30.5 15.5 41.5s23.5 16.5 39.5 16.5s29 -5.33301 39 -16s15 -23.667 15 -39c0 -14 -5.33301 -26.667 -16 -38s-23.334 -17 -38.001 -17zM403.001 801
c-14.667 0 -27.499 5.16699 -38.499 15.5s-16.5 22.5 -16.5 36.5c0 16.667 5.16699 30.5 15.5 41.5s23.5 16.5 39.5 16.5s29 -5.33301 39 -16s15 -23.667 15 -39c0 -14 -5.33301 -26.667 -16 -38s-23.334 -17 -38.001 -17zM178.002 368l0.00195312 -196.004
c0 -45.333 4.66699 -75.666 14 -90.999c12 -19.333 36.667 -29 74 -29h150c24 0 45.5 4.66699 64.5 14s37.833 23 56.5 41c10.667 9.33301 16.334 14.333 17.001 15c8.66699 6.66699 15.334 10 20.001 10c10.667 0 16 -5.66699 16 -17c0 -6.66699 -1.66699 -18.667 -5 -36
s-5 -27 -5 -29c-4.66699 -26.667 -8.66699 -41.667 -12 -45s-16 -5 -38 -5h-466c-10.667 0 -19.167 1.33301 -25.5 4s-9.5 9 -9.5 19c0 6.66699 2.16699 11.667 6.5 15s10.166 6.33301 17.499 9c18 6 28.333 11.667 31 17s4 19.333 4 42v528c0 14.667 -2 26.334 -6 35.001
s-12.667 14 -26 16c-10 2.66699 -16.333 5 -19 7c-5.33301 4 -8 10 -8 18c0 7.33301 2.33301 12.833 7 16.5s14.334 5.5 29.001 5.5h443c11.333 -2.66699 19.666 -8.16699 24.999 -16.5s9 -18.833 11 -31.5l8 -61c-1.33301 -10.667 -7 -16 -17 -16
c-7.33301 0 -13 2.66699 -17 8c-14.667 18.667 -31.334 33.667 -50.001 45c-22 13.333 -43.333 20 -64 20h-161c-24.667 0 -41.667 -5.66699 -51 -17s-14 -31.666 -14 -60.999v-182h192c19.333 0 33.333 1.66699 42 5s17 8.33301 25 15c2.66699 2.66699 5.66699 5.5 9 8.5
s7.66602 4.5 12.999 4.5c8 0 13.5 -4.5 16.5 -13.5s4.5 -19.833 4.5 -32.5c-0.666992 -14 -1 -22.667 -1 -26c0 -17.333 -0.333008 -27 -1 -29c-2.66699 -10 -10.334 -15 -23.001 -15c-6 0 -13.5 4.33301 -22.5 13s-17 13.834 -24 15.501s-18.167 2.5 -33.5 2.5h-197z" />
    <glyph glyph-name="copyright" unicode="&#xa9;" horiz-adv-x="840" 
d="M53 366c0 104.667 35.667 194.332 107 268.999s157.666 112 258.999 112c102 0 188.667 -37 260 -111s107 -164 107 -270c0 -105.333 -35.833 -195.166 -107.5 -269.499s-158.167 -111.5 -259.5 -111.5s-187.666 37 -258.999 111s-107 164 -107 270zM742 365.998
c0 93.333 -31.5 172.833 -94.5 238.5s-139.167 98.5 -228.5 98.5c-88 0 -163.667 -33 -227 -99s-95 -145.333 -95 -238s31.333 -172 94 -238s138.667 -99 228 -99c88.667 0 164.667 33 228 99s95 145.333 95 238zM545 240.998c6 9.33301 10.334 15.3311 13.001 17.998
c5.33301 5.33301 12 8 20 8c6.66699 0 12.667 -2.83301 18 -8.5s8 -12.167 8 -19.5c0 -8 -2.5 -16.667 -7.5 -26s-10.833 -17.666 -17.5 -24.999c-18 -22 -40 -38.5 -66 -49.5s-53.667 -16.5 -83 -16.5c-65.333 0 -118 25 -158 75c-37.333 46.667 -56 104.667 -56 174
c0 65.333 18.667 122 56 170c40 51.333 90.667 77 152 77c25.333 0 51.166 -3.83301 77.499 -11.5s48.5 -19.167 66.5 -34.5c7.33301 -6 11.833 -14.5 13.5 -25.5s2.5 -24.167 2.5 -39.5c0.666992 -4 1 -10.667 1 -20c0 -10 -1.66699 -17.5 -5 -22.5s-10 -7.5 -20 -7.5
c-7.33301 0 -21 17.667 -41 53s-52 53 -96 53c-44.667 0 -78 -22 -100 -66c-17.333 -34.667 -26 -77.667 -26 -129s10.667 -93.666 32 -126.999c25.333 -40 61.333 -60 108 -60c25.333 0 46 4.5 62 13.5s31.333 24.5 46 46.5z" />
    <glyph glyph-name="guillemotleft" unicode="&#xab;" horiz-adv-x="340" 
d="M147 401l-40.998 -101.001c-2 -6 -3 -12 -3 -18c0 -6.66699 1 -12.667 3 -18l41 -95l7.5 -19.5c2.33301 -6.33301 3.5 -10.166 3.5 -11.499c0 -4 -1.5 -7.83301 -4.5 -11.5s-6.5 -5.5 -10.5 -5.5c-7.33301 0 -15.333 5.66699 -24 17l-10 15l-66 97
c-2.66699 4 -6.33398 9.83301 -11.001 17.5s-7 13.5 -7 17.5c0 3.33301 2.33301 8.5 7 15.5s7.66699 11.833 9 14.5l68 105c4 6 8.66699 12.5 14 19.5s11.666 10.5 18.999 10.5c10.667 0 16 -5 16 -15c0 -4 -1.66699 -10 -5 -18s-5.33301 -13.333 -6 -16zM295.002 400.999
l-40.998 -101.001c-2 -6 -3 -12 -3 -18c0 -6.66699 1 -12.667 3 -18l41 -95l7.5 -19.5c2.33301 -6.33301 3.5 -10.166 3.5 -11.499c0 -4 -1.5 -7.83301 -4.5 -11.5s-6.5 -5.5 -10.5 -5.5c-7.33301 0 -15.333 5.66699 -24 17l-10 15l-66 97
c-2.66699 4 -6.33398 9.83301 -11.001 17.5s-7 13.5 -7 17.5c0 3.33301 2.33301 8.5 7 15.5s7.66699 11.833 9 14.5l68 105c4 6 8.66699 12.5 14 19.5s11.666 10.5 18.999 10.5c10.667 0 16 -5 16 -15c0 -4 -1.66699 -10 -5 -18s-5.33301 -13.333 -6 -16z" />
    <glyph glyph-name="logicalnot" unicode="&#xac;" horiz-adv-x="660" 
d="M528 52v253h-458v63h520v-316h-62z" />
    <glyph glyph-name="registered" unicode="&#xae;" horiz-adv-x="800" 
d="M40 366c0 104.667 35.667 194.334 107 269.001s157.666 112 258.999 112s187.666 -37 258.999 -111s107 -164 107 -270c0 -104.667 -35.667 -194.334 -107 -269.001s-157.666 -112 -258.999 -112s-187.666 37 -258.999 111s-107 164 -107 270zM84 366
c0 -92.667 31.333 -172 94 -238s138.667 -99 228 -99s165.333 33 228 99s94 145.333 94 238s-31.333 172 -94 238s-138.667 99 -228 99s-165.333 -33 -228 -99s-94 -145.333 -94 -238zM321 325l-0.000976562 -105.999c-0.666992 -8 -1 -13.667 -1 -17
c0 -8.66699 5.5 -14.5 16.5 -17.5s18 -6.33301 21 -10s4.5 -9.16699 4.5 -16.5c0 -10.667 -3.5 -17.334 -10.5 -20.001s-16.833 -4 -29.5 -4h-67c-15.333 0 -24.666 0.666992 -27.999 2c-8.66699 3.33301 -13 11.333 -13 24c0 12 5.83301 19.5 17.5 22.5
s17.5 18.833 17.5 47.5v303c0 12 -4 19.333 -12 22s-13.833 5.33398 -17.5 8.00098s-5.5 8 -5.5 16c0 12.667 3.16699 20.167 9.5 22.5s16.833 3.5 31.5 3.5h180c22 0 40.667 -1.66699 56 -5s30 -10.333 44 -21c30 -22 45 -51 45 -87c0 -26.667 -9.33301 -51.667 -28 -75
c-16 -20 -37.333 -36.667 -64 -50c20 -25.333 35.667 -47.666 47 -66.999c14 -23.333 25.667 -48.333 35 -75c3.33301 -8.66699 6.83301 -16.834 10.5 -24.501s8.66699 -13.5 15 -17.5s11.833 -7.33301 16.5 -10c3.33301 -3.33301 5 -8.33301 5 -15
c0 -10.667 -3.5 -17.334 -10.5 -20.001s-16.5 -4 -28.5 -4h-66h-20c-13.333 2 -20 10 -20 24c0 9.33301 7 17 21 23c6.66699 2.66699 10 6.66699 10 12c0 19.333 -10.333 46.333 -31 81c-18 30 -35.667 54 -53 72zM320.999 523.001v-142c48 7.33301 86 17 114 29
c48 20 72 46.333 72 79c0 28.667 -14.333 48 -43 58c-18 6 -44.333 9 -79 9c-4.66699 0 -9.66699 0.333008 -15 1s-9.33301 1 -12 1c-14 0 -23.667 -2.66699 -29 -8s-8 -14.333 -8 -27z" />
    <glyph glyph-name="degree" unicode="&#xb0;" horiz-adv-x="400" 
d="M350 600c0 -41.333 -14.667 -76.666 -44 -105.999s-64.666 -44 -105.999 -44s-76.666 14.667 -105.999 44s-44 64.666 -44 105.999s14.667 76.666 44 105.999s64.666 44 105.999 44s76.666 -14.667 105.999 -44s44 -64.666 44 -105.999zM97 600c0 -28.667 10 -53 30 -73
s44.333 -30 73 -30c28 0 52.167 9.83301 72.5 29.5s30.5 44.167 30.5 73.5c0 28 -10.167 52.167 -30.5 72.5s-44.833 30.5 -73.5 30.5c-28 0 -52 -10 -72 -30s-30 -44.333 -30 -73z" />
    <glyph glyph-name="plusminus" unicode="&#xb1;" horiz-adv-x="660" 
d="M70 355h229v165h63v-165h228v-63h-228v-166h-63v166h-229v63zM70 63h520v-63h-520v63z" />
    <glyph glyph-name="acute" unicode="&#xb4;" horiz-adv-x="320" 
d="M226 650l-105 -102c-6 -5.33301 -11.5 -10 -16.5 -14s-9.5 -6 -13.5 -6c-11.333 0 -17 5 -17 15c0 4.66699 1.33301 9.66699 4 15l6 12l50 90c2 5.33301 4.5 10.333 7.5 15s5.66699 7.66699 8 9s8.5 2.5 18.5 3.5s18.667 1.5 26 1.5l38 3c11.333 0 17 -4.33301 17 -13
c0 -4.66699 -3.33301 -10.167 -10 -16.5z" />
    <glyph glyph-name="acute" unicode="&#x491;" horiz-adv-x="320" 
d="M226 650l-105 -102c-6 -5.33301 -11.5 -10 -16.5 -14s-9.5 -6 -13.5 -6c-11.333 0 -17 5 -17 15c0 4.66699 1.33301 9.66699 4 15l6 12l50 90c2 5.33301 4.5 10.333 7.5 15s5.66699 7.66699 8 9s8.5 2.5 18.5 3.5s18.667 1.5 26 1.5l38 3c11.333 0 17 -4.33301 17 -13
c0 -4.66699 -3.33301 -10.167 -10 -16.5z" />
    <glyph glyph-name="mu" unicode="&#xb5;" horiz-adv-x="520" 
d="M390 180l0.000976562 166.999v23c0 14.667 -1.33301 25.834 -4 33.501s-9.66699 14.5 -21 20.5c-6 3.33301 -9.33301 5.33301 -10 6c-4 3.33301 -6 7.33301 -6 12c0 11.333 10.833 20.5 32.5 27.5s40.167 10.5 55.5 10.5c12 0 19.667 -4.66699 23 -14
s5 -21.666 5 -36.999v-12v-295c0 -24.667 0.666992 -42.5 2 -53.5s11.666 -19.5 30.999 -25.5c8.66699 -3.33301 14.334 -6.33301 17.001 -9s4 -6.66699 4 -12c0 -9.33301 -2 -15.333 -6 -18s-10.667 -4 -20 -4h-70c-8 0 -14.667 6.33301 -20 19s-8 29 -8 49
c-24 -25.333 -50.333 -45.5 -79 -60.5s-59 -22.5 -91 -22.5c-28 0 -54 7 -78 21v-159c0 -16.667 -3 -28 -9 -34s-15.667 -9 -29 -9s-22.833 2.83301 -28.5 8.5s-8.5 17.167 -8.5 34.5v489v18c0 21.333 -1.5 36.333 -4.5 45s-11.5 17 -25.5 25
c-6.66699 3.33301 -10.667 5.66602 -12 6.99902c-4 4 -6 8.66699 -6 14c0 8.66699 11.167 16.667 33.5 24s40.166 11 53.499 11c14.667 0 24.334 -5.16699 29.001 -15.5s7 -23.5 7 -39.5v-254c0 -21.333 0.5 -38 1.5 -50s4.83301 -24.5 11.5 -37.5s17.667 -23.5 33 -31.5
s31.666 -12 48.999 -12c22.667 0 45.667 4.83301 69 14.5s42.333 22.5 57 38.5c8.66699 9.33301 14.5 19 17.5 29s4.5 21 4.5 33v25z" />
    <glyph glyph-name="paragraph" unicode="&#xb6;" horiz-adv-x="720" 
d="M581 665l-0.00195312 -777.002v-19c0 -17.333 -1.66699 -29.333 -5 -36c-5.33301 -11.333 -15.666 -17 -30.999 -17c-17.333 0 -27.833 4.33301 -31.5 13s-5.5 23.334 -5.5 44.001v801h-66v-788v-23c0 -15.333 -1.66699 -26 -5 -32c-5.33301 -10 -15.333 -15 -30 -15
c-16.667 0 -27.167 5.83301 -31.5 17.5s-6.5 27.5 -6.5 47.5v372c-91.333 8.66699 -168.333 32.334 -231 71.001c-78.667 48.667 -118 114.667 -118 198c0 36 6.83301 68 20.5 96s34.834 51.667 63.501 71c21.333 14 46 24.667 74 32s69.333 11 124 11h349
c10.667 0 19.667 -3.66699 27 -11s11 -16.333 11 -27c0 -12 -4.66699 -21.167 -14 -27.5s-20.333 -9.5 -33 -9.5c-8 0 -19.167 1.16699 -33.5 3.5zM368.998 678.998l-30 -0.00195312c-66 0 -117 -9.66699 -153 -29c-47.333 -25.333 -71 -68.333 -71 -129
c0 -39.333 10 -73.666 30 -102.999c18 -26.667 45.333 -50 82 -70c24.667 -13.333 49 -24.166 73 -32.499s47 -12.5 69 -12.5v376z" />
    <glyph glyph-name="periodcentered" unicode="&#xb7;" horiz-adv-x="300" 
d="M149 143c-15.333 0 -27.998 5.33301 -37.998 16s-15 23.667 -15 39s5.16699 27.833 15.5 37.5s22.833 14.5 37.5 14.5c15.333 0 28.166 -5.16699 38.499 -15.5s15.5 -23.5 15.5 -39.5c0 -14.667 -5.33301 -27 -16 -37s-23.334 -15 -38.001 -15z" />
    <glyph glyph-name="periodcentered" unicode="&#x2219;" horiz-adv-x="300" 
d="M149 143c-15.333 0 -27.998 5.33301 -37.998 16s-15 23.667 -15 39s5.16699 27.833 15.5 37.5s22.833 14.5 37.5 14.5c15.333 0 28.166 -5.16699 38.499 -15.5s15.5 -23.5 15.5 -39.5c0 -14.667 -5.33301 -27 -16 -37s-23.334 -15 -38.001 -15z" />
    <glyph glyph-name="cedilla" unicode="&#xb8;" horiz-adv-x="500" 
d="M148 542c-14.667 0 -27.499 5.16699 -38.499 15.5s-16.5 22.5 -16.5 36.5c0 16.667 5.16699 30.5 15.5 41.5s23.5 16.5 39.5 16.5s29 -5.33301 39 -16s15 -23.667 15 -39c0 -14 -5.33301 -26.667 -16 -38s-23.334 -17 -38.001 -17zM353.001 542
c-14.667 0 -27.499 5.16699 -38.499 15.5s-16.5 22.5 -16.5 36.5c0 16.667 5.16699 30.5 15.5 41.5s23.5 16.5 39.5 16.5s29 -5.33301 39 -16s15 -23.667 15 -39c0 -14 -5.33301 -26.667 -16 -38s-23.334 -17 -38.001 -17zM133.002 176l-20.001 -2.00098
c7.33301 -40.667 26.333 -72.834 57 -96.501s67 -35.5 109 -35.5c36 0 68 8.66699 96 26l76 58c4.66699 0 9 -1.66699 13 -5s6 -7.66602 6 -12.999c0 -12.667 -7.66699 -27 -23 -43c-12 -13.333 -25.333 -24.666 -40 -33.999c-22 -15.333 -44.833 -26.833 -68.5 -34.5
s-48.834 -11.5 -75.501 -11.5c-66.667 0 -122.667 21.333 -168 64s-68 97.334 -68 164.001c0 74 25.667 137 77 189s114 78 188 78c40.667 0 74.667 -8.66699 102 -26c18 -11.333 32.833 -26 44.5 -44s17.5 -37 17.5 -57c0 -33.333 -12.333 -62.333 -37 -87
c-20 -20 -47.667 -36.667 -83 -50c-27.333 -10.667 -60.666 -19.334 -99.999 -26.001c-23.333 -4 -57.666 -8.66699 -102.999 -14zM107.001 216.999c72.667 6.66699 128 16.667 166 30c68.667 23.333 103 59.333 103 108c0 25.333 -8.33301 44.333 -25 57s-38 19 -64 19
c-58 0 -103.333 -21.667 -136 -65c-29.333 -39.333 -44 -89 -44 -149z" />
    <glyph glyph-name="cedilla" unicode="&#x451;" horiz-adv-x="500" 
d="M148 542c-14.667 0 -27.499 5.16699 -38.499 15.5s-16.5 22.5 -16.5 36.5c0 16.667 5.16699 30.5 15.5 41.5s23.5 16.5 39.5 16.5s29 -5.33301 39 -16s15 -23.667 15 -39c0 -14 -5.33301 -26.667 -16 -38s-23.334 -17 -38.001 -17zM353.001 542
c-14.667 0 -27.499 5.16699 -38.499 15.5s-16.5 22.5 -16.5 36.5c0 16.667 5.16699 30.5 15.5 41.5s23.5 16.5 39.5 16.5s29 -5.33301 39 -16s15 -23.667 15 -39c0 -14 -5.33301 -26.667 -16 -38s-23.334 -17 -38.001 -17zM133.002 176l-20.001 -2.00098
c7.33301 -40.667 26.333 -72.834 57 -96.501s67 -35.5 109 -35.5c36 0 68 8.66699 96 26l76 58c4.66699 0 9 -1.66699 13 -5s6 -7.66602 6 -12.999c0 -12.667 -7.66699 -27 -23 -43c-12 -13.333 -25.333 -24.666 -40 -33.999c-22 -15.333 -44.833 -26.833 -68.5 -34.5
s-48.834 -11.5 -75.501 -11.5c-66.667 0 -122.667 21.333 -168 64s-68 97.334 -68 164.001c0 74 25.667 137 77 189s114 78 188 78c40.667 0 74.667 -8.66699 102 -26c18 -11.333 32.833 -26 44.5 -44s17.5 -37 17.5 -57c0 -33.333 -12.333 -62.333 -37 -87
c-20 -20 -47.667 -36.667 -83 -50c-27.333 -10.667 -60.666 -19.334 -99.999 -26.001c-23.333 -4 -57.666 -8.66699 -102.999 -14zM107.001 216.999c72.667 6.66699 128 16.667 166 30c68.667 23.333 103 59.333 103 108c0 25.333 -8.33301 44.333 -25 57s-38 19 -64 19
c-58 0 -103.333 -21.667 -136 -65c-29.333 -39.333 -44 -89 -44 -149z" />
    <glyph glyph-name="onesuperior" unicode="&#xb9;" horiz-adv-x="400" 
d="M193 438c-42.667 0 -79.166 14.499 -109.499 43.499s-45.5 64.833 -45.5 107.5c0 40.667 16.167 75.5 48.5 104.5s69.166 43.5 110.499 43.5c42.667 0 79.5 -14.167 110.5 -42.5s46.5 -63.833 46.5 -106.5c0 -43.333 -15.833 -79.166 -47.5 -107.499
s-69.5 -42.5 -113.5 -42.5zM194.001 473.999c32 0 57.001 11 75.001 33s27 49.333 27 82c0 32 -9 58.667 -27 80s-42.667 32 -74 32c-32 0 -56.667 -11 -74 -33s-26 -49.667 -26 -83c0 -32 8.66699 -58.5 26 -79.5s41.666 -31.5 72.999 -31.5zM84.002 361.999h226.999h13
c12.667 0 20.834 -1.5 24.501 -4.5s5.5 -7.83301 5.5 -14.5c0 -5.33301 -2 -9.5 -6 -12.5s-11.667 -4.5 -23 -4.5h-12h-229h-15c-10.667 0 -18.667 1 -24 3s-8 6.66699 -8 14s3 12.333 9 15s14 4 24 4h14z" />
    <glyph glyph-name="onesuperior" unicode="&#x2116;" horiz-adv-x="400" 
d="M193 438c-42.667 0 -79.166 14.499 -109.499 43.499s-45.5 64.833 -45.5 107.5c0 40.667 16.167 75.5 48.5 104.5s69.166 43.5 110.499 43.5c42.667 0 79.5 -14.167 110.5 -42.5s46.5 -63.833 46.5 -106.5c0 -43.333 -15.833 -79.166 -47.5 -107.499
s-69.5 -42.5 -113.5 -42.5zM194.001 473.999c32 0 57.001 11 75.001 33s27 49.333 27 82c0 32 -9 58.667 -27 80s-42.667 32 -74 32c-32 0 -56.667 -11 -74 -33s-26 -49.667 -26 -83c0 -32 8.66699 -58.5 26 -79.5s41.666 -31.5 72.999 -31.5zM84.002 361.999h226.999h13
c12.667 0 20.834 -1.5 24.501 -4.5s5.5 -7.83301 5.5 -14.5c0 -5.33301 -2 -9.5 -6 -12.5s-11.667 -4.5 -23 -4.5h-12h-229h-15c-10.667 0 -18.667 1 -24 3s-8 6.66699 -8 14s3 12.333 9 15s14 4 24 4h14z" />
    <glyph glyph-name="guillemotright" unicode="&#xbb;" horiz-adv-x="340" 
d="M188 170l40.999 101.001c2 5.33301 3 11.333 3 18c0 6 -1 12 -3 18l-41 95l-7.5 19.5c-2.33301 6.33301 -3.5 10.166 -3.5 11.499c0 4 1.5 7.83301 4.5 11.5s6.5 5.5 10.5 5.5c6 0 12.667 -4 20 -12l14 -20l66 -97c2.66699 -4 6.33398 -9.83301 11.001 -17.5
s7 -13.5 7 -17.5c0 -3.33301 -2.33301 -8.5 -7 -15.5s-7.66699 -11.833 -9 -14.5l-68 -105l-14.5 -20c-5 -6.66699 -11.167 -10 -18.5 -10c-10.667 0 -16 5 -16 15c0 4 1.66699 10 5 18s5.33301 13.333 6 16zM39.999 170.001l40.999 101.001c2 5.33301 3 11.333 3 18
c0 6 -1 12 -3 18l-41 95l-7.5 19.5c-2.33301 6.33301 -3.5 10.166 -3.5 11.499c0 4 1.5 7.83301 4.5 11.5s6.5 5.5 10.5 5.5c6 0 12.667 -4 20 -12l14 -20l66 -97c2.66699 -4 6.33398 -9.83301 11.001 -17.5s7 -13.5 7 -17.5c0 -3.33301 -2.33301 -8.5 -7 -15.5
s-7.66699 -11.833 -9 -14.5l-68 -105l-14.5 -20c-5 -6.66699 -11.167 -10 -18.5 -10c-10.667 0 -16 5 -16 15c0 4 1.66699 10 5 18s5.33301 13.333 6 16z" />
    <glyph glyph-name="Agrave" unicode="&#xc0;" horiz-adv-x="720" 
d="M83 188c30.667 87.333 63.3301 171.665 97.9971 252.998c39.333 91.333 78.333 172.333 117 243l24 43c10.667 16.667 19.334 25 26.001 25s14.667 -6 24 -18c7.33301 -8.66699 18 -25.334 32 -50.001c40 -68 80 -148.667 120 -242
c36.667 -85.333 68.334 -170 95.001 -254l39 -108c4 -10 8 -17 12 -21s11.667 -9 23 -15c8.66699 -4 13.667 -7.16699 15 -9.5s2 -6.5 2 -12.5c0 -10 -3.66699 -16.167 -11 -18.5s-17 -3.5 -29 -3.5h-124c-11.333 0 -20.166 1.33301 -26.499 4s-9.5 9 -9.5 19
s8.5 18.5 25.5 25.5s25.5 15.833 25.5 26.5c0 6.66699 -8.5 35.834 -25.5 87.501s-28.5 82.834 -34.5 93.501h-325l-28 -80c-12 -36.667 -18 -62.334 -18 -77.001c0 -23.333 8.83301 -40.166 26.5 -50.499s26.5 -19.166 26.5 -26.499c0 -9.33301 -3.16699 -15.5 -9.5 -18.5
s-15.5 -4.5 -27.5 -4.5c-11.333 0.666992 -19 1 -23 1h-58c-8 -0.666992 -14.667 -1 -20 -1c-13.333 0 -24.166 1.66699 -32.499 5s-12.5 9.66602 -12.5 18.999c0 8.66699 5.33301 16.667 16 24s17.667 12.833 21 16.5s6.66602 10.834 9.99902 21.501zM191.996 307.999
l293 0.000976562c-22 59.333 -43.667 112.666 -65 159.999c-26 58 -54 113.333 -84 166c-28.667 -52 -55.667 -106.667 -81 -164c-22.667 -52.667 -43.667 -106.667 -63 -162z" />
    <glyph glyph-name="Agrave" unicode="&#x410;" horiz-adv-x="720" 
d="M83 188c30.667 87.333 63.3301 171.665 97.9971 252.998c39.333 91.333 78.333 172.333 117 243l24 43c10.667 16.667 19.334 25 26.001 25s14.667 -6 24 -18c7.33301 -8.66699 18 -25.334 32 -50.001c40 -68 80 -148.667 120 -242
c36.667 -85.333 68.334 -170 95.001 -254l39 -108c4 -10 8 -17 12 -21s11.667 -9 23 -15c8.66699 -4 13.667 -7.16699 15 -9.5s2 -6.5 2 -12.5c0 -10 -3.66699 -16.167 -11 -18.5s-17 -3.5 -29 -3.5h-124c-11.333 0 -20.166 1.33301 -26.499 4s-9.5 9 -9.5 19
s8.5 18.5 25.5 25.5s25.5 15.833 25.5 26.5c0 6.66699 -8.5 35.834 -25.5 87.501s-28.5 82.834 -34.5 93.501h-325l-28 -80c-12 -36.667 -18 -62.334 -18 -77.001c0 -23.333 8.83301 -40.166 26.5 -50.499s26.5 -19.166 26.5 -26.499c0 -9.33301 -3.16699 -15.5 -9.5 -18.5
s-15.5 -4.5 -27.5 -4.5c-11.333 0.666992 -19 1 -23 1h-58c-8 -0.666992 -14.667 -1 -20 -1c-13.333 0 -24.166 1.66699 -32.499 5s-12.5 9.66602 -12.5 18.999c0 8.66699 5.33301 16.667 16 24s17.667 12.833 21 16.5s6.66602 10.834 9.99902 21.501zM191.996 307.999
l293 0.000976562c-22 59.333 -43.667 112.666 -65 159.999c-26 58 -54 113.333 -84 166c-28.667 -52 -55.667 -106.667 -81 -164c-22.667 -52.667 -43.667 -106.667 -63 -162z" />
    <glyph glyph-name="Aacute" unicode="&#xc1;" horiz-adv-x="680" 
d="M68 732l469.999 -0.00292969c8 0 17 -5.66699 27 -17s15.667 -21 17 -29l12 -62c0 -10.667 -5 -16 -15 -16c-4.66699 0 -10.167 3 -16.5 9l-12.5 12c-14 14.667 -30 26.334 -48 35.001c-22 10.667 -45.667 16 -71 16h-217c-10.667 0 -19.167 -3.16699 -25.5 -9.5
s-9.5 -14.166 -9.5 -23.499v-195c70 0 130.833 -3.5 182.5 -10.5s97.167 -20.167 136.5 -39.5c44.667 -22 80.334 -49.667 107.001 -83c31.333 -38.667 47 -81 47 -127c0 -35.333 -8.5 -66.5 -25.5 -93.5s-41.5 -48.5 -73.5 -64.5c-25.333 -13.333 -52.5 -22.333 -81.5 -27
s-62.167 -7 -99.5 -7h-308c-10.667 0 -19.167 1.33301 -25.5 4s-9.5 9 -9.5 19c0 8.66699 1.83301 14.167 5.5 16.5s10 4.83301 19 7.5l24.5 7c7.33301 3.33301 11 8.66602 11 15.999v556v17c0 13.333 -1.66699 22.333 -5 27s-11.5 9.33398 -24.5 14.001
s-19.833 7.33398 -20.5 8.00098c-4.66699 3.33301 -7 9 -7 17c0 7.33301 2.5 13 7.5 17s14.5 6 28.5 6zM178.999 399.997v-271c0 -20.667 1.16699 -35.834 3.5 -45.501s9.83301 -17.5 22.5 -23.5c5.33301 -3.33301 16.833 -5.66602 34.5 -6.99902s35.834 -2 54.501 -2h26.5
c8.33301 0 15.833 0.333008 22.5 1c30 0 55.833 2 77.5 6s42.667 12.5 63 25.5s36.5 30 48.5 51s18 43.5 18 67.5c0 70.667 -40 123 -120 157c-64.667 27.333 -148.334 41 -251.001 41z" />
    <glyph glyph-name="Aacute" unicode="&#x411;" horiz-adv-x="680" 
d="M68 732l469.999 -0.00292969c8 0 17 -5.66699 27 -17s15.667 -21 17 -29l12 -62c0 -10.667 -5 -16 -15 -16c-4.66699 0 -10.167 3 -16.5 9l-12.5 12c-14 14.667 -30 26.334 -48 35.001c-22 10.667 -45.667 16 -71 16h-217c-10.667 0 -19.167 -3.16699 -25.5 -9.5
s-9.5 -14.166 -9.5 -23.499v-195c70 0 130.833 -3.5 182.5 -10.5s97.167 -20.167 136.5 -39.5c44.667 -22 80.334 -49.667 107.001 -83c31.333 -38.667 47 -81 47 -127c0 -35.333 -8.5 -66.5 -25.5 -93.5s-41.5 -48.5 -73.5 -64.5c-25.333 -13.333 -52.5 -22.333 -81.5 -27
s-62.167 -7 -99.5 -7h-308c-10.667 0 -19.167 1.33301 -25.5 4s-9.5 9 -9.5 19c0 8.66699 1.83301 14.167 5.5 16.5s10 4.83301 19 7.5l24.5 7c7.33301 3.33301 11 8.66602 11 15.999v556v17c0 13.333 -1.66699 22.333 -5 27s-11.5 9.33398 -24.5 14.001
s-19.833 7.33398 -20.5 8.00098c-4.66699 3.33301 -7 9 -7 17c0 7.33301 2.5 13 7.5 17s14.5 6 28.5 6zM178.999 399.997v-271c0 -20.667 1.16699 -35.834 3.5 -45.501s9.83301 -17.5 22.5 -23.5c5.33301 -3.33301 16.833 -5.66602 34.5 -6.99902s35.834 -2 54.501 -2h26.5
c8.33301 0 15.833 0.333008 22.5 1c30 0 55.833 2 77.5 6s42.667 12.5 63 25.5s36.5 30 48.5 51s18 43.5 18 67.5c0 70.667 -40 123 -120 157c-64.667 27.333 -148.334 41 -251.001 41z" />
    <glyph glyph-name="Acircumflex" unicode="&#xc2;" horiz-adv-x="680" 
d="M378 0l-312.998 0.000976562c-10.667 0 -19.167 1.33301 -25.5 4s-9.5 9 -9.5 19c0 7.33301 2.16699 12.5 6.5 15.5s10.5 5.83301 18.5 8.5c18 5.33301 28.667 11.166 32 17.499s5 20.166 5 41.499v556c0 6.66699 -3.66699 11.667 -11 15c-0.666992 0.666992 -8 3 -22 7
l-16 4c-8.66699 3.33301 -13 10.333 -13 21c0 7.33301 2.66699 13 8 17s15 6 29 6h325c28 0 53.167 -1.83301 75.5 -5.5s43.666 -12 63.999 -25s37.166 -30.333 50.499 -52s20 -45.5 20 -71.5c0 -40.667 -17.667 -77.667 -53 -111c-28.667 -26.667 -65 -48.667 -109 -66
c58 -8.66699 106.667 -29.667 146 -63c45.333 -38 68 -84.667 68 -140c0 -30.667 -8 -59 -24 -85s-37.167 -47.667 -63.5 -65s-55.333 -29.666 -87 -36.999s-65.5 -11 -101.5 -11zM182.002 598.001v-219c64.667 14 107.667 24.333 129 31
c53.333 16 93.666 33.667 120.999 53c19.333 14 35.333 30.5 48 49.5s19 39.167 19 60.5c0 48 -21.667 79.667 -65 95c-24.667 8.66699 -66.667 13 -126 13h-55c-24 -1.33301 -41.667 -5.33301 -53 -12c-7.33301 -4.66699 -12.166 -11.167 -14.499 -19.5
s-3.5 -18.5 -3.5 -30.5v-21zM182.002 323.001l-0.00292969 -193.998v-19c0 -12.667 1.33301 -22.834 4 -30.501s8.33398 -13.834 17.001 -18.501s23.334 -7.66699 44.001 -9s38.334 -2 53.001 -2c34.667 0 65.5 2 92.5 6s52.667 12 77 24s44 28.333 59 49
s22.5 44.334 22.5 71.001c0 47.333 -20.333 86.333 -61 117c-33.333 25.333 -76 42.666 -128 51.999z" />
    <glyph glyph-name="Acircumflex" unicode="&#x412;" horiz-adv-x="680" 
d="M378 0l-312.998 0.000976562c-10.667 0 -19.167 1.33301 -25.5 4s-9.5 9 -9.5 19c0 7.33301 2.16699 12.5 6.5 15.5s10.5 5.83301 18.5 8.5c18 5.33301 28.667 11.166 32 17.499s5 20.166 5 41.499v556c0 6.66699 -3.66699 11.667 -11 15c-0.666992 0.666992 -8 3 -22 7
l-16 4c-8.66699 3.33301 -13 10.333 -13 21c0 7.33301 2.66699 13 8 17s15 6 29 6h325c28 0 53.167 -1.83301 75.5 -5.5s43.666 -12 63.999 -25s37.166 -30.333 50.499 -52s20 -45.5 20 -71.5c0 -40.667 -17.667 -77.667 -53 -111c-28.667 -26.667 -65 -48.667 -109 -66
c58 -8.66699 106.667 -29.667 146 -63c45.333 -38 68 -84.667 68 -140c0 -30.667 -8 -59 -24 -85s-37.167 -47.667 -63.5 -65s-55.333 -29.666 -87 -36.999s-65.5 -11 -101.5 -11zM182.002 598.001v-219c64.667 14 107.667 24.333 129 31
c53.333 16 93.666 33.667 120.999 53c19.333 14 35.333 30.5 48 49.5s19 39.167 19 60.5c0 48 -21.667 79.667 -65 95c-24.667 8.66699 -66.667 13 -126 13h-55c-24 -1.33301 -41.667 -5.33301 -53 -12c-7.33301 -4.66699 -12.166 -11.167 -14.499 -19.5
s-3.5 -18.5 -3.5 -30.5v-21zM182.002 323.001l-0.00292969 -193.998v-19c0 -12.667 1.33301 -22.834 4 -30.501s8.33398 -13.834 17.001 -18.501s23.334 -7.66699 44.001 -9s38.334 -2 53.001 -2c34.667 0 65.5 2 92.5 6s52.667 12 77 24s44 28.333 59 49
s22.5 44.334 22.5 71.001c0 47.333 -20.333 86.333 -61 117c-33.333 25.333 -76 42.666 -128 51.999z" />
    <glyph glyph-name="Atilde" unicode="&#xc3;" horiz-adv-x="560" 
d="M179 653l0.000976562 -582.001c0 -8 3.33301 -13.667 10 -17l22 -6c4.66699 -1.33301 10.5 -3.16602 17.5 -5.49902s10.5 -8.83301 10.5 -19.5c0 -7.33301 -2.66699 -13 -8 -17s-15 -6 -29 -6h-136c-11.333 -0 -20.166 1.33301 -26.499 4s-9.5 9 -9.5 19
c0 6.66699 2.16699 11.667 6.5 15s10.166 6.33301 17.499 9c18 6 28.333 11.667 31 17s4 19.333 4 42v556c0 6 -3.66699 11 -11 15l-19.5 6.5c-11 3.66699 -17.833 6.5 -20.5 8.5c-6 4 -9 10 -9 18c0 7.33301 2.33301 12.833 7 16.5s14.334 5.5 29.001 5.5h443
c11.333 -2 20.666 -6.33301 27.999 -13s12.666 -17.667 15.999 -33l12 -62c-2.66699 -10.667 -7.66699 -16 -15 -16c-4.66699 0 -10.167 3 -16.5 9l-12.5 12c-14 14.667 -30 26.334 -48 35.001c-22 10.667 -45.667 16 -71 16h-164c-20.667 0 -35.5 -2.33301 -44.5 -7
s-13.5 -11.334 -13.5 -20.001z" />
    <glyph glyph-name="Atilde" unicode="&#x413;" horiz-adv-x="560" 
d="M179 653l0.000976562 -582.001c0 -8 3.33301 -13.667 10 -17l22 -6c4.66699 -1.33301 10.5 -3.16602 17.5 -5.49902s10.5 -8.83301 10.5 -19.5c0 -7.33301 -2.66699 -13 -8 -17s-15 -6 -29 -6h-136c-11.333 -0 -20.166 1.33301 -26.499 4s-9.5 9 -9.5 19
c0 6.66699 2.16699 11.667 6.5 15s10.166 6.33301 17.499 9c18 6 28.333 11.667 31 17s4 19.333 4 42v556c0 6 -3.66699 11 -11 15l-19.5 6.5c-11 3.66699 -17.833 6.5 -20.5 8.5c-6 4 -9 10 -9 18c0 7.33301 2.33301 12.833 7 16.5s14.334 5.5 29.001 5.5h443
c11.333 -2 20.666 -6.33301 27.999 -13s12.666 -17.667 15.999 -33l12 -62c-2.66699 -10.667 -7.66699 -16 -15 -16c-4.66699 0 -10.167 3 -16.5 9l-12.5 12c-14 14.667 -30 26.334 -48 35.001c-22 10.667 -45.667 16 -71 16h-164c-20.667 0 -35.5 -2.33301 -44.5 -7
s-13.5 -11.334 -13.5 -20.001z" />
    <glyph glyph-name="Adieresis" unicode="&#xc4;" horiz-adv-x="720" 
d="M649 53l4.00391 -2.00293h11c8.66699 0 15 -2.16699 19 -6.5s8.16699 -15.666 12.5 -33.999s6.5 -32.166 6.5 -41.499l4 -26c0 -14 -6 -21 -18 -21c-6.66699 0 -13.334 2.83301 -20.001 8.5s-11 9.5 -13 11.5c-17.333 14 -29.333 23 -36 27
c-12 8 -25.333 14.167 -40 18.5s-29.5 7.5 -44.5 9.5s-29.833 3 -44.5 3h-288c-12 0 -25 -0.833008 -39 -2.5s-29.833 -4.33398 -47.5 -8.00098s-32.834 -9.5 -45.501 -17.5c-6.66699 -4 -20.334 -14.667 -41.001 -32l-15.5 -13.5c-5.66699 -5 -11.167 -7.5 -16.5 -7.5
c-13.333 0 -20 7.66699 -20 23l3 23c0 25.333 2.66699 46 8 62s12.333 24 21 24h12c8.66699 0 17.167 3.16699 25.5 9.5s13.166 12.5 14.499 18.5l32 112c18.667 66.667 43 137.667 73 213c34.667 88.667 70.334 165.667 107.001 231c4 7.33301 6 13.666 6 18.999
c0 6.66699 -2.66699 12.334 -8 17.001s-14 9 -26 13c-5.33301 1.33301 -10.333 3 -15 5c-9.33301 4 -14 11 -14 21c0 7.33301 2.5 12.833 7.5 16.5s14.833 5.5 29.5 5.5h403c10.667 0 19.167 -1.33301 25.5 -4s9.5 -8.66699 9.5 -18c0 -7.33301 -2 -12.666 -6 -15.999
s-12.333 -6.83301 -25 -10.5s-20.834 -8.16699 -24.501 -13.5s-5.5 -15.666 -5.5 -30.999v-13v-546c0 -12 6.33301 -21 19 -27zM143.004 88.9971c0 -12 2.66797 -21.501 8.00098 -28.501s14 -10.5 26 -10.5h339c10 4 16.5 8.66699 19.5 14s4.5 14.333 4.5 27v15v551
c0 6.66699 -3.5 12.167 -10.5 16.5s-14.5 6.5 -22.5 6.5h-115c-15.333 0 -28 -8.66699 -38 -26l-48 -97c-35.333 -73.333 -60 -128.666 -74 -165.999c-20.667 -56 -38.334 -106.333 -53.001 -151c-24 -74.667 -36 -125 -36 -151z" />
    <glyph glyph-name="Adieresis" unicode="&#x414;" horiz-adv-x="720" 
d="M649 53l4.00391 -2.00293h11c8.66699 0 15 -2.16699 19 -6.5s8.16699 -15.666 12.5 -33.999s6.5 -32.166 6.5 -41.499l4 -26c0 -14 -6 -21 -18 -21c-6.66699 0 -13.334 2.83301 -20.001 8.5s-11 9.5 -13 11.5c-17.333 14 -29.333 23 -36 27
c-12 8 -25.333 14.167 -40 18.5s-29.5 7.5 -44.5 9.5s-29.833 3 -44.5 3h-288c-12 0 -25 -0.833008 -39 -2.5s-29.833 -4.33398 -47.5 -8.00098s-32.834 -9.5 -45.501 -17.5c-6.66699 -4 -20.334 -14.667 -41.001 -32l-15.5 -13.5c-5.66699 -5 -11.167 -7.5 -16.5 -7.5
c-13.333 0 -20 7.66699 -20 23l3 23c0 25.333 2.66699 46 8 62s12.333 24 21 24h12c8.66699 0 17.167 3.16699 25.5 9.5s13.166 12.5 14.499 18.5l32 112c18.667 66.667 43 137.667 73 213c34.667 88.667 70.334 165.667 107.001 231c4 7.33301 6 13.666 6 18.999
c0 6.66699 -2.66699 12.334 -8 17.001s-14 9 -26 13c-5.33301 1.33301 -10.333 3 -15 5c-9.33301 4 -14 11 -14 21c0 7.33301 2.5 12.833 7.5 16.5s14.833 5.5 29.5 5.5h403c10.667 0 19.167 -1.33301 25.5 -4s9.5 -8.66699 9.5 -18c0 -7.33301 -2 -12.666 -6 -15.999
s-12.333 -6.83301 -25 -10.5s-20.834 -8.16699 -24.501 -13.5s-5.5 -15.666 -5.5 -30.999v-13v-546c0 -12 6.33301 -21 19 -27zM143.004 88.9971c0 -12 2.66797 -21.501 8.00098 -28.501s14 -10.5 26 -10.5h339c10 4 16.5 8.66699 19.5 14s4.5 14.333 4.5 27v15v551
c0 6.66699 -3.5 12.167 -10.5 16.5s-14.5 6.5 -22.5 6.5h-115c-15.333 0 -28 -8.66699 -38 -26l-48 -97c-35.333 -73.333 -60 -128.666 -74 -165.999c-20.667 -56 -38.334 -106.333 -53.001 -151c-24 -74.667 -36 -125 -36 -151z" />
    <glyph glyph-name="Aring" unicode="&#xc5;" 
d="M178 368l0.00195312 -196.004c0 -45.333 4.66699 -75.666 14 -90.999c12 -19.333 36.667 -29 74 -29h150c24 0 45.5 4.66699 64.5 14s37.833 23 56.5 41c10.667 9.33301 16.334 14.333 17.001 15c8.66699 6.66699 15.334 10 20.001 10c10.667 0 16 -5.66699 16 -17
c0 -6.66699 -1.66699 -18.667 -5 -36s-5 -27 -5 -29c-4.66699 -26.667 -8.66699 -41.667 -12 -45s-16 -5 -38 -5h-466c-10.667 0 -19.167 1.33301 -25.5 4s-9.5 9 -9.5 19c0 6.66699 2.16699 11.667 6.5 15s10.166 6.33301 17.499 9c18 6 28.333 11.667 31 17s4 19.333 4 42
v528c0 14.667 -2 26.334 -6 35.001s-12.667 14 -26 16c-10 2.66699 -16.333 5 -19 7c-5.33301 4 -8 10 -8 18c0 7.33301 2.33301 12.833 7 16.5s14.334 5.5 29.001 5.5h443c11.333 -2.66699 19.666 -8.16699 24.999 -16.5s9 -18.833 11 -31.5l8 -61
c-1.33301 -10.667 -7 -16 -17 -16c-7.33301 0 -13 2.66699 -17 8c-14.667 18.667 -31.334 33.667 -50.001 45c-22 13.333 -43.333 20 -64 20h-161c-24.667 0 -41.667 -5.66699 -51 -17s-14 -31.666 -14 -60.999v-182h192c19.333 0 33.333 1.66699 42 5s17 8.33301 25 15
c2.66699 2.66699 5.66699 5.5 9 8.5s7.66602 4.5 12.999 4.5c8 0 13.5 -4.5 16.5 -13.5s4.5 -19.833 4.5 -32.5c-0.666992 -14 -1 -22.667 -1 -26c0 -17.333 -0.333008 -27 -1 -29c-2.66699 -10 -10.334 -15 -23.001 -15c-6 0 -13.5 4.33301 -22.5 13s-17 13.834 -24 15.501
s-18.167 2.5 -33.5 2.5h-197z" />
    <glyph glyph-name="Aring" unicode="&#x415;" 
d="M178 368l0.00195312 -196.004c0 -45.333 4.66699 -75.666 14 -90.999c12 -19.333 36.667 -29 74 -29h150c24 0 45.5 4.66699 64.5 14s37.833 23 56.5 41c10.667 9.33301 16.334 14.333 17.001 15c8.66699 6.66699 15.334 10 20.001 10c10.667 0 16 -5.66699 16 -17
c0 -6.66699 -1.66699 -18.667 -5 -36s-5 -27 -5 -29c-4.66699 -26.667 -8.66699 -41.667 -12 -45s-16 -5 -38 -5h-466c-10.667 0 -19.167 1.33301 -25.5 4s-9.5 9 -9.5 19c0 6.66699 2.16699 11.667 6.5 15s10.166 6.33301 17.499 9c18 6 28.333 11.667 31 17s4 19.333 4 42
v528c0 14.667 -2 26.334 -6 35.001s-12.667 14 -26 16c-10 2.66699 -16.333 5 -19 7c-5.33301 4 -8 10 -8 18c0 7.33301 2.33301 12.833 7 16.5s14.334 5.5 29.001 5.5h443c11.333 -2.66699 19.666 -8.16699 24.999 -16.5s9 -18.833 11 -31.5l8 -61
c-1.33301 -10.667 -7 -16 -17 -16c-7.33301 0 -13 2.66699 -17 8c-14.667 18.667 -31.334 33.667 -50.001 45c-22 13.333 -43.333 20 -64 20h-161c-24.667 0 -41.667 -5.66699 -51 -17s-14 -31.666 -14 -60.999v-182h192c19.333 0 33.333 1.66699 42 5s17 8.33301 25 15
c2.66699 2.66699 5.66699 5.5 9 8.5s7.66602 4.5 12.999 4.5c8 0 13.5 -4.5 16.5 -13.5s4.5 -19.833 4.5 -32.5c-0.666992 -14 -1 -22.667 -1 -26c0 -17.333 -0.333008 -27 -1 -29c-2.66699 -10 -10.334 -15 -23.001 -15c-6 0 -13.5 4.33301 -22.5 13s-17 13.834 -24 15.501
s-18.167 2.5 -33.5 2.5h-197z" />
    <glyph glyph-name="AE" unicode="&#xc6;" horiz-adv-x="1060" 
d="M597 0l-133.996 0.00390625c-10.667 0 -19.334 1.33301 -26.001 4s-10 9 -10 19c0 7.33301 2.66699 13 8 17c2 1.33301 7.16699 3.5 15.5 6.5s16.166 6 23.499 9s11 8.16699 11 15.5v188l-106 115c-30.667 -28.667 -70.667 -77.667 -120 -147
c-56 -78.667 -84 -130.667 -84 -156c0 -9.33301 8.66699 -19 26 -29c9.33301 -5.33301 14 -11.666 14 -18.999c0 -10 -4.5 -16.333 -13.5 -19s-20.167 -4 -33.5 -4h-130c-10.667 0 -19.167 1.33301 -25.5 4s-9.5 8.33398 -9.5 17.001c0 8 2.33301 13.833 7 17.5
s13.167 7.83398 25.5 12.501s22.5 12.334 30.5 23.001c4.66699 6 11.667 19 21 39c24.667 52 55.334 104.333 92.001 157c34.667 49.333 73 96.666 115 141.999l25 26l-155 176c-17.333 20.667 -30 34.667 -38 42c-12.667 11.333 -28.667 21.666 -48 30.999
c-7.33301 3.33301 -13 6.66602 -17 9.99902s-6 8.66602 -6 15.999s2.33301 12.333 7 15s15 4 31 4h147c10.667 0 18.667 -1 24 -3s8 -7.33301 8 -16c0 -12 -7.16699 -21.167 -21.5 -27.5s-21.5 -15.5 -21.5 -27.5c0 -10 3.66699 -21.333 11 -34s15.333 -24 24 -34l221 -255
v291v14c0 14.667 -1.5 24.167 -4.5 28.5s-12.5 9.83301 -28.5 16.5c-10.667 5.33301 -16.334 8 -17.001 8c-4.66699 3.33301 -7 9 -7 17c0 7.33301 2.5 12.833 7.5 16.5s14.5 5.5 28.5 5.5h132c11.333 0 20.166 -1.33301 26.499 -4s9.5 -8.66699 9.5 -18
c0 -5.33301 -1.33301 -9.5 -4 -12.5s-9.33398 -7.16699 -20.001 -12.5c-16 -6.66699 -25.5 -12.167 -28.5 -16.5s-4.5 -13.833 -4.5 -28.5v-14v-291l221 255c8 9.33301 15.833 20.666 23.5 33.999s11.5 24.666 11.5 33.999c0 12.667 -7.16699 22.167 -21.5 28.5
s-21.5 15.166 -21.5 26.499c0 8 3 13.167 9 15.5s13.667 3.5 23 3.5h147c13.333 0 23 -0.833008 29 -2.5s9 -7.16699 9 -16.5c0 -6.66699 -1.83301 -11.834 -5.5 -15.501s-9.5 -7.16699 -17.5 -10.5c-19.333 -9.33301 -35 -19.333 -47 -30
c-8 -7.33301 -21 -21.666 -39 -42.999l-155 -176l25 -26c40.667 -44 79.167 -91.833 115.5 -143.5s66.833 -103.5 91.5 -155.5l15 -30c9.33301 -15.333 22.666 -26.333 39.999 -33c6.66699 -2.66699 13.334 -5 20.001 -7c6 -3.33301 9 -9.33301 9 -18
c0 -8 -3.83301 -14.167 -11.5 -18.5s-15.5 -6.5 -23.5 -6.5h-130c-14.667 0 -24.334 0.666992 -29.001 2c-12 3.33301 -18 10.333 -18 21c0 7.33301 4 13.333 12 18c18.667 10.667 28 20.667 28 30c0 26 -27.667 77.667 -83 155
c-49.333 69.333 -89.666 118.666 -120.999 147.999l-106 -115v-188c0 -6 3.66699 -11 11 -15c10 -4 17 -6.66699 21 -8c10 -4 16 -6.66699 18 -8c5.33301 -4 8 -9.66699 8 -17s-2.5 -13 -7.5 -17s-14.5 -6 -28.5 -6z" />
    <glyph glyph-name="AE" unicode="&#x416;" horiz-adv-x="1060" 
d="M597 0l-133.996 0.00390625c-10.667 0 -19.334 1.33301 -26.001 4s-10 9 -10 19c0 7.33301 2.66699 13 8 17c2 1.33301 7.16699 3.5 15.5 6.5s16.166 6 23.499 9s11 8.16699 11 15.5v188l-106 115c-30.667 -28.667 -70.667 -77.667 -120 -147
c-56 -78.667 -84 -130.667 -84 -156c0 -9.33301 8.66699 -19 26 -29c9.33301 -5.33301 14 -11.666 14 -18.999c0 -10 -4.5 -16.333 -13.5 -19s-20.167 -4 -33.5 -4h-130c-10.667 0 -19.167 1.33301 -25.5 4s-9.5 8.33398 -9.5 17.001c0 8 2.33301 13.833 7 17.5
s13.167 7.83398 25.5 12.501s22.5 12.334 30.5 23.001c4.66699 6 11.667 19 21 39c24.667 52 55.334 104.333 92.001 157c34.667 49.333 73 96.666 115 141.999l25 26l-155 176c-17.333 20.667 -30 34.667 -38 42c-12.667 11.333 -28.667 21.666 -48 30.999
c-7.33301 3.33301 -13 6.66602 -17 9.99902s-6 8.66602 -6 15.999s2.33301 12.333 7 15s15 4 31 4h147c10.667 0 18.667 -1 24 -3s8 -7.33301 8 -16c0 -12 -7.16699 -21.167 -21.5 -27.5s-21.5 -15.5 -21.5 -27.5c0 -10 3.66699 -21.333 11 -34s15.333 -24 24 -34l221 -255
v291v14c0 14.667 -1.5 24.167 -4.5 28.5s-12.5 9.83301 -28.5 16.5c-10.667 5.33301 -16.334 8 -17.001 8c-4.66699 3.33301 -7 9 -7 17c0 7.33301 2.5 12.833 7.5 16.5s14.5 5.5 28.5 5.5h132c11.333 0 20.166 -1.33301 26.499 -4s9.5 -8.66699 9.5 -18
c0 -5.33301 -1.33301 -9.5 -4 -12.5s-9.33398 -7.16699 -20.001 -12.5c-16 -6.66699 -25.5 -12.167 -28.5 -16.5s-4.5 -13.833 -4.5 -28.5v-14v-291l221 255c8 9.33301 15.833 20.666 23.5 33.999s11.5 24.666 11.5 33.999c0 12.667 -7.16699 22.167 -21.5 28.5
s-21.5 15.166 -21.5 26.499c0 8 3 13.167 9 15.5s13.667 3.5 23 3.5h147c13.333 0 23 -0.833008 29 -2.5s9 -7.16699 9 -16.5c0 -6.66699 -1.83301 -11.834 -5.5 -15.501s-9.5 -7.16699 -17.5 -10.5c-19.333 -9.33301 -35 -19.333 -47 -30
c-8 -7.33301 -21 -21.666 -39 -42.999l-155 -176l25 -26c40.667 -44 79.167 -91.833 115.5 -143.5s66.833 -103.5 91.5 -155.5l15 -30c9.33301 -15.333 22.666 -26.333 39.999 -33c6.66699 -2.66699 13.334 -5 20.001 -7c6 -3.33301 9 -9.33301 9 -18
c0 -8 -3.83301 -14.167 -11.5 -18.5s-15.5 -6.5 -23.5 -6.5h-130c-14.667 0 -24.334 0.666992 -29.001 2c-12 3.33301 -18 10.333 -18 21c0 7.33301 4 13.333 12 18c18.667 10.667 28 20.667 28 30c0 26 -27.667 77.667 -83 155
c-49.333 69.333 -89.666 118.666 -120.999 147.999l-106 -115v-188c0 -6 3.66699 -11 11 -15c10 -4 17 -6.66699 21 -8c10 -4 16 -6.66699 18 -8c5.33301 -4 8 -9.66699 8 -17s-2.5 -13 -7.5 -17s-14.5 -6 -28.5 -6z" />
    <glyph glyph-name="Ccedilla" unicode="&#xc7;" horiz-adv-x="620" 
d="M309 363l-73.0029 3.00293c-10.667 0 -19.5 1.66699 -26.5 5s-10.5 9.66602 -10.5 18.999c0 8 2.5 14.5 7.5 19.5s13.5 7.5 25.5 7.5l77 5c34.667 0 66 10 94 30c36.667 26 55 64 55 114c0 43.333 -13.833 76.333 -41.5 99s-68.167 34 -121.5 34
c-36.667 0 -72.667 -12.333 -108 -37l-91 -81c-12.667 0 -19.834 5.16699 -21.501 15.5s-2.83398 20.5 -3.50098 30.5c-1.33301 5.33301 -3.16602 11.5 -5.49902 18.5s-3.5 12.167 -3.5 15.5c0 5.33301 6 13.666 18 24.999c22 18 55.833 33.167 101.5 45.5
s87.834 18.5 126.501 18.5c67.333 0 124 -15.667 170 -47c50 -34 75 -79.667 75 -137c0 -42 -17.333 -78.667 -52 -110c-29.333 -26.667 -67 -45.334 -113 -56.001c55.333 -9.33301 100.333 -28.333 135 -57c42 -35.333 63 -80.666 63 -135.999
c0 -74.667 -30 -131.334 -90 -170.001c-53.333 -34.667 -123.333 -52 -210 -52c-54 0 -103.667 11.333 -149 34c-55.333 27.333 -91.666 67 -108.999 119c-3.33301 11.333 -5 20.333 -5 27c0 17.333 2.83301 26.5 8.5 27.5s9.66699 1.5 12 1.5h4.5c10 0 18 -4.33301 24 -13
l28 -49c18 -31.333 42.833 -55.333 74.5 -72s66.834 -25 105.501 -25c64 0 114.833 14.333 152.5 43s56.5 70.334 56.5 125.001c0 51.333 -18.667 91.666 -56 120.999c-33.333 26 -74.666 39 -123.999 39z" />
    <glyph glyph-name="Ccedilla" unicode="&#x417;" horiz-adv-x="620" 
d="M309 363l-73.0029 3.00293c-10.667 0 -19.5 1.66699 -26.5 5s-10.5 9.66602 -10.5 18.999c0 8 2.5 14.5 7.5 19.5s13.5 7.5 25.5 7.5l77 5c34.667 0 66 10 94 30c36.667 26 55 64 55 114c0 43.333 -13.833 76.333 -41.5 99s-68.167 34 -121.5 34
c-36.667 0 -72.667 -12.333 -108 -37l-91 -81c-12.667 0 -19.834 5.16699 -21.501 15.5s-2.83398 20.5 -3.50098 30.5c-1.33301 5.33301 -3.16602 11.5 -5.49902 18.5s-3.5 12.167 -3.5 15.5c0 5.33301 6 13.666 18 24.999c22 18 55.833 33.167 101.5 45.5
s87.834 18.5 126.501 18.5c67.333 0 124 -15.667 170 -47c50 -34 75 -79.667 75 -137c0 -42 -17.333 -78.667 -52 -110c-29.333 -26.667 -67 -45.334 -113 -56.001c55.333 -9.33301 100.333 -28.333 135 -57c42 -35.333 63 -80.666 63 -135.999
c0 -74.667 -30 -131.334 -90 -170.001c-53.333 -34.667 -123.333 -52 -210 -52c-54 0 -103.667 11.333 -149 34c-55.333 27.333 -91.666 67 -108.999 119c-3.33301 11.333 -5 20.333 -5 27c0 17.333 2.83301 26.5 8.5 27.5s9.66699 1.5 12 1.5h4.5c10 0 18 -4.33301 24 -13
l28 -49c18 -31.333 42.833 -55.333 74.5 -72s66.834 -25 105.501 -25c64 0 114.833 14.333 152.5 43s56.5 70.334 56.5 125.001c0 51.333 -18.667 91.666 -56 120.999c-33.333 26 -74.666 39 -123.999 39z" />
    <glyph glyph-name="Egrave" unicode="&#xc8;" horiz-adv-x="800" 
d="M180 127l-0.000976562 -56.0039c0 -6 3.66699 -11 11 -15c10 -4 17 -6.66699 21 -8c10 -4 16.333 -6.66699 19 -8c5.33301 -4 8 -9.66699 8 -17s-2.5 -13 -7.5 -17s-14.5 -6 -28.5 -6h-138c-11.333 0 -20.166 1.33301 -26.499 4s-9.5 9 -9.5 19c0 8 3 13.667 9 17
s11.667 5.66602 17 6.99902c18 5.33301 28.333 10.833 31 16.5s4 19.834 4 42.501v555c0 5.33301 -1.66699 9.33301 -5 12s-12.333 6.33398 -27 11.001c-5.33301 1.33301 -10.333 3 -15 5c-9.33301 4 -14 11 -14 21c0 7.33301 2.5 12.833 7.5 16.5s14.833 5.5 29.5 5.5h138
c10.667 0 19.167 -1.33301 25.5 -4s9.5 -8.66699 9.5 -18c0 -7.33301 -2.33301 -13 -7 -17c-2 -2 -9.16699 -5.16699 -21.5 -9.5s-20.5 -9.16602 -24.5 -14.499s-6 -15 -6 -29v-14v-425l433 433v28c0 6 -3.16699 10.667 -9.5 14s-14.166 6 -23.499 8
c-10 3.33301 -16.333 6 -19 8c-6 4 -9 10 -9 18c0 7.33301 2.33301 12.833 7 16.5s14 5.5 28 5.5h142c10.667 0 19.167 -1.33301 25.5 -4s9.5 -8.66699 9.5 -18c0 -7.33301 -2 -12.666 -6 -15.999s-12.333 -6.83301 -25 -10.5s-20.834 -8.16699 -24.501 -13.5
s-5.5 -15.666 -5.5 -30.999v-13v-546c0 -12.667 6.33301 -21.667 19 -27l11 -5l9 -5c6 -3.33301 12 -6.33301 18 -9c2.66699 -2.66699 4 -6.33398 4 -11.001c0 -7.33301 -2.5 -13 -7.5 -17s-14.167 -6 -27.5 -6h-141c-11.333 0 -20.166 1.33301 -26.499 4s-9.5 9 -9.5 19
c0 7.33301 2.16699 12.5 6.5 15.5s10.5 5.83301 18.5 8.5c17.333 4.66699 27.666 10.334 30.999 17.001s5 20.667 5 42v454z" />
    <glyph glyph-name="Egrave" unicode="&#x418;" horiz-adv-x="800" 
d="M180 127l-0.000976562 -56.0039c0 -6 3.66699 -11 11 -15c10 -4 17 -6.66699 21 -8c10 -4 16.333 -6.66699 19 -8c5.33301 -4 8 -9.66699 8 -17s-2.5 -13 -7.5 -17s-14.5 -6 -28.5 -6h-138c-11.333 0 -20.166 1.33301 -26.499 4s-9.5 9 -9.5 19c0 8 3 13.667 9 17
s11.667 5.66602 17 6.99902c18 5.33301 28.333 10.833 31 16.5s4 19.834 4 42.501v555c0 5.33301 -1.66699 9.33301 -5 12s-12.333 6.33398 -27 11.001c-5.33301 1.33301 -10.333 3 -15 5c-9.33301 4 -14 11 -14 21c0 7.33301 2.5 12.833 7.5 16.5s14.833 5.5 29.5 5.5h138
c10.667 0 19.167 -1.33301 25.5 -4s9.5 -8.66699 9.5 -18c0 -7.33301 -2.33301 -13 -7 -17c-2 -2 -9.16699 -5.16699 -21.5 -9.5s-20.5 -9.16602 -24.5 -14.499s-6 -15 -6 -29v-14v-425l433 433v28c0 6 -3.16699 10.667 -9.5 14s-14.166 6 -23.499 8
c-10 3.33301 -16.333 6 -19 8c-6 4 -9 10 -9 18c0 7.33301 2.33301 12.833 7 16.5s14 5.5 28 5.5h142c10.667 0 19.167 -1.33301 25.5 -4s9.5 -8.66699 9.5 -18c0 -7.33301 -2 -12.666 -6 -15.999s-12.333 -6.83301 -25 -10.5s-20.834 -8.16699 -24.501 -13.5
s-5.5 -15.666 -5.5 -30.999v-13v-546c0 -12.667 6.33301 -21.667 19 -27l11 -5l9 -5c6 -3.33301 12 -6.33301 18 -9c2.66699 -2.66699 4 -6.33398 4 -11.001c0 -7.33301 -2.5 -13 -7.5 -17s-14.167 -6 -27.5 -6h-141c-11.333 0 -20.166 1.33301 -26.499 4s-9.5 9 -9.5 19
c0 7.33301 2.16699 12.5 6.5 15.5s10.5 5.83301 18.5 8.5c17.333 4.66699 27.666 10.334 30.999 17.001s5 20.667 5 42v454z" />
    <glyph glyph-name="Eacute" unicode="&#xc9;" horiz-adv-x="800" 
d="M521 886c10.667 0 15.999 -6.00098 15.999 -18.001c0 -10.667 -2.16699 -21.167 -6.5 -31.5s-10.5 -20.166 -18.5 -29.499c-27.333 -34.667 -64.666 -52 -111.999 -52c-19.333 0 -37.666 2.83301 -54.999 8.5s-32.666 14 -45.999 25s-25 23.667 -35 38
s-15 28.166 -15 41.499c0 6 2 11.333 6 16s9 7 15 7c3.33301 0 16.166 -14.167 38.499 -42.5s53.166 -42.5 92.499 -42.5c16 0 32.333 4.66699 49 14s29.667 21 39 35c7.33301 12.667 11.333 19.334 12 20.001c6 7.33301 12.667 11 20 11zM179.999 126.999
l-0.000976562 -56.0039c0 -6 3.66699 -11 11 -15c10 -4 17 -6.66699 21 -8c10 -4 16.333 -6.66699 19 -8c5.33301 -4 8 -9.66699 8 -17s-2.5 -13 -7.5 -17s-14.5 -6 -28.5 -6h-138c-11.333 0 -20.166 1.33301 -26.499 4s-9.5 9 -9.5 19c0 8 3 13.667 9 17
s11.667 5.66602 17 6.99902c18 5.33301 28.333 10.833 31 16.5s4 19.834 4 42.501v555c0 5.33301 -1.66699 9.33301 -5 12s-12.333 6.33398 -27 11.001c-5.33301 1.33301 -10.333 3 -15 5c-9.33301 4 -14 11 -14 21c0 7.33301 2.5 12.833 7.5 16.5s14.833 5.5 29.5 5.5h138
c10.667 0 19.167 -1.33301 25.5 -4s9.5 -8.66699 9.5 -18c0 -7.33301 -2.33301 -13 -7 -17c-2 -2 -9.16699 -5.16699 -21.5 -9.5s-20.5 -9.16602 -24.5 -14.499s-6 -15 -6 -29v-14v-425l433 433v28c0 6 -3.16699 10.667 -9.5 14s-14.166 6 -23.499 8
c-10 3.33301 -16.333 6 -19 8c-6 4 -9 10 -9 18c0 7.33301 2.33301 12.833 7 16.5s14 5.5 28 5.5h142c10.667 0 19.167 -1.33301 25.5 -4s9.5 -8.66699 9.5 -18c0 -7.33301 -2 -12.666 -6 -15.999s-12.333 -6.83301 -25 -10.5s-20.834 -8.16699 -24.501 -13.5
s-5.5 -15.666 -5.5 -30.999v-13v-546c0 -12.667 6.33301 -21.667 19 -27l11 -5l9 -5c6 -3.33301 12 -6.33301 18 -9c2.66699 -2.66699 4 -6.33398 4 -11.001c0 -7.33301 -2.5 -13 -7.5 -17s-14.167 -6 -27.5 -6h-141c-11.333 0 -20.166 1.33301 -26.499 4s-9.5 9 -9.5 19
c0 7.33301 2.16699 12.5 6.5 15.5s10.5 5.83301 18.5 8.5c17.333 4.66699 27.666 10.334 30.999 17.001s5 20.667 5 42v454z" />
    <glyph glyph-name="Eacute" unicode="&#x419;" horiz-adv-x="800" 
d="M521 886c10.667 0 15.999 -6.00098 15.999 -18.001c0 -10.667 -2.16699 -21.167 -6.5 -31.5s-10.5 -20.166 -18.5 -29.499c-27.333 -34.667 -64.666 -52 -111.999 -52c-19.333 0 -37.666 2.83301 -54.999 8.5s-32.666 14 -45.999 25s-25 23.667 -35 38
s-15 28.166 -15 41.499c0 6 2 11.333 6 16s9 7 15 7c3.33301 0 16.166 -14.167 38.499 -42.5s53.166 -42.5 92.499 -42.5c16 0 32.333 4.66699 49 14s29.667 21 39 35c7.33301 12.667 11.333 19.334 12 20.001c6 7.33301 12.667 11 20 11zM179.999 126.999
l-0.000976562 -56.0039c0 -6 3.66699 -11 11 -15c10 -4 17 -6.66699 21 -8c10 -4 16.333 -6.66699 19 -8c5.33301 -4 8 -9.66699 8 -17s-2.5 -13 -7.5 -17s-14.5 -6 -28.5 -6h-138c-11.333 0 -20.166 1.33301 -26.499 4s-9.5 9 -9.5 19c0 8 3 13.667 9 17
s11.667 5.66602 17 6.99902c18 5.33301 28.333 10.833 31 16.5s4 19.834 4 42.501v555c0 5.33301 -1.66699 9.33301 -5 12s-12.333 6.33398 -27 11.001c-5.33301 1.33301 -10.333 3 -15 5c-9.33301 4 -14 11 -14 21c0 7.33301 2.5 12.833 7.5 16.5s14.833 5.5 29.5 5.5h138
c10.667 0 19.167 -1.33301 25.5 -4s9.5 -8.66699 9.5 -18c0 -7.33301 -2.33301 -13 -7 -17c-2 -2 -9.16699 -5.16699 -21.5 -9.5s-20.5 -9.16602 -24.5 -14.499s-6 -15 -6 -29v-14v-425l433 433v28c0 6 -3.16699 10.667 -9.5 14s-14.166 6 -23.499 8
c-10 3.33301 -16.333 6 -19 8c-6 4 -9 10 -9 18c0 7.33301 2.33301 12.833 7 16.5s14 5.5 28 5.5h142c10.667 0 19.167 -1.33301 25.5 -4s9.5 -8.66699 9.5 -18c0 -7.33301 -2 -12.666 -6 -15.999s-12.333 -6.83301 -25 -10.5s-20.834 -8.16699 -24.501 -13.5
s-5.5 -15.666 -5.5 -30.999v-13v-546c0 -12.667 6.33301 -21.667 19 -27l11 -5l9 -5c6 -3.33301 12 -6.33301 18 -9c2.66699 -2.66699 4 -6.33398 4 -11.001c0 -7.33301 -2.5 -13 -7.5 -17s-14.167 -6 -27.5 -6h-141c-11.333 0 -20.166 1.33301 -26.499 4s-9.5 9 -9.5 19
c0 7.33301 2.16699 12.5 6.5 15.5s10.5 5.83301 18.5 8.5c17.333 4.66699 27.666 10.334 30.999 17.001s5 20.667 5 42v454z" />
    <glyph glyph-name="Ecircumflex" unicode="&#xca;" horiz-adv-x="700" 
d="M181 259l0.00195312 -187.997c0 -6 3.66699 -11 11 -15c10 -4 17 -6.66699 21 -8c10 -4 16 -6.66699 18 -8c5.33301 -4 8 -9.66699 8 -17c0 -6.66699 -2.66699 -12.167 -8 -16.5s-14.666 -6.5 -27.999 -6.5h-138c-11.333 0 -20.166 1.33301 -26.499 4s-9.5 9 -9.5 19
c0 8 3 13.667 9 17s11.667 5.66602 17 6.99902c17.333 4.66699 27.666 10.334 30.999 17.001s5 20.667 5 42v556c0 6 -3 10.667 -9 14s-12.667 5.83301 -20 7.5s-13.666 3.5 -18.999 5.5c-8.66699 4 -13 11 -13 21c0 7.33301 2.33301 12.833 7 16.5s14 5.5 28 5.5h137
c11.333 0 20.166 -1.33301 26.499 -4s9.5 -8.66699 9.5 -18c0 -5.33301 -1.33301 -9.5 -4 -12.5s-9.33398 -7.16699 -20.001 -12.5c-16 -6.66699 -25.5 -12.167 -28.5 -16.5s-4.5 -13.833 -4.5 -28.5v-14v-291l170 161l91 94c17.333 20 26.333 30.333 27 31
c12 15.333 18 27.666 18 36.999c0 12.667 -8.83301 22.167 -26.5 28.5s-26.5 15.166 -26.5 26.499c0 8 3 13.167 9 15.5s13.667 3.5 23 3.5h147c13.333 0 23 -0.833008 29 -2.5s9 -7.16699 9 -16.5c0 -6.66699 -1.83301 -11.834 -5.5 -15.501s-9.5 -7.16699 -17.5 -10.5
c-19.333 -9.33301 -35 -19.333 -47 -30c-8 -7.33301 -21 -21.666 -39 -42.999l-165 -176l25 -26c45.333 -49.333 85 -96.333 119 -141c42 -56 74.667 -108.667 98 -158l15 -30c9.33301 -15.333 22.666 -26.333 39.999 -33c11.333 -4.66699 18 -7.66699 20 -9
c6 -4.66699 9 -11.334 9 -20.001c0 -8 -3.66699 -13.5 -11 -16.5s-15.333 -4.5 -24 -4.5h-130c-14.667 0 -24.334 0.666992 -29.001 2c-12 3.33301 -18 10.333 -18 21c0 7.33301 4 13.333 12 18c18.667 10.667 28 20.667 28 30c0 26 -29.667 78.667 -89 158
c-51.333 68.667 -94 119 -128 151z" />
    <glyph glyph-name="Ecircumflex" unicode="&#x41a;" horiz-adv-x="700" 
d="M181 259l0.00195312 -187.997c0 -6 3.66699 -11 11 -15c10 -4 17 -6.66699 21 -8c10 -4 16 -6.66699 18 -8c5.33301 -4 8 -9.66699 8 -17c0 -6.66699 -2.66699 -12.167 -8 -16.5s-14.666 -6.5 -27.999 -6.5h-138c-11.333 0 -20.166 1.33301 -26.499 4s-9.5 9 -9.5 19
c0 8 3 13.667 9 17s11.667 5.66602 17 6.99902c17.333 4.66699 27.666 10.334 30.999 17.001s5 20.667 5 42v556c0 6 -3 10.667 -9 14s-12.667 5.83301 -20 7.5s-13.666 3.5 -18.999 5.5c-8.66699 4 -13 11 -13 21c0 7.33301 2.33301 12.833 7 16.5s14 5.5 28 5.5h137
c11.333 0 20.166 -1.33301 26.499 -4s9.5 -8.66699 9.5 -18c0 -5.33301 -1.33301 -9.5 -4 -12.5s-9.33398 -7.16699 -20.001 -12.5c-16 -6.66699 -25.5 -12.167 -28.5 -16.5s-4.5 -13.833 -4.5 -28.5v-14v-291l170 161l91 94c17.333 20 26.333 30.333 27 31
c12 15.333 18 27.666 18 36.999c0 12.667 -8.83301 22.167 -26.5 28.5s-26.5 15.166 -26.5 26.499c0 8 3 13.167 9 15.5s13.667 3.5 23 3.5h147c13.333 0 23 -0.833008 29 -2.5s9 -7.16699 9 -16.5c0 -6.66699 -1.83301 -11.834 -5.5 -15.501s-9.5 -7.16699 -17.5 -10.5
c-19.333 -9.33301 -35 -19.333 -47 -30c-8 -7.33301 -21 -21.666 -39 -42.999l-165 -176l25 -26c45.333 -49.333 85 -96.333 119 -141c42 -56 74.667 -108.667 98 -158l15 -30c9.33301 -15.333 22.666 -26.333 39.999 -33c11.333 -4.66699 18 -7.66699 20 -9
c6 -4.66699 9 -11.334 9 -20.001c0 -8 -3.66699 -13.5 -11 -16.5s-15.333 -4.5 -24 -4.5h-130c-14.667 0 -24.334 0.666992 -29.001 2c-12 3.33301 -18 10.333 -18 21c0 7.33301 4 13.333 12 18c18.667 10.667 28 20.667 28 30c0 26 -29.667 78.667 -89 158
c-51.333 68.667 -94 119 -128 151z" />
    <glyph glyph-name="Edieresis" unicode="&#xcb;" horiz-adv-x="700" 
d="M66 191c18.667 66.667 43.0029 137.663 73.0029 212.996c34.667 88.667 70.334 165.667 107.001 231c4 7.33301 6 13.666 6 18.999c0 6.66699 -2.66699 12.334 -8 17.001s-14 9 -26 13c-5.33301 1.33301 -10.333 3 -15 5c-9.33301 4 -14 11 -14 21
c0 7.33301 2.5 12.833 7.5 16.5s14.833 5.5 29.5 5.5h403c10.667 0 19.167 -1.33301 25.5 -4s9.5 -8.66699 9.5 -18c0 -7.33301 -2 -12.666 -6 -15.999s-12.333 -6.83301 -25 -10.5s-20.834 -8.16699 -24.501 -13.5s-5.5 -15.666 -5.5 -30.999v-13v-546
c0 -12 6.33301 -21 19 -27l20 -10c6 -3.33301 12 -6.33301 18 -9c2.66699 -2.66699 4 -6.33398 4 -11.001c0 -7.33301 -2.5 -13 -7.5 -17s-14.167 -6 -27.5 -6h-141c-11.333 0 -20.166 1.33301 -26.499 4s-9.5 9 -9.5 19c0 7.33301 2.16699 12.5 6.5 15.5
s10.5 5.83301 18.5 8.5c17.333 4.66699 27.666 10.334 30.999 17.001s5 20.667 5 42v551c0 6.66699 -3.5 12.167 -10.5 16.5s-14.5 6.5 -22.5 6.5h-115c-9.33301 0 -16.333 -1.5 -21 -4.5s-10.334 -10.167 -17.001 -21.5l-48 -97c-35.333 -73.333 -60 -128.666 -74 -165.999
c-20.667 -56 -38.334 -106.333 -53.001 -151c-24 -74.667 -36 -125 -36 -151c0 -18 10.833 -32 32.5 -42s32.5 -19.333 32.5 -28c0 -8 -2.5 -13.333 -7.5 -16s-12.167 -4 -21.5 -4h-135c-10.667 0 -17.334 1 -20.001 3s-4 5.66699 -4 11c0 6 1.66699 11.833 5 17.5
s7.66602 10.834 12.999 15.501c10.667 8.66699 18.334 19.667 23.001 33z" />
    <glyph glyph-name="Edieresis" unicode="&#x41b;" horiz-adv-x="700" 
d="M66 191c18.667 66.667 43.0029 137.663 73.0029 212.996c34.667 88.667 70.334 165.667 107.001 231c4 7.33301 6 13.666 6 18.999c0 6.66699 -2.66699 12.334 -8 17.001s-14 9 -26 13c-5.33301 1.33301 -10.333 3 -15 5c-9.33301 4 -14 11 -14 21
c0 7.33301 2.5 12.833 7.5 16.5s14.833 5.5 29.5 5.5h403c10.667 0 19.167 -1.33301 25.5 -4s9.5 -8.66699 9.5 -18c0 -7.33301 -2 -12.666 -6 -15.999s-12.333 -6.83301 -25 -10.5s-20.834 -8.16699 -24.501 -13.5s-5.5 -15.666 -5.5 -30.999v-13v-546
c0 -12 6.33301 -21 19 -27l20 -10c6 -3.33301 12 -6.33301 18 -9c2.66699 -2.66699 4 -6.33398 4 -11.001c0 -7.33301 -2.5 -13 -7.5 -17s-14.167 -6 -27.5 -6h-141c-11.333 0 -20.166 1.33301 -26.499 4s-9.5 9 -9.5 19c0 7.33301 2.16699 12.5 6.5 15.5
s10.5 5.83301 18.5 8.5c17.333 4.66699 27.666 10.334 30.999 17.001s5 20.667 5 42v551c0 6.66699 -3.5 12.167 -10.5 16.5s-14.5 6.5 -22.5 6.5h-115c-9.33301 0 -16.333 -1.5 -21 -4.5s-10.334 -10.167 -17.001 -21.5l-48 -97c-35.333 -73.333 -60 -128.666 -74 -165.999
c-20.667 -56 -38.334 -106.333 -53.001 -151c-24 -74.667 -36 -125 -36 -151c0 -18 10.833 -32 32.5 -42s32.5 -19.333 32.5 -28c0 -8 -2.5 -13.333 -7.5 -16s-12.167 -4 -21.5 -4h-135c-10.667 0 -17.334 1 -20.001 3s-4 5.66699 -4 11c0 6 1.66699 11.833 5 17.5
s7.66602 10.834 12.999 15.501c10.667 8.66699 18.334 19.667 23.001 33z" />
    <glyph glyph-name="Igrave" unicode="&#xcc;" horiz-adv-x="860" 
d="M422 230l110.996 230.002l97 230c5.33301 14.667 9.33301 24 12 28c6 9.33301 14.333 14 25 14h129c10 0 17.167 -1.33301 21.5 -4s6.5 -9.66699 6.5 -21c0 -6 -2.5 -10.667 -7.5 -14s-13.167 -6.5 -24.5 -9.5s-19 -5.83301 -23 -8.5c-8.66699 -6 -13 -20 -13 -42v-562
c0 -5.33301 1.83301 -9.33301 5.5 -12s13.167 -6 28.5 -10s23.333 -6.33301 24 -7c6 -3.33301 9 -9.66602 9 -18.999c0 -7.33301 -2.5 -13 -7.5 -17s-14.5 -6 -28.5 -6h-135c-10.667 0 -19.167 1.33301 -25.5 4s-9.5 9 -9.5 19c0 7.33301 1.66699 12.333 5 15
s9.33301 5.66699 18 9c12.667 5.33301 20.667 9.66602 24 12.999s5 9.33301 5 18c-0.666992 10.667 -1 20 -1 28v524l-144 -336l-75 -155c-6.66699 -13.333 -11.334 -22 -14.001 -26c-8 -12 -15.667 -18 -23 -18s-13.666 3.33301 -18.999 10c-2 2 -5.66699 8.66699 -11 20
l-107 229l-98 242l-20 50v-571c1.33301 -8 5.83301 -13.833 13.5 -17.5s16.834 -7.33398 27.501 -11.001s16.667 -5.83398 18 -6.50098c6.66699 -4 10 -10.667 10 -20c0 -6.66699 -2.66699 -11.667 -8 -15s-11.666 -5 -18.999 -5h-120c-13.333 0 -22.666 1 -27.999 3
s-8 8.33301 -8 19c0 8.66699 3.33301 15 10 19c2 1.33301 6.66699 3.33301 14 6c14.667 6 23.5 11.5 26.5 16.5s4.5 16.167 4.5 33.5v552c0 21.333 -10.833 34.333 -32.5 39s-32.5 12 -32.5 22c0 7.33301 2.5 12.833 7.5 16.5s11.5 5.5 19.5 5.5h133
c10.667 0 19.667 -6.33301 27 -19c6.66699 -16.667 11.334 -28 14.001 -34z" />
    <glyph glyph-name="Igrave" unicode="&#x41c;" horiz-adv-x="860" 
d="M422 230l110.996 230.002l97 230c5.33301 14.667 9.33301 24 12 28c6 9.33301 14.333 14 25 14h129c10 0 17.167 -1.33301 21.5 -4s6.5 -9.66699 6.5 -21c0 -6 -2.5 -10.667 -7.5 -14s-13.167 -6.5 -24.5 -9.5s-19 -5.83301 -23 -8.5c-8.66699 -6 -13 -20 -13 -42v-562
c0 -5.33301 1.83301 -9.33301 5.5 -12s13.167 -6 28.5 -10s23.333 -6.33301 24 -7c6 -3.33301 9 -9.66602 9 -18.999c0 -7.33301 -2.5 -13 -7.5 -17s-14.5 -6 -28.5 -6h-135c-10.667 0 -19.167 1.33301 -25.5 4s-9.5 9 -9.5 19c0 7.33301 1.66699 12.333 5 15
s9.33301 5.66699 18 9c12.667 5.33301 20.667 9.66602 24 12.999s5 9.33301 5 18c-0.666992 10.667 -1 20 -1 28v524l-144 -336l-75 -155c-6.66699 -13.333 -11.334 -22 -14.001 -26c-8 -12 -15.667 -18 -23 -18s-13.666 3.33301 -18.999 10c-2 2 -5.66699 8.66699 -11 20
l-107 229l-98 242l-20 50v-571c1.33301 -8 5.83301 -13.833 13.5 -17.5s16.834 -7.33398 27.501 -11.001s16.667 -5.83398 18 -6.50098c6.66699 -4 10 -10.667 10 -20c0 -6.66699 -2.66699 -11.667 -8 -15s-11.666 -5 -18.999 -5h-120c-13.333 0 -22.666 1 -27.999 3
s-8 8.33301 -8 19c0 8.66699 3.33301 15 10 19c2 1.33301 6.66699 3.33301 14 6c14.667 6 23.5 11.5 26.5 16.5s4.5 16.167 4.5 33.5v552c0 21.333 -10.833 34.333 -32.5 39s-32.5 12 -32.5 22c0 7.33301 2.5 12.833 7.5 16.5s11.5 5.5 19.5 5.5h133
c10.667 0 19.667 -6.33301 27 -19c6.66699 -16.667 11.334 -28 14.001 -34z" />
    <glyph glyph-name="Iacute" unicode="&#xcd;" horiz-adv-x="800" 
d="M180 372l-0.000976562 -301.004c0 -6 3.66699 -11 11 -15c10 -4 17 -6.66699 21 -8c10 -4 16.333 -6.66699 19 -8c5.33301 -4 8 -9.66699 8 -17s-2.5 -13 -7.5 -17s-14.5 -6 -28.5 -6h-138c-11.333 0 -20.166 1.33301 -26.499 4s-9.5 9 -9.5 19c0 8 3 13.667 9 17
s11.667 5.66602 17 6.99902c18 5.33301 28.333 10.833 31 16.5s4 19.834 4 42.501v555c0 5.33301 -1.66699 9.33301 -5 12s-12.333 6.33398 -27 11.001c-5.33301 1.33301 -10.333 3 -15 5c-9.33301 4 -14 11 -14 21c0 7.33301 2.5 12.833 7.5 16.5s14.833 5.5 29.5 5.5h138
c10.667 0 19.167 -1.33301 25.5 -4s9.5 -8.66699 9.5 -18c0 -7.33301 -2.33301 -13 -7 -17c-2 -2 -9.16699 -5.16699 -21.5 -9.5s-20.5 -9.16602 -24.5 -14.499s-6 -15 -6 -29v-14v-202h433v238c0 6 -3.16699 10.667 -9.5 14s-14.166 6 -23.499 8
c-10 3.33301 -16.333 6 -19 8c-6 4 -9 10 -9 18c0 7.33301 2.33301 12.833 7 16.5s14 5.5 28 5.5h142c10.667 0 19.167 -1.33301 25.5 -4s9.5 -8.66699 9.5 -18c0 -7.33301 -2 -12.666 -6 -15.999s-12.333 -6.83301 -25 -10.5s-20.834 -8.16699 -24.501 -13.5
s-5.5 -15.666 -5.5 -30.999v-13v-546c0 -12.667 6.33301 -21.667 19 -27l11 -5l9 -5c6 -3.33301 12 -6.33301 18 -9c2.66699 -2.66699 4 -6.33398 4 -11.001c0 -7.33301 -2.5 -13 -7.5 -17s-14.167 -6 -27.5 -6h-141c-11.333 0 -20.166 1.33301 -26.499 4s-9.5 9 -9.5 19
c0 7.33301 2.16699 12.5 6.5 15.5s10.5 5.83301 18.5 8.5c17.333 4.66699 27.666 10.334 30.999 17.001s5 20.667 5 42v266h-433z" />
    <glyph glyph-name="Iacute" unicode="&#x41d;" horiz-adv-x="800" 
d="M180 372l-0.000976562 -301.004c0 -6 3.66699 -11 11 -15c10 -4 17 -6.66699 21 -8c10 -4 16.333 -6.66699 19 -8c5.33301 -4 8 -9.66699 8 -17s-2.5 -13 -7.5 -17s-14.5 -6 -28.5 -6h-138c-11.333 0 -20.166 1.33301 -26.499 4s-9.5 9 -9.5 19c0 8 3 13.667 9 17
s11.667 5.66602 17 6.99902c18 5.33301 28.333 10.833 31 16.5s4 19.834 4 42.501v555c0 5.33301 -1.66699 9.33301 -5 12s-12.333 6.33398 -27 11.001c-5.33301 1.33301 -10.333 3 -15 5c-9.33301 4 -14 11 -14 21c0 7.33301 2.5 12.833 7.5 16.5s14.833 5.5 29.5 5.5h138
c10.667 0 19.167 -1.33301 25.5 -4s9.5 -8.66699 9.5 -18c0 -7.33301 -2.33301 -13 -7 -17c-2 -2 -9.16699 -5.16699 -21.5 -9.5s-20.5 -9.16602 -24.5 -14.499s-6 -15 -6 -29v-14v-202h433v238c0 6 -3.16699 10.667 -9.5 14s-14.166 6 -23.499 8
c-10 3.33301 -16.333 6 -19 8c-6 4 -9 10 -9 18c0 7.33301 2.33301 12.833 7 16.5s14 5.5 28 5.5h142c10.667 0 19.167 -1.33301 25.5 -4s9.5 -8.66699 9.5 -18c0 -7.33301 -2 -12.666 -6 -15.999s-12.333 -6.83301 -25 -10.5s-20.834 -8.16699 -24.501 -13.5
s-5.5 -15.666 -5.5 -30.999v-13v-546c0 -12.667 6.33301 -21.667 19 -27l11 -5l9 -5c6 -3.33301 12 -6.33301 18 -9c2.66699 -2.66699 4 -6.33398 4 -11.001c0 -7.33301 -2.5 -13 -7.5 -17s-14.167 -6 -27.5 -6h-141c-11.333 0 -20.166 1.33301 -26.499 4s-9.5 9 -9.5 19
c0 7.33301 2.16699 12.5 6.5 15.5s10.5 5.83301 18.5 8.5c17.333 4.66699 27.666 10.334 30.999 17.001s5 20.667 5 42v266h-433z" />
    <glyph glyph-name="Icircumflex" unicode="&#xce;" horiz-adv-x="800" 
d="M388 -15c-49.333 0 -95.332 8.83496 -137.999 26.502s-80.834 44.167 -114.501 79.5s-58.5 76.166 -74.5 122.499s-24 95.833 -24 148.5c0 108.667 32.833 200 98.5 274s152.167 111 259.5 111c50 0 97.667 -9.5 143 -28.5s85 -46.167 119 -81.5s59.333 -76.5 76 -123.5
s25 -97.167 25 -150.5c0 -108.667 -34.5 -198.834 -103.5 -270.501s-157.833 -107.5 -266.5 -107.5zM393.001 37.002c40.667 0 78.0029 9.16699 112.003 27.5s63.667 44.5 89 78.5c20.667 28.667 36.167 62 46.5 100s15.5 76.333 15.5 115c0 42.667 -5 84.334 -15 125.001
s-26.333 76.5 -49 107.5s-51.5 56 -86.5 75s-71.833 28.5 -110.5 28.5c-40.667 0 -78.334 -10.5 -113.001 -31.5s-63.334 -49.5 -86.001 -85.5c-20 -30.667 -34.5 -63.834 -43.5 -99.501s-13.5 -73.834 -13.5 -114.501c0 -41.333 4.83301 -80.666 14.5 -117.999
s25.5 -72 47.5 -104s49.667 -57.333 83 -76s69.666 -28 108.999 -28z" />
    <glyph glyph-name="Icircumflex" unicode="&#x41e;" horiz-adv-x="800" 
d="M388 -15c-49.333 0 -95.332 8.83496 -137.999 26.502s-80.834 44.167 -114.501 79.5s-58.5 76.166 -74.5 122.499s-24 95.833 -24 148.5c0 108.667 32.833 200 98.5 274s152.167 111 259.5 111c50 0 97.667 -9.5 143 -28.5s85 -46.167 119 -81.5s59.333 -76.5 76 -123.5
s25 -97.167 25 -150.5c0 -108.667 -34.5 -198.834 -103.5 -270.501s-157.833 -107.5 -266.5 -107.5zM393.001 37.002c40.667 0 78.0029 9.16699 112.003 27.5s63.667 44.5 89 78.5c20.667 28.667 36.167 62 46.5 100s15.5 76.333 15.5 115c0 42.667 -5 84.334 -15 125.001
s-26.333 76.5 -49 107.5s-51.5 56 -86.5 75s-71.833 28.5 -110.5 28.5c-40.667 0 -78.334 -10.5 -113.001 -31.5s-63.334 -49.5 -86.001 -85.5c-20 -30.667 -34.5 -63.834 -43.5 -99.501s-13.5 -73.834 -13.5 -114.501c0 -41.333 4.83301 -80.666 14.5 -117.999
s25.5 -72 47.5 -104s49.667 -57.333 83 -76s69.666 -28 108.999 -28z" />
    <glyph glyph-name="Idieresis" unicode="&#xcf;" horiz-adv-x="800" 
d="M580 680l-365 -0.00488281c-16 -5.33301 -25.833 -10.166 -29.5 -14.499s-5.5 -13.166 -5.5 -26.499v-13v-555c0 -6 3.66699 -11 11 -15c10 -4 17 -6.66699 21 -8c10 -4 16.333 -6.66699 19 -8c5.33301 -4 8 -9.66699 8 -17s-2.5 -13 -7.5 -17s-14.5 -6 -28.5 -6h-138
c-11.333 0 -20.166 1.33301 -26.499 4s-9.5 9 -9.5 19c0 8 3 13.667 9 17s11.667 5.66602 17 6.99902c18 5.33301 28.333 10.833 31 16.5s4 19.834 4 42.501v555c0 5.33301 -1.66699 9.33301 -5 12s-12.333 6.33398 -27 11.001c-5.33301 1.33301 -10.333 3 -15 5
c-9.33301 4 -14 11 -14 21c0 7.33301 2.5 12.833 7.5 16.5s14.833 5.5 29.5 5.5h663c10.667 0 19.167 -1.33301 25.5 -4s9.5 -8.66699 9.5 -18c0 -7.33301 -2 -12.666 -6 -15.999s-12.333 -6.83301 -25 -10.5s-20.834 -8.16699 -24.501 -13.5s-5.5 -15.666 -5.5 -30.999v-13
v-546c0 -12.667 6.33301 -21.667 19 -27l11 -5l9 -5c6 -3.33301 12 -6.33301 18 -9c2.66699 -2.66699 4 -6.33398 4 -11.001c0 -7.33301 -2.5 -13 -7.5 -17s-14.167 -6 -27.5 -6h-141c-11.333 0 -20.166 1.33301 -26.499 4s-9.5 9 -9.5 19c0 7.33301 2.16699 12.5 6.5 15.5
s10.5 5.83301 18.5 8.5c17.333 4.66699 27.666 10.334 30.999 17.001s5 20.667 5 42v551c0 6.66699 -3.5 12.167 -10.5 16.5s-14.5 6.5 -22.5 6.5z" />
    <glyph glyph-name="Idieresis" unicode="&#x41f;" horiz-adv-x="800" 
d="M580 680l-365 -0.00488281c-16 -5.33301 -25.833 -10.166 -29.5 -14.499s-5.5 -13.166 -5.5 -26.499v-13v-555c0 -6 3.66699 -11 11 -15c10 -4 17 -6.66699 21 -8c10 -4 16.333 -6.66699 19 -8c5.33301 -4 8 -9.66699 8 -17s-2.5 -13 -7.5 -17s-14.5 -6 -28.5 -6h-138
c-11.333 0 -20.166 1.33301 -26.499 4s-9.5 9 -9.5 19c0 8 3 13.667 9 17s11.667 5.66602 17 6.99902c18 5.33301 28.333 10.833 31 16.5s4 19.834 4 42.501v555c0 5.33301 -1.66699 9.33301 -5 12s-12.333 6.33398 -27 11.001c-5.33301 1.33301 -10.333 3 -15 5
c-9.33301 4 -14 11 -14 21c0 7.33301 2.5 12.833 7.5 16.5s14.833 5.5 29.5 5.5h663c10.667 0 19.167 -1.33301 25.5 -4s9.5 -8.66699 9.5 -18c0 -7.33301 -2 -12.666 -6 -15.999s-12.333 -6.83301 -25 -10.5s-20.834 -8.16699 -24.501 -13.5s-5.5 -15.666 -5.5 -30.999v-13
v-546c0 -12.667 6.33301 -21.667 19 -27l11 -5l9 -5c6 -3.33301 12 -6.33301 18 -9c2.66699 -2.66699 4 -6.33398 4 -11.001c0 -7.33301 -2.5 -13 -7.5 -17s-14.167 -6 -27.5 -6h-141c-11.333 0 -20.166 1.33301 -26.499 4s-9.5 9 -9.5 19c0 7.33301 2.16699 12.5 6.5 15.5
s10.5 5.83301 18.5 8.5c17.333 4.66699 27.666 10.334 30.999 17.001s5 20.667 5 42v551c0 6.66699 -3.5 12.167 -10.5 16.5s-14.5 6.5 -22.5 6.5z" />
    <glyph glyph-name="Eth" unicode="&#xd0;" horiz-adv-x="620" 
d="M179 280l-0.00292969 -210.001c0 -6 3.33301 -10.667 10 -14s15 -6 25 -8c11.333 -3.33301 18.333 -5.66602 21 -6.99902c6 -4 9 -10 9 -18c0 -6.66699 -2.66699 -12.167 -8 -16.5s-14.666 -6.5 -27.999 -6.5h-140c-11.333 -0 -20.166 1.33301 -26.499 4s-9.5 9 -9.5 19
c0 7.33301 1.83301 12.333 5.5 15s9.83398 5.66699 18.501 9c14.667 5.33301 23.834 10.5 27.501 15.5s5.5 14.167 5.5 27.5v16v556c0 6 -3.66699 11 -11 15c-2 0.666992 -8.5 2.66699 -19.5 6s-17.833 6 -20.5 8c-6 4 -9 10 -9 18c0 7.33301 2.5 13 7.5 17s14.167 6 27.5 6
h260c49.333 0 86.166 -2.66699 110.499 -8s47.833 -14 70.5 -26c66 -33.333 99 -86 99 -158c0 -45.333 -15.333 -87.333 -46 -126c-26.667 -34 -62.667 -62 -108 -84c-38 -18.667 -80 -31.667 -126 -39s-94.333 -11 -145 -11zM178.997 602.999l0.000976562 -270.998
c80.667 0 150 13.333 208 40c76.667 35.333 115 88 115 158c0 24 -5.83301 46.5 -17.5 67.5s-27.334 37.833 -47.001 50.5s-41.667 21.167 -66 25.5s-49.833 6.5 -76.5 6.5c-17.333 0 -34 -0.833008 -50 -2.5s-29.667 -5.33398 -41 -11.001s-18.333 -13.334 -21 -23.001
s-4 -23.167 -4 -40.5z" />
    <glyph glyph-name="Eth" unicode="&#x420;" horiz-adv-x="620" 
d="M179 280l-0.00292969 -210.001c0 -6 3.33301 -10.667 10 -14s15 -6 25 -8c11.333 -3.33301 18.333 -5.66602 21 -6.99902c6 -4 9 -10 9 -18c0 -6.66699 -2.66699 -12.167 -8 -16.5s-14.666 -6.5 -27.999 -6.5h-140c-11.333 -0 -20.166 1.33301 -26.499 4s-9.5 9 -9.5 19
c0 7.33301 1.83301 12.333 5.5 15s9.83398 5.66699 18.501 9c14.667 5.33301 23.834 10.5 27.501 15.5s5.5 14.167 5.5 27.5v16v556c0 6 -3.66699 11 -11 15c-2 0.666992 -8.5 2.66699 -19.5 6s-17.833 6 -20.5 8c-6 4 -9 10 -9 18c0 7.33301 2.5 13 7.5 17s14.167 6 27.5 6
h260c49.333 0 86.166 -2.66699 110.499 -8s47.833 -14 70.5 -26c66 -33.333 99 -86 99 -158c0 -45.333 -15.333 -87.333 -46 -126c-26.667 -34 -62.667 -62 -108 -84c-38 -18.667 -80 -31.667 -126 -39s-94.333 -11 -145 -11zM178.997 602.999l0.000976562 -270.998
c80.667 0 150 13.333 208 40c76.667 35.333 115 88 115 158c0 24 -5.83301 46.5 -17.5 67.5s-27.334 37.833 -47.001 50.5s-41.667 21.167 -66 25.5s-49.833 6.5 -76.5 6.5c-17.333 0 -34 -0.833008 -50 -2.5s-29.667 -5.33398 -41 -11.001s-18.333 -13.334 -21 -23.001
s-4 -23.167 -4 -40.5z" />
    <glyph glyph-name="Ntilde" unicode="&#xd1;" horiz-adv-x="720" 
d="M685 621l0.000976562 -71.998c0 -9.33301 -1.83301 -17.333 -5.5 -24s-10.167 -10 -19.5 -10c-7.33301 0 -13.666 4.66699 -18.999 14c-5.33301 12 -9 20 -11 24c-12.667 26 -23 44.667 -31 56c-12 17.333 -27.667 33 -47 47c-37.333 26.667 -80.333 40 -129 40
c-43.333 0 -81.333 -8.5 -114 -25.5s-63.334 -43.167 -92.001 -78.5c-52.667 -64.667 -79 -139.334 -79 -224.001c0 -38 5.33301 -77.333 16 -118s26 -75.334 46 -104.001c25.333 -35.333 56.666 -61.5 93.999 -78.5s78.333 -25.5 123 -25.5c42 0 79.5 8 112.5 24
s65.833 40.333 98.5 73c5.33301 5.33301 10.666 11 15.999 17c7.33301 6.66699 14.666 10 21.999 10c14.667 0 22 -8 22 -24c0 -14.667 -13.333 -34.334 -40 -59.001c-20.667 -19.333 -40.667 -34.666 -60 -45.999c-27.333 -17.333 -56.833 -30.333 -88.5 -39
s-64.5 -13 -98.5 -13c-101.333 0 -187 33 -257 99c-72 68 -108 152.667 -108 254c0 109.333 37.833 204.833 113.5 286.5s168.167 122.5 277.5 122.5c66.667 0 130.334 -15.667 191.001 -47c14.667 -8 24.334 -13.667 29.001 -17c13.333 -8.66699 22 -15.667 26 -21
c8 -11.333 12 -25 12 -41z" />
    <glyph glyph-name="Ntilde" unicode="&#x421;" horiz-adv-x="720" 
d="M685 621l0.000976562 -71.998c0 -9.33301 -1.83301 -17.333 -5.5 -24s-10.167 -10 -19.5 -10c-7.33301 0 -13.666 4.66699 -18.999 14c-5.33301 12 -9 20 -11 24c-12.667 26 -23 44.667 -31 56c-12 17.333 -27.667 33 -47 47c-37.333 26.667 -80.333 40 -129 40
c-43.333 0 -81.333 -8.5 -114 -25.5s-63.334 -43.167 -92.001 -78.5c-52.667 -64.667 -79 -139.334 -79 -224.001c0 -38 5.33301 -77.333 16 -118s26 -75.334 46 -104.001c25.333 -35.333 56.666 -61.5 93.999 -78.5s78.333 -25.5 123 -25.5c42 0 79.5 8 112.5 24
s65.833 40.333 98.5 73c5.33301 5.33301 10.666 11 15.999 17c7.33301 6.66699 14.666 10 21.999 10c14.667 0 22 -8 22 -24c0 -14.667 -13.333 -34.334 -40 -59.001c-20.667 -19.333 -40.667 -34.666 -60 -45.999c-27.333 -17.333 -56.833 -30.333 -88.5 -39
s-64.5 -13 -98.5 -13c-101.333 0 -187 33 -257 99c-72 68 -108 152.667 -108 254c0 109.333 37.833 204.833 113.5 286.5s168.167 122.5 277.5 122.5c66.667 0 130.334 -15.667 191.001 -47c14.667 -8 24.334 -13.667 29.001 -17c13.333 -8.66699 22 -15.667 26 -21
c8 -11.333 12 -25 12 -41z" />
    <glyph glyph-name="Ograve" unicode="&#xd2;" horiz-adv-x="640" 
d="M364 613l0.00195312 -541.999c0 -6 3 -10.667 9 -14s14 -6.5 24 -9.5s17 -5.83301 21 -8.5s6 -8 6 -16c0 -7.33301 -2.5 -13 -7.5 -17s-14.5 -6 -28.5 -6h-139c-11.333 0 -20.166 1.33301 -26.499 4s-9.5 9 -9.5 19c0 8 3 13.667 9 17s11.667 5.66602 17 6.99902
c18 5.33301 28.333 10.833 31 16.5s4 19.834 4 42.501v513c0 26 -2.33301 42.833 -7 50.5s-17 11.5 -37 11.5c-12 0 -25 -0.833008 -39 -2.5s-29.833 -4.33398 -47.5 -8.00098s-32.834 -9.5 -45.501 -17.5c-6.66699 -4 -20.334 -14.667 -41.001 -32
c-4.66699 -4.66699 -9.83398 -9.33398 -15.501 -14.001s-11.167 -7 -16.5 -7c-13.333 0 -20 7.66699 -20 23l3 23l6 48c5.33301 25.333 13 38 23 38h555c10 -1.33301 16.333 -3.33301 19 -6s5.83398 -11.167 9.50098 -25.5s6.83398 -31.166 9.50098 -50.499l4 -26
c0 -14 -6 -21 -18 -21c-6.66699 0 -13.334 2.83301 -20.001 8.5s-11 9.5 -13 11.5c-17.333 14 -29.333 23 -36 27c-12 8 -25.333 14.167 -40 18.5s-29.5 7.5 -44.5 9.5s-29.833 3 -44.5 3c-26.667 0 -42.334 -3.66699 -47.001 -11s-7 -26.333 -7 -57z" />
    <glyph glyph-name="Ograve" unicode="&#x422;" horiz-adv-x="640" 
d="M364 613l0.00195312 -541.999c0 -6 3 -10.667 9 -14s14 -6.5 24 -9.5s17 -5.83301 21 -8.5s6 -8 6 -16c0 -7.33301 -2.5 -13 -7.5 -17s-14.5 -6 -28.5 -6h-139c-11.333 0 -20.166 1.33301 -26.499 4s-9.5 9 -9.5 19c0 8 3 13.667 9 17s11.667 5.66602 17 6.99902
c18 5.33301 28.333 10.833 31 16.5s4 19.834 4 42.501v513c0 26 -2.33301 42.833 -7 50.5s-17 11.5 -37 11.5c-12 0 -25 -0.833008 -39 -2.5s-29.833 -4.33398 -47.5 -8.00098s-32.834 -9.5 -45.501 -17.5c-6.66699 -4 -20.334 -14.667 -41.001 -32
c-4.66699 -4.66699 -9.83398 -9.33398 -15.501 -14.001s-11.167 -7 -16.5 -7c-13.333 0 -20 7.66699 -20 23l3 23l6 48c5.33301 25.333 13 38 23 38h555c10 -1.33301 16.333 -3.33301 19 -6s5.83398 -11.167 9.50098 -25.5s6.83398 -31.166 9.50098 -50.499l4 -26
c0 -14 -6 -21 -18 -21c-6.66699 0 -13.334 2.83301 -20.001 8.5s-11 9.5 -13 11.5c-17.333 14 -29.333 23 -36 27c-12 8 -25.333 14.167 -40 18.5s-29.5 7.5 -44.5 9.5s-29.833 3 -44.5 3c-26.667 0 -42.334 -3.66699 -47.001 -11s-7 -26.333 -7 -57z" />
    <glyph glyph-name="Oacute" unicode="&#xd3;" horiz-adv-x="700" 
d="M182 346c-20.667 30.667 -41.3281 72.002 -61.9951 124.002s-37 104.667 -49 158c-3.33301 15.333 -7.66602 27.666 -12.999 36.999s-14 17.333 -26 24c-8.66699 6 -13.334 9.33301 -14.001 10c-4.66699 4 -7.33398 8.33301 -8.00098 13c0 14 10.667 21 32 21h141
c9.33301 0 17 -1.33301 23 -4s9 -7.66699 9 -15c0 -6 -7.66699 -14.667 -23 -26s-23 -27.666 -23 -48.999c0.666992 -5.33301 1 -9.66602 1 -12.999c2.66699 -22.667 11.667 -56.334 27 -101.001s29.666 -80 42.999 -106c16.667 -32.667 39.667 -62.334 69 -89.001
c32 -29.333 60.667 -44 86 -44c22 0 42.667 12 62 36c13.333 16.667 27.666 41.334 42.999 74.001c19.333 41.333 34.666 77.333 45.999 108c17.333 46.667 26 82.667 26 108c0 40 -11.667 66 -35 78c-11.333 6 -17 14.333 -17 25c0 7.33301 2.5 12.166 7.5 14.499
s12.5 3.5 22.5 3.5h115c10 0 17.5 -0.833008 22.5 -2.5s7.5 -6.16699 7.5 -13.5c0 -6 -1.33301 -11.333 -4 -16l-19.5 -23.5c-6.33301 -7.66699 -11.5 -18.834 -15.5 -33.501c-20.667 -72 -47.334 -146.5 -80.001 -223.5s-69.334 -150.5 -110.001 -220.5
c-38 -65.333 -76.333 -115.333 -115 -150c-52.667 -47.333 -110.667 -71 -174 -71c-20 0 -37 3.66699 -51 11s-21 19 -21 35c1.33301 10.667 6.83301 20 16.5 28s20.834 12 33.501 12c8.66699 0 17 -0.666992 25 -2c26.667 -4.66699 42 -7 46 -7
c36.667 0 75.334 21.667 116.001 65c28.667 30.667 55 68 79 112c-12 -4 -25 -6 -39 -6c-33.333 0 -68.833 10.667 -106.5 32s-68.834 50.333 -93.501 87z" />
    <glyph glyph-name="Oacute" unicode="&#x423;" horiz-adv-x="700" 
d="M182 346c-20.667 30.667 -41.3281 72.002 -61.9951 124.002s-37 104.667 -49 158c-3.33301 15.333 -7.66602 27.666 -12.999 36.999s-14 17.333 -26 24c-8.66699 6 -13.334 9.33301 -14.001 10c-4.66699 4 -7.33398 8.33301 -8.00098 13c0 14 10.667 21 32 21h141
c9.33301 0 17 -1.33301 23 -4s9 -7.66699 9 -15c0 -6 -7.66699 -14.667 -23 -26s-23 -27.666 -23 -48.999c0.666992 -5.33301 1 -9.66602 1 -12.999c2.66699 -22.667 11.667 -56.334 27 -101.001s29.666 -80 42.999 -106c16.667 -32.667 39.667 -62.334 69 -89.001
c32 -29.333 60.667 -44 86 -44c22 0 42.667 12 62 36c13.333 16.667 27.666 41.334 42.999 74.001c19.333 41.333 34.666 77.333 45.999 108c17.333 46.667 26 82.667 26 108c0 40 -11.667 66 -35 78c-11.333 6 -17 14.333 -17 25c0 7.33301 2.5 12.166 7.5 14.499
s12.5 3.5 22.5 3.5h115c10 0 17.5 -0.833008 22.5 -2.5s7.5 -6.16699 7.5 -13.5c0 -6 -1.33301 -11.333 -4 -16l-19.5 -23.5c-6.33301 -7.66699 -11.5 -18.834 -15.5 -33.501c-20.667 -72 -47.334 -146.5 -80.001 -223.5s-69.334 -150.5 -110.001 -220.5
c-38 -65.333 -76.333 -115.333 -115 -150c-52.667 -47.333 -110.667 -71 -174 -71c-20 0 -37 3.66699 -51 11s-21 19 -21 35c1.33301 10.667 6.83301 20 16.5 28s20.834 12 33.501 12c8.66699 0 17 -0.666992 25 -2c26.667 -4.66699 42 -7 46 -7
c36.667 0 75.334 21.667 116.001 65c28.667 30.667 55 68 79 112c-12 -4 -25 -6 -39 -6c-33.333 0 -68.833 10.667 -106.5 32s-68.834 50.333 -93.501 87z" />
    <glyph glyph-name="Ocircumflex" unicode="&#xd4;" horiz-adv-x="900" 
d="M518 0h-135.996c-3.33301 -3.33301 -7.33301 -5 -12 -5c-6 0 -11.5 2.83301 -16.5 8.5s-7.5 12.167 -7.5 19.5s2.66699 13 8 17c2.66699 1.33301 8.16699 3.5 16.5 6.5s16.166 6 23.499 9s11 8.16699 11 15.5v58h-11h-14h-17h-14c-6 1.33301 -10.333 2 -13 2
c-86.667 10 -159.334 37 -218.001 81c-65.333 48.667 -98 108 -98 178c0 78.667 33.333 136 100 172c61.333 33.333 156.333 50 285 50v28c0 15.333 -1.33301 25.333 -4 30s-13 9.66699 -31 15c-8.66699 3.33301 -14.834 6.33301 -18.501 9s-5.5 8 -5.5 16
c0 7.33301 2.16699 12.833 6.5 16.5s13.833 5.5 28.5 5.5h138c11.333 0 20 -1.33301 26 -4s9 -8.66699 9 -18c0 -7.33301 -2.33301 -13 -7 -17c-2 -2 -9.83301 -5.16699 -23.5 -9.5s-21.834 -8.83301 -24.501 -13.5s-4 -14.667 -4 -30v-28c128 0 223 -16.667 285 -50
c66.667 -36 100 -93.333 100 -172c0 -69.333 -32.667 -128.333 -98 -177c-59.333 -44.667 -132 -72 -218 -82c-9.33301 -1.33301 -20.5 -2 -33.5 -2h-35.5v-58c0 -6 3.66699 -11 11 -15c10 -4 17 -6.66699 21 -8c10 -4 16.333 -6.66699 19 -8c5.33301 -4 8 -9.66699 8 -17
s-2.5 -13.833 -7.5 -19.5s-10.5 -8.5 -16.5 -8.5c-4.66699 0 -8.66699 1.66699 -12 5zM405.004 182l-0.000976562 377c-106.667 0 -182.667 -17.667 -228 -53c-36.667 -28.667 -55 -70.667 -55 -126c0 -54.667 31.667 -102 95 -142c58.667 -37.333 121.334 -56 188.001 -56z
M495.003 559v-377c67.333 0 130 18.333 188 55c63.333 40 95 87.667 95 143s-18 97 -54 125c-46 36 -122.333 54 -229 54z" />
    <glyph glyph-name="Ocircumflex" unicode="&#x424;" horiz-adv-x="900" 
d="M518 0h-135.996c-3.33301 -3.33301 -7.33301 -5 -12 -5c-6 0 -11.5 2.83301 -16.5 8.5s-7.5 12.167 -7.5 19.5s2.66699 13 8 17c2.66699 1.33301 8.16699 3.5 16.5 6.5s16.166 6 23.499 9s11 8.16699 11 15.5v58h-11h-14h-17h-14c-6 1.33301 -10.333 2 -13 2
c-86.667 10 -159.334 37 -218.001 81c-65.333 48.667 -98 108 -98 178c0 78.667 33.333 136 100 172c61.333 33.333 156.333 50 285 50v28c0 15.333 -1.33301 25.333 -4 30s-13 9.66699 -31 15c-8.66699 3.33301 -14.834 6.33301 -18.501 9s-5.5 8 -5.5 16
c0 7.33301 2.16699 12.833 6.5 16.5s13.833 5.5 28.5 5.5h138c11.333 0 20 -1.33301 26 -4s9 -8.66699 9 -18c0 -7.33301 -2.33301 -13 -7 -17c-2 -2 -9.83301 -5.16699 -23.5 -9.5s-21.834 -8.83301 -24.501 -13.5s-4 -14.667 -4 -30v-28c128 0 223 -16.667 285 -50
c66.667 -36 100 -93.333 100 -172c0 -69.333 -32.667 -128.333 -98 -177c-59.333 -44.667 -132 -72 -218 -82c-9.33301 -1.33301 -20.5 -2 -33.5 -2h-35.5v-58c0 -6 3.66699 -11 11 -15c10 -4 17 -6.66699 21 -8c10 -4 16.333 -6.66699 19 -8c5.33301 -4 8 -9.66699 8 -17
s-2.5 -13.833 -7.5 -19.5s-10.5 -8.5 -16.5 -8.5c-4.66699 0 -8.66699 1.66699 -12 5zM405.004 182l-0.000976562 377c-106.667 0 -182.667 -17.667 -228 -53c-36.667 -28.667 -55 -70.667 -55 -126c0 -54.667 31.667 -102 95 -142c58.667 -37.333 121.334 -56 188.001 -56z
M495.003 559v-377c67.333 0 130 18.333 188 55c63.333 40 95 87.667 95 143s-18 97 -54 125c-46 36 -122.333 54 -229 54z" />
    <glyph glyph-name="Otilde" unicode="&#xd5;" horiz-adv-x="700" 
d="M329 318l-12.0049 -14.002c-46 -59.333 -82.833 -110.166 -110.5 -152.499s-41.5 -69.5 -41.5 -81.5c0 -10 7.5 -18.333 22.5 -25s22.5 -15.334 22.5 -26.001c0 -8 -3 -13.167 -9 -15.5s-13.667 -3.5 -23 -3.5h-128c-15.333 0 -24.333 0.333008 -27 1
c-10 2.66699 -15 8.66699 -15 18c0 8.66699 4.33301 15.334 13 20.001c3.33301 2 11.666 5 24.999 9c14 5.33301 26.333 14.333 37 27c4.66699 6 13.334 19 26.001 39l68 97l110 148c-37.333 39.333 -74.666 85.333 -111.999 138c-31.333 44 -63.333 94 -96 150
c-6 10.667 -11.667 18.667 -17 24s-11.666 9.5 -18.999 12.5l-18.999 7.5c-9.33301 5.33301 -14 13 -14 23c0 7.33301 3.33301 12.166 10 14.499s14.334 3.5 23.001 3.5h140c13.333 0 22.5 -1.16699 27.5 -3.5s7.5 -6.5 7.5 -12.5c0 -6.66699 -5.33301 -13 -16 -19
s-16.667 -9.66699 -18 -11c-4.66699 -4.66699 -7 -11 -7 -19c0 -22.667 23 -63.334 69 -122.001c23.333 -29.333 56.666 -68 99.999 -116l93 115l42 55c19.333 28 29 48.333 29 61c0 14 -9.5 24.667 -28.5 32s-28.5 16 -28.5 26c0 6 2.5 9.83301 7.5 11.5
s11.167 2.5 18.5 2.5h145c10.667 0 18.667 -1 24 -3s8 -6.66699 8 -14c0 -6.66699 -1.66699 -11.667 -5 -15s-9.16602 -6.66602 -17.499 -9.99902s-14.666 -6.16602 -18.999 -8.49902s-9 -6.33301 -14 -12s-11.5 -14.5 -19.5 -26.5l-32 -49l-159 -207
c44.667 -47.333 78.334 -84.333 101.001 -111c35.333 -42 65 -82.667 89 -122l32 -53c9.33301 -14.667 18.166 -25.834 26.499 -33.501s18.333 -13.5 30 -17.5s19.834 -7.83301 24.501 -11.5s7 -9.5 7 -17.5c0 -6 -2.33301 -11 -7 -15s-13 -6 -25 -6h-154
c-8.66699 0 -16.334 1.33301 -23.001 4s-10 7.66699 -10 15c0 9.33301 8 17.333 24 24s24 14.334 24 23.001c0 16.667 -28.333 59 -85 127c-50.667 60.667 -89 102.334 -115 125.001z" />
    <glyph glyph-name="Otilde" unicode="&#x425;" horiz-adv-x="700" 
d="M329 318l-12.0049 -14.002c-46 -59.333 -82.833 -110.166 -110.5 -152.499s-41.5 -69.5 -41.5 -81.5c0 -10 7.5 -18.333 22.5 -25s22.5 -15.334 22.5 -26.001c0 -8 -3 -13.167 -9 -15.5s-13.667 -3.5 -23 -3.5h-128c-15.333 0 -24.333 0.333008 -27 1
c-10 2.66699 -15 8.66699 -15 18c0 8.66699 4.33301 15.334 13 20.001c3.33301 2 11.666 5 24.999 9c14 5.33301 26.333 14.333 37 27c4.66699 6 13.334 19 26.001 39l68 97l110 148c-37.333 39.333 -74.666 85.333 -111.999 138c-31.333 44 -63.333 94 -96 150
c-6 10.667 -11.667 18.667 -17 24s-11.666 9.5 -18.999 12.5l-18.999 7.5c-9.33301 5.33301 -14 13 -14 23c0 7.33301 3.33301 12.166 10 14.499s14.334 3.5 23.001 3.5h140c13.333 0 22.5 -1.16699 27.5 -3.5s7.5 -6.5 7.5 -12.5c0 -6.66699 -5.33301 -13 -16 -19
s-16.667 -9.66699 -18 -11c-4.66699 -4.66699 -7 -11 -7 -19c0 -22.667 23 -63.334 69 -122.001c23.333 -29.333 56.666 -68 99.999 -116l93 115l42 55c19.333 28 29 48.333 29 61c0 14 -9.5 24.667 -28.5 32s-28.5 16 -28.5 26c0 6 2.5 9.83301 7.5 11.5
s11.167 2.5 18.5 2.5h145c10.667 0 18.667 -1 24 -3s8 -6.66699 8 -14c0 -6.66699 -1.66699 -11.667 -5 -15s-9.16602 -6.66602 -17.499 -9.99902s-14.666 -6.16602 -18.999 -8.49902s-9 -6.33301 -14 -12s-11.5 -14.5 -19.5 -26.5l-32 -49l-159 -207
c44.667 -47.333 78.334 -84.333 101.001 -111c35.333 -42 65 -82.667 89 -122l32 -53c9.33301 -14.667 18.166 -25.834 26.499 -33.501s18.333 -13.5 30 -17.5s19.834 -7.83301 24.501 -11.5s7 -9.5 7 -17.5c0 -6 -2.33301 -11 -7 -15s-13 -6 -25 -6h-154
c-8.66699 0 -16.334 1.33301 -23.001 4s-10 7.66699 -10 15c0 9.33301 8 17.333 24 24s24 14.334 24 23.001c0 16.667 -28.333 59 -85 127c-50.667 60.667 -89 102.334 -115 125.001z" />
    <glyph glyph-name="Odieresis" unicode="&#xd6;" horiz-adv-x="800" 
d="M564 0l-498 -0.00488281c-11.333 0 -20.166 1.33301 -26.499 4s-9.5 9 -9.5 19c0 8 3 13.667 9 17s11.667 5.66602 17 6.99902c18 5.33301 28.333 10.833 31 16.5s4 19.834 4 42.501v555c0 5.33301 -1.66699 9.33301 -5 12s-12.333 6.33398 -27 11.001
c-5.33301 1.33301 -10.333 3 -15 5c-9.33301 4 -14 11 -14 21c0 7.33301 2.5 12.833 7.5 16.5s14.833 5.5 29.5 5.5h138c10.667 0 19.167 -1.33301 25.5 -4s9.5 -8.66699 9.5 -18c0 -7.33301 -2.33301 -13 -7 -17c-2 -2 -9.16699 -5.16699 -21.5 -9.5
s-20.5 -9.16602 -24.5 -14.499s-6 -15 -6 -29v-14v-554c0 -13.333 8 -20 24 -20h378c9.33301 0 16.833 5.16699 22.5 15.5s8.5 23.166 8.5 38.499v556c0 6.66699 -3.66699 12 -11 16s-14.666 6 -21.999 6c-10 3.33301 -16.333 6 -19 8c-6 4 -9 10 -9 18
c0 7.33301 2.33301 12.833 7 16.5s14 5.5 28 5.5h142c10.667 0 19.167 -1.33301 25.5 -4s9.5 -8.66699 9.5 -18c0 -7.33301 -2 -12.666 -6 -15.999s-12.333 -6.83301 -25 -10.5s-20.834 -8.16699 -24.501 -13.5s-5.5 -15.666 -5.5 -30.999v-13v-546
c0 -10.667 4.33301 -18.667 13 -24l6 -3l15 -2c8.66699 0 15 -2.16699 19 -6.5s8.16699 -15.666 12.5 -33.999s6.5 -32.166 6.5 -41.499l4 -26c0 -14 -6 -21 -18 -21c-6.66699 0 -13.334 2.83301 -20.001 8.5s-11 9.5 -13 11.5c-17.333 14 -29.333 23 -36 27
c-12 8 -25.333 14.167 -40 18.5s-29.5 7.5 -44.5 9.5s-29.833 3 -44.5 3z" />
    <glyph glyph-name="Odieresis" unicode="&#x426;" horiz-adv-x="800" 
d="M564 0l-498 -0.00488281c-11.333 0 -20.166 1.33301 -26.499 4s-9.5 9 -9.5 19c0 8 3 13.667 9 17s11.667 5.66602 17 6.99902c18 5.33301 28.333 10.833 31 16.5s4 19.834 4 42.501v555c0 5.33301 -1.66699 9.33301 -5 12s-12.333 6.33398 -27 11.001
c-5.33301 1.33301 -10.333 3 -15 5c-9.33301 4 -14 11 -14 21c0 7.33301 2.5 12.833 7.5 16.5s14.833 5.5 29.5 5.5h138c10.667 0 19.167 -1.33301 25.5 -4s9.5 -8.66699 9.5 -18c0 -7.33301 -2.33301 -13 -7 -17c-2 -2 -9.16699 -5.16699 -21.5 -9.5
s-20.5 -9.16602 -24.5 -14.499s-6 -15 -6 -29v-14v-554c0 -13.333 8 -20 24 -20h378c9.33301 0 16.833 5.16699 22.5 15.5s8.5 23.166 8.5 38.499v556c0 6.66699 -3.66699 12 -11 16s-14.666 6 -21.999 6c-10 3.33301 -16.333 6 -19 8c-6 4 -9 10 -9 18
c0 7.33301 2.33301 12.833 7 16.5s14 5.5 28 5.5h142c10.667 0 19.167 -1.33301 25.5 -4s9.5 -8.66699 9.5 -18c0 -7.33301 -2 -12.666 -6 -15.999s-12.333 -6.83301 -25 -10.5s-20.834 -8.16699 -24.501 -13.5s-5.5 -15.666 -5.5 -30.999v-13v-546
c0 -10.667 4.33301 -18.667 13 -24l6 -3l15 -2c8.66699 0 15 -2.16699 19 -6.5s8.16699 -15.666 12.5 -33.999s6.5 -32.166 6.5 -41.499l4 -26c0 -14 -6 -21 -18 -21c-6.66699 0 -13.334 2.83301 -20.001 8.5s-11 9.5 -13 11.5c-17.333 14 -29.333 23 -36 27
c-12 8 -25.333 14.167 -40 18.5s-29.5 7.5 -44.5 9.5s-29.833 3 -44.5 3z" />
    <glyph glyph-name="multiply" unicode="&#xd7;" horiz-adv-x="720" 
d="M304 264c-64 0 -116.666 16.3291 -157.999 48.9961c-44 34.667 -66 81.667 -66 141c0 32 1.66699 76 5 132c0.666992 18.667 2.33398 43.667 5.00098 75c0 4.66699 -3.33301 9 -10 13s-13.334 7 -20.001 9s-12.334 4 -17.001 6c-9.33301 4 -14 11 -14 21
c0 7.33301 2.5 12.833 7.5 16.5s14.833 5.5 29.5 5.5h138c10.667 0 19.167 -1.33301 25.5 -4s9.5 -8.66699 9.5 -18c0 -7.33301 -2.33301 -13 -7 -17c-2 -2 -9 -5.16699 -21 -9.5s-20.167 -9.33301 -24.5 -15s-6.5 -15.5 -6.5 -29.5v-13
c-2.66699 -26.667 -4.33398 -47.667 -5.00098 -63c-3.33301 -47.333 -5 -83.666 -5 -108.999c0 -39.333 15.5 -70.833 46.5 -94.5s72.167 -35.5 123.5 -35.5c38.667 0 82.334 10.667 131.001 32c16 6.66699 36.667 17.667 62 33v273c0 6 -3.16699 10.667 -9.5 14
s-14.166 6 -23.499 8c-10 3.33301 -16.333 6 -19 8c-6 4 -9 10 -9 18c0 7.33301 2.33301 12.833 7 16.5s14 5.5 28 5.5h142c10.667 0 19.167 -1.33301 25.5 -4s9.5 -8.66699 9.5 -18c0 -7.33301 -2 -12.666 -6 -15.999s-12.333 -6.83301 -25 -10.5
s-20.834 -8.16699 -24.501 -13.5s-5.5 -15.666 -5.5 -30.999v-13v-546c0 -12.667 6.33301 -21.667 19 -27l11 -5l9 -5c6 -3.33301 12 -6.33301 18 -9c2.66699 -2.66699 4 -6.33398 4 -11.001c0 -7.33301 -2.5 -13 -7.5 -17s-14.167 -6 -27.5 -6h-141
c-11.333 0 -20.166 1.33301 -26.499 4s-9.5 9 -9.5 19c0 7.33301 2.16699 12.5 6.5 15.5s10.5 5.83301 18.5 8.5c17.333 4.66699 27.666 10.334 30.999 17.001s5 20.667 5 42v226c-27.333 -15.333 -50.333 -26.666 -69 -33.999c-56 -22.667 -109.333 -34 -160 -34z" />
    <glyph glyph-name="multiply" unicode="&#x427;" horiz-adv-x="720" 
d="M304 264c-64 0 -116.666 16.3291 -157.999 48.9961c-44 34.667 -66 81.667 -66 141c0 32 1.66699 76 5 132c0.666992 18.667 2.33398 43.667 5.00098 75c0 4.66699 -3.33301 9 -10 13s-13.334 7 -20.001 9s-12.334 4 -17.001 6c-9.33301 4 -14 11 -14 21
c0 7.33301 2.5 12.833 7.5 16.5s14.833 5.5 29.5 5.5h138c10.667 0 19.167 -1.33301 25.5 -4s9.5 -8.66699 9.5 -18c0 -7.33301 -2.33301 -13 -7 -17c-2 -2 -9 -5.16699 -21 -9.5s-20.167 -9.33301 -24.5 -15s-6.5 -15.5 -6.5 -29.5v-13
c-2.66699 -26.667 -4.33398 -47.667 -5.00098 -63c-3.33301 -47.333 -5 -83.666 -5 -108.999c0 -39.333 15.5 -70.833 46.5 -94.5s72.167 -35.5 123.5 -35.5c38.667 0 82.334 10.667 131.001 32c16 6.66699 36.667 17.667 62 33v273c0 6 -3.16699 10.667 -9.5 14
s-14.166 6 -23.499 8c-10 3.33301 -16.333 6 -19 8c-6 4 -9 10 -9 18c0 7.33301 2.33301 12.833 7 16.5s14 5.5 28 5.5h142c10.667 0 19.167 -1.33301 25.5 -4s9.5 -8.66699 9.5 -18c0 -7.33301 -2 -12.666 -6 -15.999s-12.333 -6.83301 -25 -10.5
s-20.834 -8.16699 -24.501 -13.5s-5.5 -15.666 -5.5 -30.999v-13v-546c0 -12.667 6.33301 -21.667 19 -27l11 -5l9 -5c6 -3.33301 12 -6.33301 18 -9c2.66699 -2.66699 4 -6.33398 4 -11.001c0 -7.33301 -2.5 -13 -7.5 -17s-14.167 -6 -27.5 -6h-141
c-11.333 0 -20.166 1.33301 -26.499 4s-9.5 9 -9.5 19c0 7.33301 2.16699 12.5 6.5 15.5s10.5 5.83301 18.5 8.5c17.333 4.66699 27.666 10.334 30.999 17.001s5 20.667 5 42v226c-27.333 -15.333 -50.333 -26.666 -69 -33.999c-56 -22.667 -109.333 -34 -160 -34z" />
    <glyph glyph-name="Oslash" unicode="&#xd8;" horiz-adv-x="960" 
d="M205 52l206.001 -0.00292969c9.33301 3.33301 15.166 7.33301 17.499 12s3.5 13.334 3.5 26.001v16v556c0 6 -3.66699 11 -11 15l-19.5 6.5c-11 3.66699 -17.833 6.5 -20.5 8.5c-6 4 -9 10 -9 18c0 7.33301 2.5 12.833 7.5 16.5s14.5 5.5 28.5 5.5h138
c10.667 0 19.167 -1.33301 25.5 -4s9.5 -8.66699 9.5 -18c0 -7.33301 -2.33301 -13 -7 -17c-2 -2 -9.33301 -5.16699 -22 -9.5s-20.834 -9 -24.501 -14s-5.5 -14.833 -5.5 -29.5v-14v-555c0 -4.66699 1.66699 -8.33398 5 -11.001s8.33301 -5.33398 15 -8.00098h201
c11.333 0 19.333 3.33301 24 10s7 21.334 7 44.001v556c0 6.66699 -3.66699 12 -11 16s-14.666 6 -21.999 6c-10 3.33301 -16.333 6 -19 8c-6 4 -9 10 -9 18c0 7.33301 2.33301 12.833 7 16.5s14 5.5 28 5.5h142c10.667 0 19.167 -1.33301 25.5 -4s9.5 -8.66699 9.5 -18
c0 -7.33301 -2 -12.666 -6 -15.999s-12.333 -6.83301 -25 -10.5s-20.834 -8.16699 -24.501 -13.5s-5.5 -15.666 -5.5 -30.999v-13v-546c0 -12.667 6.33301 -21.667 19 -27l11 -5l9 -5c6 -3.33301 12 -6.33301 18 -9c2.66699 -2.66699 4 -6.33398 4 -11.001
c0 -6 -1.66699 -11.333 -5 -16c-6 -8.66699 -13.333 -13 -22 -13c-4 0 -6.66699 2 -8 6h-116h-593h-115c-1.33301 -4 -4.33301 -6 -9 -6c-5.33301 0 -11.166 2.83301 -17.499 8.5s-9.5 12.5 -9.5 20.5s3 13.667 9 17s11.667 5.66602 17 6.99902
c18 5.33301 28.333 10.833 31 16.5s4 19.834 4 42.501v555c0 5.33301 -1.66699 9.33301 -5 12s-12.333 6.33398 -27 11.001c-5.33301 1.33301 -10.333 3 -15 5c-9.33301 4 -14 11 -14 21c0 7.33301 2.5 12.833 7.5 16.5s14.833 5.5 29.5 5.5h138
c10.667 0 19.167 -1.33301 25.5 -4s9.5 -8.66699 9.5 -18c0 -7.33301 -2.33301 -13 -7 -17c-2 -2 -9.16699 -5.16699 -21.5 -9.5s-20.5 -9.16602 -24.5 -14.499s-6 -15 -6 -29v-14v-554c0 -13.333 8 -20 24 -20z" />
    <glyph glyph-name="Oslash" unicode="&#x428;" horiz-adv-x="960" 
d="M205 52l206.001 -0.00292969c9.33301 3.33301 15.166 7.33301 17.499 12s3.5 13.334 3.5 26.001v16v556c0 6 -3.66699 11 -11 15l-19.5 6.5c-11 3.66699 -17.833 6.5 -20.5 8.5c-6 4 -9 10 -9 18c0 7.33301 2.5 12.833 7.5 16.5s14.5 5.5 28.5 5.5h138
c10.667 0 19.167 -1.33301 25.5 -4s9.5 -8.66699 9.5 -18c0 -7.33301 -2.33301 -13 -7 -17c-2 -2 -9.33301 -5.16699 -22 -9.5s-20.834 -9 -24.501 -14s-5.5 -14.833 -5.5 -29.5v-14v-555c0 -4.66699 1.66699 -8.33398 5 -11.001s8.33301 -5.33398 15 -8.00098h201
c11.333 0 19.333 3.33301 24 10s7 21.334 7 44.001v556c0 6.66699 -3.66699 12 -11 16s-14.666 6 -21.999 6c-10 3.33301 -16.333 6 -19 8c-6 4 -9 10 -9 18c0 7.33301 2.33301 12.833 7 16.5s14 5.5 28 5.5h142c10.667 0 19.167 -1.33301 25.5 -4s9.5 -8.66699 9.5 -18
c0 -7.33301 -2 -12.666 -6 -15.999s-12.333 -6.83301 -25 -10.5s-20.834 -8.16699 -24.501 -13.5s-5.5 -15.666 -5.5 -30.999v-13v-546c0 -12.667 6.33301 -21.667 19 -27l11 -5l9 -5c6 -3.33301 12 -6.33301 18 -9c2.66699 -2.66699 4 -6.33398 4 -11.001
c0 -6 -1.66699 -11.333 -5 -16c-6 -8.66699 -13.333 -13 -22 -13c-4 0 -6.66699 2 -8 6h-116h-593h-115c-1.33301 -4 -4.33301 -6 -9 -6c-5.33301 0 -11.166 2.83301 -17.499 8.5s-9.5 12.5 -9.5 20.5s3 13.667 9 17s11.667 5.66602 17 6.99902
c18 5.33301 28.333 10.833 31 16.5s4 19.834 4 42.501v555c0 5.33301 -1.66699 9.33301 -5 12s-12.333 6.33398 -27 11.001c-5.33301 1.33301 -10.333 3 -15 5c-9.33301 4 -14 11 -14 21c0 7.33301 2.5 12.833 7.5 16.5s14.833 5.5 29.5 5.5h138
c10.667 0 19.167 -1.33301 25.5 -4s9.5 -8.66699 9.5 -18c0 -7.33301 -2.33301 -13 -7 -17c-2 -2 -9.16699 -5.16699 -21.5 -9.5s-20.5 -9.16602 -24.5 -14.499s-6 -15 -6 -29v-14v-554c0 -13.333 8 -20 24 -20z" />
    <glyph glyph-name="Ugrave" unicode="&#xd9;" horiz-adv-x="960" 
d="M724 0l-657.998 -0.0078125c-11.333 0 -20.166 1.33301 -26.499 4s-9.5 9 -9.5 19c0 8 3 13.667 9 17s11.667 5.66602 17 6.99902c18 5.33301 28.333 10.833 31 16.5s4 19.834 4 42.501v555c0 5.33301 -1.66699 9.33301 -5 12s-12.333 6.33398 -27 11.001
c-5.33301 1.33301 -10.333 3 -15 5c-9.33301 4 -14 11 -14 21c0 7.33301 2.5 12.833 7.5 16.5s14.833 5.5 29.5 5.5h138c10.667 0 19.167 -1.33301 25.5 -4s9.5 -8.66699 9.5 -18c0 -7.33301 -2.33301 -13 -7 -17c-2 -2 -9.16699 -5.16699 -21.5 -9.5
s-20.5 -9.16602 -24.5 -14.499s-6 -15 -6 -29v-14v-554c0 -13.333 8 -20 24 -20h206c9.33301 3.33301 15.166 7.33301 17.499 12s3.5 13.334 3.5 26.001v16v556c0 6 -3.66699 11 -11 15l-19.5 6.5c-11 3.66699 -17.833 6.5 -20.5 8.5c-6 4 -9 10 -9 18
c0 7.33301 2.5 12.833 7.5 16.5s14.5 5.5 28.5 5.5h138c10.667 0 19.167 -1.33301 25.5 -4s9.5 -8.66699 9.5 -18c0 -7.33301 -2.33301 -13 -7 -17c-2 -2 -9.33301 -5.16699 -22 -9.5s-20.834 -9 -24.501 -14s-5.5 -14.833 -5.5 -29.5v-14v-555
c0 -12.667 6.66699 -19 20 -19h201c11.333 0 19.333 3.33301 24 10s7 21.334 7 44.001v556c0 6.66699 -3.66699 12 -11 16s-14.666 6 -21.999 6c-10 3.33301 -16.333 6 -19 8c-6 4 -9 10 -9 18c0 7.33301 2.33301 12.833 7 16.5s14 5.5 28 5.5h142
c10.667 0 19.167 -1.33301 25.5 -4s9.5 -8.66699 9.5 -18c0 -7.33301 -2 -12.666 -6 -15.999s-12.333 -6.83301 -25 -10.5s-20.834 -8.16699 -24.501 -13.5s-5.5 -15.666 -5.5 -30.999v-13v-546c0 -10.667 4.33301 -18.667 13 -24l6 -3l15 -2c8.66699 0 15 -2.16699 19 -6.5
s8.16699 -15.666 12.5 -33.999s6.5 -32.166 6.5 -41.499l4 -26c0 -14 -6 -21 -18 -21c-6.66699 0 -13.334 2.83301 -20.001 8.5s-11 9.5 -13 11.5c-17.333 14 -29.333 23 -36 27c-12 8 -25.333 14.167 -40 18.5s-29.5 7.5 -44.5 9.5s-29.833 3 -44.5 3z" />
    <glyph glyph-name="Ugrave" unicode="&#x429;" horiz-adv-x="960" 
d="M724 0l-657.998 -0.0078125c-11.333 0 -20.166 1.33301 -26.499 4s-9.5 9 -9.5 19c0 8 3 13.667 9 17s11.667 5.66602 17 6.99902c18 5.33301 28.333 10.833 31 16.5s4 19.834 4 42.501v555c0 5.33301 -1.66699 9.33301 -5 12s-12.333 6.33398 -27 11.001
c-5.33301 1.33301 -10.333 3 -15 5c-9.33301 4 -14 11 -14 21c0 7.33301 2.5 12.833 7.5 16.5s14.833 5.5 29.5 5.5h138c10.667 0 19.167 -1.33301 25.5 -4s9.5 -8.66699 9.5 -18c0 -7.33301 -2.33301 -13 -7 -17c-2 -2 -9.16699 -5.16699 -21.5 -9.5
s-20.5 -9.16602 -24.5 -14.499s-6 -15 -6 -29v-14v-554c0 -13.333 8 -20 24 -20h206c9.33301 3.33301 15.166 7.33301 17.499 12s3.5 13.334 3.5 26.001v16v556c0 6 -3.66699 11 -11 15l-19.5 6.5c-11 3.66699 -17.833 6.5 -20.5 8.5c-6 4 -9 10 -9 18
c0 7.33301 2.5 12.833 7.5 16.5s14.5 5.5 28.5 5.5h138c10.667 0 19.167 -1.33301 25.5 -4s9.5 -8.66699 9.5 -18c0 -7.33301 -2.33301 -13 -7 -17c-2 -2 -9.33301 -5.16699 -22 -9.5s-20.834 -9 -24.501 -14s-5.5 -14.833 -5.5 -29.5v-14v-555
c0 -12.667 6.66699 -19 20 -19h201c11.333 0 19.333 3.33301 24 10s7 21.334 7 44.001v556c0 6.66699 -3.66699 12 -11 16s-14.666 6 -21.999 6c-10 3.33301 -16.333 6 -19 8c-6 4 -9 10 -9 18c0 7.33301 2.33301 12.833 7 16.5s14 5.5 28 5.5h142
c10.667 0 19.167 -1.33301 25.5 -4s9.5 -8.66699 9.5 -18c0 -7.33301 -2 -12.666 -6 -15.999s-12.333 -6.83301 -25 -10.5s-20.834 -8.16699 -24.501 -13.5s-5.5 -15.666 -5.5 -30.999v-13v-546c0 -10.667 4.33301 -18.667 13 -24l6 -3l15 -2c8.66699 0 15 -2.16699 19 -6.5
s8.16699 -15.666 12.5 -33.999s6.5 -32.166 6.5 -41.499l4 -26c0 -14 -6 -21 -18 -21c-6.66699 0 -13.334 2.83301 -20.001 8.5s-11 9.5 -13 11.5c-17.333 14 -29.333 23 -36 27c-12 8 -25.333 14.167 -40 18.5s-29.5 7.5 -44.5 9.5s-29.833 3 -44.5 3z" />
    <glyph glyph-name="Uacute" unicode="&#xda;" horiz-adv-x="740" 
d="M205 626c0 18 -2.32812 31.6699 -6.99512 41.0029s-15.334 14 -32.001 14c-10.667 0 -19.167 -0.333008 -25.5 -1s-15.5 -3 -27.5 -7c-20.667 -6.66699 -36.334 -13.334 -47.001 -20.001s-25 -17.334 -43 -32.001c-4.66699 -4.66699 -9.83398 -9.33398 -15.501 -14.001
s-11.167 -7 -16.5 -7c-13.333 0 -20 7.66699 -20 23l3 23c4 19.333 7.66699 35.333 11 48c7.33301 25.333 16.666 38 27.999 38h171h140c11.333 0 20.166 -1.33301 26.499 -4s9.5 -9 9.5 -19c0 -8 -3 -14 -9 -18c-2.66699 -1.33301 -9.66699 -3.66602 -21 -6.99902
c-7.33301 0 -15 -3.5 -23 -10.5s-12 -14.167 -12 -21.5v-200c54.667 0 103.667 -3.5 147 -10.5s84.666 -20.167 123.999 -39.5c44.667 -22 80.334 -49.667 107.001 -83c31.333 -38.667 47 -81 47 -127c0 -35.333 -8.5 -66.5 -25.5 -93.5s-41.5 -48.5 -73.5 -64.5
c-25.333 -13.333 -52.5 -22.333 -81.5 -27s-62.167 -7 -99.5 -7h-260c-10.667 0 -19.167 1.33301 -25.5 4s-9.5 9 -9.5 19c0 8.66699 1.83301 14.167 5.5 16.5s10 4.83301 19 7.5l24.5 7c7.33301 3.33301 11 8.66602 11 15.999v556zM295.005 400.003l-0.000976562 -270.999
c0 -20 1.16699 -34 3.5 -42s9.16602 -15 20.499 -21s24.833 -9.83301 40.5 -11.5s32.834 -2.5 51.501 -2.5c30 0 55.833 2 77.5 6s42.667 12.5 63 25.5s36.5 30 48.5 51s18 43.5 18 67.5c0 69.333 -38.333 121.666 -115 156.999c-59.333 27.333 -128.666 41 -207.999 41z
" />
    <glyph glyph-name="Uacute" unicode="&#x42a;" horiz-adv-x="740" 
d="M205 626c0 18 -2.32812 31.6699 -6.99512 41.0029s-15.334 14 -32.001 14c-10.667 0 -19.167 -0.333008 -25.5 -1s-15.5 -3 -27.5 -7c-20.667 -6.66699 -36.334 -13.334 -47.001 -20.001s-25 -17.334 -43 -32.001c-4.66699 -4.66699 -9.83398 -9.33398 -15.501 -14.001
s-11.167 -7 -16.5 -7c-13.333 0 -20 7.66699 -20 23l3 23c4 19.333 7.66699 35.333 11 48c7.33301 25.333 16.666 38 27.999 38h171h140c11.333 0 20.166 -1.33301 26.499 -4s9.5 -9 9.5 -19c0 -8 -3 -14 -9 -18c-2.66699 -1.33301 -9.66699 -3.66602 -21 -6.99902
c-7.33301 0 -15 -3.5 -23 -10.5s-12 -14.167 -12 -21.5v-200c54.667 0 103.667 -3.5 147 -10.5s84.666 -20.167 123.999 -39.5c44.667 -22 80.334 -49.667 107.001 -83c31.333 -38.667 47 -81 47 -127c0 -35.333 -8.5 -66.5 -25.5 -93.5s-41.5 -48.5 -73.5 -64.5
c-25.333 -13.333 -52.5 -22.333 -81.5 -27s-62.167 -7 -99.5 -7h-260c-10.667 0 -19.167 1.33301 -25.5 4s-9.5 9 -9.5 19c0 8.66699 1.83301 14.167 5.5 16.5s10 4.83301 19 7.5l24.5 7c7.33301 3.33301 11 8.66602 11 15.999v556zM295.005 400.003l-0.000976562 -270.999
c0 -20 1.16699 -34 3.5 -42s9.16602 -15 20.499 -21s24.833 -9.83301 40.5 -11.5s32.834 -2.5 51.501 -2.5c30 0 55.833 2 77.5 6s42.667 12.5 63 25.5s36.5 30 48.5 51s18 43.5 18 67.5c0 69.333 -38.333 121.666 -115 156.999c-59.333 27.333 -128.666 41 -207.999 41z
" />
    <glyph glyph-name="Ucircumflex" unicode="&#xdb;" horiz-adv-x="880" 
d="M699 106v556c0 6 -3.66699 11 -11 15l-19.5 6.5c-11 3.66699 -17.833 6.5 -20.5 8.5c-6 4 -9 10 -9 18c0 7.33301 2.5 12.833 7.5 16.5s14.5 5.5 28.5 5.5h138c10.667 0 19.167 -1.33301 25.5 -4s9.5 -8.66699 9.5 -18c0 -7.33301 -2.33301 -13 -7 -17
c-2 -2 -9.33301 -5.16699 -22 -9.5s-20.834 -9 -24.501 -14s-5.5 -14.833 -5.5 -29.5v-14v-555c0 -6 3.66699 -11 11 -15c10 -4 17 -6.66699 21 -8c10 -4 16.333 -6.66699 19 -8c5.33301 -4 8 -9.66699 8 -17s-2.5 -13 -7.5 -17s-14.5 -6 -28.5 -6h-138
c-11.333 -0 -20.166 1.33301 -26.499 4s-9.5 9 -9.5 19c0 8 3 13.667 9 17s11.667 5.66602 17 6.99902c18 5.33301 28.333 10.833 31 16.5s4 19.834 4 42.501zM179 662l0.000976562 -210c54.667 0 103.667 -3.5 147 -10.5s84.666 -20.167 123.999 -39.5
c44.667 -22 80.334 -49.667 107.001 -83c31.333 -38.667 47 -81 47 -127c0 -35.333 -8.5 -66.5 -25.5 -93.5s-41.5 -48.5 -73.5 -64.5c-25.333 -13.333 -52.5 -22.333 -81.5 -27s-62.167 -7 -99.5 -7h-260c-10.667 -0 -19.167 1.33301 -25.5 4s-9.5 9 -9.5 19
c0 8.66699 1.83301 14.167 5.5 16.5s10 4.83301 19 7.5l24.5 7c7.33301 3.33301 11 8.66602 11 15.999v556v17c0 13.333 -1.66699 22.333 -5 27s-11.5 9.33398 -24.5 14.001s-19.833 7.33398 -20.5 8.00098c-4.66699 3.33301 -7 9 -7 17c0 7.33301 2.5 13 7.5 17
s14.5 6 28.5 6h140c11.333 0 20.166 -1.33301 26.499 -4s9.5 -9 9.5 -19c0 -8 -3 -14 -9 -18c-2.66699 -1.33301 -9.16699 -3.33301 -19.5 -6s-16.5 -4.33398 -18.5 -5.00098c-12 -4 -18 -10 -18 -18zM179.001 400l-0.000976562 -270.999c0 -20 1.16699 -34 3.5 -42
s9.16602 -15 20.499 -21s24.833 -9.83301 40.5 -11.5s32.834 -2.5 51.501 -2.5c30 0 55.833 2 77.5 6s42.667 12.5 63 25.5s36.5 30 48.5 51s18 43.5 18 67.5c0 69.333 -38.333 121.666 -115 156.999c-59.333 27.333 -128.666 41 -207.999 41z" />
    <glyph glyph-name="Ucircumflex" unicode="&#x42b;" horiz-adv-x="880" 
d="M699 106v556c0 6 -3.66699 11 -11 15l-19.5 6.5c-11 3.66699 -17.833 6.5 -20.5 8.5c-6 4 -9 10 -9 18c0 7.33301 2.5 12.833 7.5 16.5s14.5 5.5 28.5 5.5h138c10.667 0 19.167 -1.33301 25.5 -4s9.5 -8.66699 9.5 -18c0 -7.33301 -2.33301 -13 -7 -17
c-2 -2 -9.33301 -5.16699 -22 -9.5s-20.834 -9 -24.501 -14s-5.5 -14.833 -5.5 -29.5v-14v-555c0 -6 3.66699 -11 11 -15c10 -4 17 -6.66699 21 -8c10 -4 16.333 -6.66699 19 -8c5.33301 -4 8 -9.66699 8 -17s-2.5 -13 -7.5 -17s-14.5 -6 -28.5 -6h-138
c-11.333 -0 -20.166 1.33301 -26.499 4s-9.5 9 -9.5 19c0 8 3 13.667 9 17s11.667 5.66602 17 6.99902c18 5.33301 28.333 10.833 31 16.5s4 19.834 4 42.501zM179 662l0.000976562 -210c54.667 0 103.667 -3.5 147 -10.5s84.666 -20.167 123.999 -39.5
c44.667 -22 80.334 -49.667 107.001 -83c31.333 -38.667 47 -81 47 -127c0 -35.333 -8.5 -66.5 -25.5 -93.5s-41.5 -48.5 -73.5 -64.5c-25.333 -13.333 -52.5 -22.333 -81.5 -27s-62.167 -7 -99.5 -7h-260c-10.667 -0 -19.167 1.33301 -25.5 4s-9.5 9 -9.5 19
c0 8.66699 1.83301 14.167 5.5 16.5s10 4.83301 19 7.5l24.5 7c7.33301 3.33301 11 8.66602 11 15.999v556v17c0 13.333 -1.66699 22.333 -5 27s-11.5 9.33398 -24.5 14.001s-19.833 7.33398 -20.5 8.00098c-4.66699 3.33301 -7 9 -7 17c0 7.33301 2.5 13 7.5 17
s14.5 6 28.5 6h140c11.333 0 20.166 -1.33301 26.499 -4s9.5 -9 9.5 -19c0 -8 -3 -14 -9 -18c-2.66699 -1.33301 -9.16699 -3.33301 -19.5 -6s-16.5 -4.33398 -18.5 -5.00098c-12 -4 -18 -10 -18 -18zM179.001 400l-0.000976562 -270.999c0 -20 1.16699 -34 3.5 -42
s9.16602 -15 20.499 -21s24.833 -9.83301 40.5 -11.5s32.834 -2.5 51.501 -2.5c30 0 55.833 2 77.5 6s42.667 12.5 63 25.5s36.5 30 48.5 51s18 43.5 18 67.5c0 69.333 -38.333 121.666 -115 156.999c-59.333 27.333 -128.666 41 -207.999 41z" />
    <glyph glyph-name="Udieresis" unicode="&#xdc;" horiz-adv-x="620" 
d="M179 662l0.000976562 -210c54.667 0 103.667 -3.5 147 -10.5s84.666 -20.167 123.999 -39.5c44.667 -22 80.334 -49.667 107.001 -83c31.333 -38.667 47 -81 47 -127c0 -35.333 -8.5 -66.5 -25.5 -93.5s-41.5 -48.5 -73.5 -64.5c-25.333 -13.333 -52.5 -22.333 -81.5 -27
s-62.167 -7 -99.5 -7h-260c-10.667 -0 -19.167 1.33301 -25.5 4s-9.5 9 -9.5 19c0 8.66699 1.83301 14.167 5.5 16.5s10 4.83301 19 7.5l24.5 7c7.33301 3.33301 11 8.66602 11 15.999v556v17c0 13.333 -1.66699 22.333 -5 27s-11.5 9.33398 -24.5 14.001
s-19.833 7.33398 -20.5 8.00098c-4.66699 3.33301 -7 9 -7 17c0 7.33301 2.5 13 7.5 17s14.5 6 28.5 6h140c11.333 0 20.166 -1.33301 26.499 -4s9.5 -9 9.5 -19c0 -8 -3 -14 -9 -18c-2.66699 -1.33301 -9.16699 -3.33301 -19.5 -6s-16.5 -4.33398 -18.5 -5.00098
c-12 -4 -18 -10 -18 -18zM179.001 400l-0.000976562 -270.999c0 -20 1.16699 -34 3.5 -42s9.16602 -15 20.499 -21s24.833 -9.83301 40.5 -11.5s32.834 -2.5 51.501 -2.5c30 0 55.833 2 77.5 6s42.667 12.5 63 25.5s36.5 30 48.5 51s18 43.5 18 67.5
c0 69.333 -38.333 121.666 -115 156.999c-59.333 27.333 -128.666 41 -207.999 41z" />
    <glyph glyph-name="Udieresis" unicode="&#x42c;" horiz-adv-x="620" 
d="M179 662l0.000976562 -210c54.667 0 103.667 -3.5 147 -10.5s84.666 -20.167 123.999 -39.5c44.667 -22 80.334 -49.667 107.001 -83c31.333 -38.667 47 -81 47 -127c0 -35.333 -8.5 -66.5 -25.5 -93.5s-41.5 -48.5 -73.5 -64.5c-25.333 -13.333 -52.5 -22.333 -81.5 -27
s-62.167 -7 -99.5 -7h-260c-10.667 -0 -19.167 1.33301 -25.5 4s-9.5 9 -9.5 19c0 8.66699 1.83301 14.167 5.5 16.5s10 4.83301 19 7.5l24.5 7c7.33301 3.33301 11 8.66602 11 15.999v556v17c0 13.333 -1.66699 22.333 -5 27s-11.5 9.33398 -24.5 14.001
s-19.833 7.33398 -20.5 8.00098c-4.66699 3.33301 -7 9 -7 17c0 7.33301 2.5 13 7.5 17s14.5 6 28.5 6h140c11.333 0 20.166 -1.33301 26.499 -4s9.5 -9 9.5 -19c0 -8 -3 -14 -9 -18c-2.66699 -1.33301 -9.16699 -3.33301 -19.5 -6s-16.5 -4.33398 -18.5 -5.00098
c-12 -4 -18 -10 -18 -18zM179.001 400l-0.000976562 -270.999c0 -20 1.16699 -34 3.5 -42s9.16602 -15 20.499 -21s24.833 -9.83301 40.5 -11.5s32.834 -2.5 51.501 -2.5c30 0 55.833 2 77.5 6s42.667 12.5 63 25.5s36.5 30 48.5 51s18 43.5 18 67.5
c0 69.333 -38.333 121.666 -115 156.999c-59.333 27.333 -128.666 41 -207.999 41z" />
    <glyph glyph-name="Yacute" unicode="&#xdd;" horiz-adv-x="720" 
d="M219 411l360.001 -0.000976562c-6.66699 66.667 -32.334 127 -77.001 181c-28 34.667 -58.667 60.667 -92 78s-71.333 26 -114 26c-48.667 0 -91.667 -13.333 -129 -40c-18 -13.333 -33.333 -28.666 -46 -45.999c-8.66699 -12 -19.334 -31 -32.001 -57
c-4 -8 -7.66699 -15.667 -11 -23c-6 -10 -12.333 -15 -19 -15c-11.333 0 -18.333 4 -21 12s-4 15.333 -4 22v72c0 16 4 29.667 12 41c2.66699 4 8 8.83301 16 14.5s21 13.5 39 23.5c60.667 31.333 124.334 47 191.001 47c109.333 0 202.333 -41 279 -123
c74.667 -80 112 -175.333 112 -286c0 -101.333 -35.5 -185.5 -106.5 -252.5s-157.167 -100.5 -258.5 -100.5c-69.333 0 -131.666 17.333 -186.999 52c-19.333 12 -39 27 -59 45c-27.333 25.333 -41 45.333 -41 60c0 16 7.33301 24 22 24c7.33301 0 14.333 -3 21 -9
c8 -8.66699 13.667 -14.667 17 -18c33.333 -33.333 66.166 -57.833 98.499 -73.5s69.833 -23.5 112.5 -23.5c46 0 87.167 8.33301 123.5 25s67.5 43 93.5 79c19.333 28 34.5 61 45.5 99s16.5 75 16.5 111h-362c-20.667 0 -31 9 -31 27c0 7.33301 2.83301 13.833 8.5 19.5
s13.167 8.5 22.5 8.5z" />
    </font>
</defs>
</svg>
